<?xml version="1.0" encoding="UTF-8" standalone="no"?>
<svg
   version="1.2"
   width="79.565742mm"
   height="26.159142mm"
   viewBox="0 0 45.277303 14.885996"
   id="svg138"
   xmlns:xlink="http://www.w3.org/1999/xlink"
   xmlns="http://www.w3.org/2000/svg"
   xmlns:svg="http://www.w3.org/2000/svg">
  <defs
     id="defs142" />
  <style
     text="style/css"
     id="style2"><![CDATA[
tspan { white-space: pre; }
]]></style>
  <!-- Page: 1/1 -->
  <line
     stroke-linejoin="round"
     stroke-linecap="round"
     stroke-width="0.1"
     stroke="currentColor"
     x1="1.262"
     y1="5.7789998"
     x2="45.227303"
     y2="5.7789998"
     id="line4" />
  <line
     stroke-linejoin="round"
     stroke-linecap="round"
     stroke-width="0.1"
     stroke="currentColor"
     x1="1.262"
     y1="4.7789998"
     x2="45.227303"
     y2="4.7789998"
     id="line6" />
  <line
     stroke-linejoin="round"
     stroke-linecap="round"
     stroke-width="0.1"
     stroke="currentColor"
     x1="1.262"
     y1="3.779"
     x2="45.227303"
     y2="3.779"
     id="line8" />
  <line
     stroke-linejoin="round"
     stroke-linecap="round"
     stroke-width="0.1"
     stroke="currentColor"
     x1="1.262"
     y1="2.779"
     x2="45.227303"
     y2="2.779"
     id="line10" />
  <line
     stroke-linejoin="round"
     stroke-linecap="round"
     stroke-width="0.1"
     stroke="currentColor"
     x1="1.262"
     y1="1.779"
     x2="45.227303"
     y2="1.779"
     id="line12" />
  <rect
     x="45.087299"
     y="10.729"
     width="0.19"
     height="4.0500002"
     ry="0.0000"
     fill="currentColor"
     id="rect14" />
  <rect
     x="31.8431"
     y="1.779"
     width="0.19"
     height="4.0500002"
     ry="0.0000"
     fill="currentColor"
     id="rect16" />
  <rect
     x="45.087299"
     y="1.779"
     width="0.19"
     height="4.0500002"
     ry="0.0000"
     fill="currentColor"
     id="rect18" />
  <rect
     x="45.087299"
     y="5.829"
     width="0.19"
     height="4.9499998"
     ry="0.0000"
     fill="currentColor"
     id="rect20" />
  <rect
     x="31.8431"
     y="10.729"
     width="0.19"
     height="4.0500002"
     ry="0.0000"
     fill="currentColor"
     id="rect22" />
  <rect
     x="31.8431"
     y="5.829"
     width="0.19"
     height="4.9499998"
     ry="0.0000"
     fill="currentColor"
     id="rect24" />
  <rect
     x="23.907"
     y="6.6789999"
     width="1.9563"
     height="0.2"
     ry="0.1"
     fill="currentColor"
     id="rect26" />
  <rect
     x="18.8986"
     y="6.6789999"
     width="1.9563"
     height="0.2"
     ry="0.1"
     fill="currentColor"
     id="rect28" />
  <line
     stroke-linejoin="round"
     stroke-linecap="round"
     stroke-width="0.1"
     stroke="currentColor"
     x1="1.262"
     y1="14.779"
     x2="45.227303"
     y2="14.779"
     id="line30" />
  <line
     stroke-linejoin="round"
     stroke-linecap="round"
     stroke-width="0.1"
     stroke="currentColor"
     x1="1.262"
     y1="13.779"
     x2="45.227303"
     y2="13.779"
     id="line32" />
  <line
     stroke-linejoin="round"
     stroke-linecap="round"
     stroke-width="0.1"
     stroke="currentColor"
     x1="1.262"
     y1="12.779"
     x2="45.227303"
     y2="12.779"
     id="line34" />
  <line
     stroke-linejoin="round"
     stroke-linecap="round"
     stroke-width="0.1"
     stroke="currentColor"
     x1="1.262"
     y1="11.779"
     x2="45.227303"
     y2="11.779"
     id="line36" />
  <line
     stroke-linejoin="round"
     stroke-linecap="round"
     stroke-width="0.1"
     stroke="currentColor"
     x1="1.262"
     y1="10.779"
     x2="45.227303"
     y2="10.779"
     id="line38" />
  <rect
     x="15.3904"
     y="6.2073998"
     width="0.13"
     height="5.8855"
     ry="0.039999999"
     fill="currentColor"
     id="rect40" />
  <a
     style="color:inherit"
     xlink:href="textedit:///Users/philippeperret/ICARE_EDITIONS/livres/musique/analyses/Schumann_Pays_etranges_Op15-1/Images/partition/essai-not-trimed.ly:40:77:78"
     id="a44"
     transform="translate(-4.4786,-3.8303)">
    <path
       transform="matrix(0.004,0,0,-0.004,41.1159,16.6093)"
       d="m -23,-116 c 0,28 11,42 40,42 33,0 78,-13 119,-31 L 4,53 c -7,9 -10,17 -10,25 0,34 50,66 87,99 25,22 37,52 37,83 0,24 -8,49 -25,69 l -35,42 c -3,3 -4,7 -4,10 0,9 9,15 17,15 4,0 8,-1 11,-5 L 233,211 c 7,-9 10,-17 10,-25 0,-34 -50,-66 -87,-99 -25,-22 -37,-52 -37,-83 0,-24 7,-49 24,-69 l 84,-99 c 3,-3 4,-7 4,-10 0,-9 -8,-16 -16,-16 -4,0 -9,2 -12,6 -18,21 -63,38 -97,38 -41,0 -53,-26 -53,-67 0,-35 11,-74 28,-94 7,-8 -5,-19 -12,-11 -45,54 -92,148 -92,202 z"
       fill="currentColor"
       id="path42" />
  </a>
  <a
     style="color:inherit"
     xlink:href="textedit:///Users/philippeperret/ICARE_EDITIONS/livres/musique/analyses/Schumann_Pays_etranges_Op15-1/Images/partition/essai-not-trimed.ly:40:10:11"
     id="a48"
     transform="translate(-4.4786,-3.8303)">
    <path
       transform="matrix(0.004,0,0,-0.004,18.6948,16.1093)"
       d="m 218,136 c 55,0 108,-28 108,-89 0,-71 -55,-121 -102,-149 -35,-21 -75,-34 -116,-34 -55,0 -108,28 -108,89 0,71 55,121 102,149 35,21 75,34 116,34 z"
       fill="currentColor"
       id="path46" />
  </a>
  <a
     style="color:inherit"
     xlink:href="textedit:///Users/philippeperret/ICARE_EDITIONS/livres/musique/analyses/Schumann_Pays_etranges_Op15-1/Images/partition/essai-not-trimed.ly:40:79:80"
     id="a52"
     transform="translate(-4.4786,-3.8303)">
    <path
       transform="matrix(0.004,0,0,-0.004,44.4659,16.6093)"
       d="M 365,0 H 10 C 4,0 0,4 0,10 v 136 c 0,6 4,10 10,10 h 355 c 6,0 10,-4 10,-10 V 10 C 375,4 371,0 365,0 Z"
       fill="currentColor"
       id="path50" />
  </a>
  <polygon
     transform="translate(12.6362,7.279)"
     stroke-linejoin="round"
     stroke-linecap="round"
     stroke-width="0.08"
     fill="currentColor"
     stroke="currentColor"
     points="0.04,0.2 0.04,-0.2 7.8526,-3.2 7.8526,-2.8 "
     id="polygon54" />
  <a
     style="color:inherit"
     xlink:href="textedit:///Users/philippeperret/ICARE_EDITIONS/livres/musique/analyses/Schumann_Pays_etranges_Op15-1/Images/partition/essai-not-trimed.ly:40:68:69"
     id="a58"
     transform="translate(-4.4786,-3.8303)">
    <path
       transform="matrix(0.004,0,0,-0.004,31.4658,15.1093)"
       d="m 218,136 c 55,0 108,-28 108,-89 0,-71 -55,-121 -102,-149 -35,-21 -75,-34 -116,-34 -55,0 -108,28 -108,89 0,71 55,121 102,149 35,21 75,34 116,34 z"
       fill="currentColor"
       id="path56" />
  </a>
  <a
     style="color:inherit"
     xlink:href="textedit:///Users/philippeperret/ICARE_EDITIONS/livres/musique/analyses/Schumann_Pays_etranges_Op15-1/Images/partition/essai-not-trimed.ly:40:42:43"
     id="a62"
     transform="translate(-4.4786,-3.8303)">
    <path
       transform="matrix(0.004,0,0,-0.004,28.7116,10.6093)"
       d="m 218,136 c 55,0 108,-28 108,-89 0,-71 -55,-121 -102,-149 -35,-21 -75,-34 -116,-34 -55,0 -108,28 -108,89 0,71 55,121 102,149 35,21 75,34 116,34 z"
       fill="currentColor"
       id="path60" />
  </a>
  <rect
     x="25.4072"
     y="4.0074"
     width="0.13"
     height="2.5855"
     ry="0.039999999"
     fill="currentColor"
     id="rect64" />
  <rect
     x="28.1614"
     y="5.2405996"
     width="0.13"
     height="5.8523002"
     ry="0.039999999"
     fill="currentColor"
     id="rect66" />
  <a
     style="color:inherit"
     xlink:href="textedit:///Users/philippeperret/ICARE_EDITIONS/livres/musique/analyses/Schumann_Pays_etranges_Op15-1/Images/partition/essai-not-trimed.ly:40:70:71"
     id="a70"
     transform="translate(-4.4786,-3.8303)">
    <path
       transform="matrix(0.004,0,0,-0.004,33.72,16.1093)"
       d="m 218,136 c 55,0 108,-28 108,-89 0,-71 -55,-121 -102,-149 -35,-21 -75,-34 -116,-34 -55,0 -108,28 -108,89 0,71 55,121 102,149 35,21 75,34 116,34 z"
       fill="currentColor"
       id="path68" />
  </a>
  <polygon
     transform="translate(23.153,2.969)"
     stroke-linejoin="round"
     stroke-linecap="round"
     stroke-width="0.08"
     fill="currentColor"
     stroke="currentColor"
     points="0.04,0.2 0.04,-0.2 7.3526,3.11 7.3526,3.51 "
     id="polygon72" />
  <rect
     x="23.153"
     y="2.9981"
     width="0.13"
     height="2.5948"
     ry="0.039999999"
     fill="currentColor"
     id="rect74" />
  <a
     style="color:inherit"
     xlink:href="textedit:///Users/philippeperret/ICARE_EDITIONS/livres/musique/analyses/Schumann_Pays_etranges_Op15-1/Images/partition/essai-not-trimed.ly:40:40:41"
     id="a78"
     transform="translate(-4.4786,-3.8303)">
    <path
       transform="matrix(0.004,0,0,-0.004,26.4574,9.6093)"
       d="m 218,136 c 55,0 108,-28 108,-89 0,-71 -55,-121 -102,-149 -35,-21 -75,-34 -116,-34 -55,0 -108,28 -108,89 0,71 55,121 102,149 35,21 75,34 116,34 z"
       fill="currentColor"
       id="path76" />
  </a>
  <rect
     x="20.3988"
     y="4.3037"
     width="0.13"
     height="2.2892001"
     ry="0.039999999"
     fill="currentColor"
     id="rect80" />
  <a
     style="color:inherit"
     xlink:href="textedit:///Users/philippeperret/ICARE_EDITIONS/livres/musique/analyses/Schumann_Pays_etranges_Op15-1/Images/partition/essai-not-trimed.ly:40:38:39"
     id="a84"
     transform="translate(-4.4786,-3.8303)">
    <path
       transform="matrix(0.004,0,0,-0.004,23.7032,10.6093)"
       d="m 218,136 c 55,0 108,-28 108,-89 0,-71 -55,-121 -102,-149 -35,-21 -75,-34 -116,-34 -55,0 -108,28 -108,89 0,71 55,121 102,149 35,21 75,34 116,34 z"
       fill="currentColor"
       id="path82" />
  </a>
  <rect
     x="18.1446"
     y="5.1604996"
     width="0.13"
     height="5.9324002"
     ry="0.039999999"
     fill="currentColor"
     id="rect86" />
  <a
     style="color:inherit"
     xlink:href="textedit:///Users/philippeperret/ICARE_EDITIONS/livres/musique/analyses/Schumann_Pays_etranges_Op15-1/Images/partition/essai-not-trimed.ly:40:12:13"
     id="a90"
     transform="translate(-4.4786,-3.8303)">
    <path
       transform="matrix(0.004,0,0,-0.004,21.449,15.1093)"
       d="m 218,136 c 55,0 108,-28 108,-89 0,-71 -55,-121 -102,-149 -35,-21 -75,-34 -116,-34 -55,0 -108,28 -108,89 0,71 55,121 102,149 35,21 75,34 116,34 z"
       fill="currentColor"
       id="path88" />
  </a>
  <rect
     x="12.6362"
     y="7.2542996"
     width="0.13"
     height="5.8386002"
     ry="0.039999999"
     fill="currentColor"
     id="rect92" />
  <rect
     x="30.4156"
     y="6.2498999"
     width="0.13"
     height="5.8429999"
     ry="0.039999999"
     fill="currentColor"
     id="rect94" />
  <a
     style="color:inherit"
     xlink:href="textedit:///Users/philippeperret/ICARE_EDITIONS/livres/musique/analyses/Schumann_Pays_etranges_Op15-1/Images/partition/essai-not-trimed.ly:36:6:7"
     id="a98"
     transform="translate(-4.4786,-3.8303)">
    <path
       transform="matrix(0.004,0,0,-0.004,12.2406,16.6093)"
       d="m 359,27 c -49,0 -75,42 -75,75 0,38 27,77 72,77 4,0 9,0 14,-1 -28,37 -72,59 -120,59 C 144,237 137,164 137,51 V 0 -51 c 0,-113 7,-187 113,-187 80,0 139,70 158,151 2,7 7,10 12,10 6,0 13,-4 13,-12 0,-94 -105,-174 -183,-174 -68,0 -137,21 -184,70 C 17,-142 0,-71 0,0 c 0,71 17,142 66,193 47,49 116,69 184,69 87,0 160,-63 175,-149 1,-5 1,-10 1,-14 0,-40 -30,-72 -67,-72 z"
       fill="currentColor"
       id="path96" />
  </a>
  <a
     style="color:inherit"
     xlink:href="textedit:///Users/philippeperret/ICARE_EDITIONS/livres/musique/analyses/Schumann_Pays_etranges_Op15-1/Images/partition/essai-not-trimed.ly:39:6:7"
     id="a102"
     transform="translate(-4.4786,-3.8303)">
    <path
       transform="matrix(0.004,0,0,-0.004,9.9906,15.6093)"
       d="m 216,-312 c 0,-10 -8,-19 -18,-19 -10,0 -19,9 -19,19 v 145 l -83,-31 v -158 c 0,-10 -9,-19 -19,-19 -10,0 -18,9 -18,19 v 145 l -32,-12 c -2,-1 -5,-1 -7,-1 -11,0 -20,9 -20,20 v 60 c 0,8 5,16 13,19 l 46,16 V 51 L 27,40 C 25,39 22,39 20,39 9,39 0,48 0,59 v 60 c 0,8 5,15 13,18 l 46,17 v 158 c 0,10 8,19 18,19 10,0 19,-9 19,-19 V 167 l 83,31 v 158 c 0,10 9,19 19,19 10,0 18,-9 18,-19 V 211 l 32,12 c 2,1 5,1 7,1 11,0 20,-9 20,-20 v -60 c 0,-8 -5,-16 -13,-19 L 216,109 V -51 l 32,11 c 2,1 5,1 7,1 11,0 20,-9 20,-20 v -60 c 0,-8 -5,-15 -13,-18 l -46,-17 z M 96,65 V -95 l 83,30 V 95 Z"
       fill="currentColor"
       id="path100" />
  </a>
  <path
     d="m 4.24,12.279 c 0,-0.112 0.092,-0.204 0.204,-0.204 0.112,0 0.204,0.092 0.204,0.204 0,0.112 -0.092,0.204 -0.204,0.204 -0.112,0 -0.204,-0.092 -0.204,-0.204 z m 0,-1 c 0,-0.112 0.092,-0.204 0.204,-0.204 0.112,0 0.204,0.092 0.204,0.204 0,0.112 -0.092,0.204 -0.204,0.204 -0.112,0 -0.204,-0.092 -0.204,-0.204 z m -1.3,-0.552 c 0.688,0 1.172,0.352 1.172,1.004 0,1.052 -1.052,1.656 -2.064,2.084 -0.012,0.012 -0.024,0.016 -0.036,0.016 -0.028,0 -0.052,-0.024 -0.052,-0.052 0,-0.012 0.004,-0.024 0.016,-0.036 0.808,-0.472 1.648,-1.06 1.648,-1.972 0,-0.48 -0.252,-0.94 -0.684,-0.94 -0.296,0 -0.516,0.216 -0.616,0.504 0.044,-0.02 0.088,-0.032 0.136,-0.032 0.22,0 0.4,0.18 0.4,0.4 0,0.232 -0.176,0.424 -0.4,0.424 -0.24,0 -0.448,-0.188 -0.448,-0.424 0,-0.532 0.408,-0.976 0.928,-0.976 z"
     fill="currentColor"
     id="path104"
     style="stroke-width:0.004" />
  <a
     style="color:inherit"
     xlink:href="textedit:///Users/philippeperret/ICARE_EDITIONS/livres/musique/analyses/Schumann_Pays_etranges_Op15-1/Images/partition/essai-not-trimed.ly:40:7:8"
     id="a108"
     transform="translate(-4.4786,-3.8303)">
    <path
       transform="matrix(0.004,0,0,-0.004,15.9406,17.1093)"
       d="m 218,136 c 55,0 108,-28 108,-89 0,-71 -55,-121 -102,-149 -35,-21 -75,-34 -116,-34 -55,0 -108,28 -108,89 0,71 55,121 102,149 35,21 75,34 116,34 z"
       fill="currentColor"
       id="path106" />
  </a>
  <a
     style="color:inherit"
     xlink:href="textedit:///Users/philippeperret/ICARE_EDITIONS/livres/musique/analyses/Schumann_Pays_etranges_Op15-1/Images/partition/essai-not-trimed.ly:25:6:7"
     id="a112"
     transform="translate(-4.4786,-3.8303)">
    <path
       transform="matrix(0.004,0,0,-0.004,12.2406,7.6093)"
       d="m 359,27 c -49,0 -75,42 -75,75 0,38 27,77 72,77 4,0 9,0 14,-1 -28,37 -72,59 -120,59 C 144,237 137,164 137,51 V 0 -51 c 0,-113 7,-187 113,-187 80,0 139,70 158,151 2,7 7,10 12,10 6,0 13,-4 13,-12 0,-94 -105,-174 -183,-174 -68,0 -137,21 -184,70 C 17,-142 0,-71 0,0 c 0,71 17,142 66,193 47,49 116,69 184,69 87,0 160,-63 175,-149 1,-5 1,-10 1,-14 0,-40 -30,-72 -67,-72 z"
       fill="currentColor"
       id="path110" />
  </a>
  <a
     style="color:inherit"
     xlink:href="textedit:///Users/philippeperret/ICARE_EDITIONS/livres/musique/analyses/Schumann_Pays_etranges_Op15-1/Images/partition/essai-not-trimed.ly:28:6:7"
     id="a116"
     transform="translate(-4.4786,-3.8303)">
    <path
       transform="matrix(0.004,0,0,-0.004,9.9906,5.6093)"
       d="m 216,-312 c 0,-10 -8,-19 -18,-19 -10,0 -19,9 -19,19 v 145 l -83,-31 v -158 c 0,-10 -9,-19 -19,-19 -10,0 -18,9 -18,19 v 145 l -32,-12 c -2,-1 -5,-1 -7,-1 -11,0 -20,9 -20,20 v 60 c 0,8 5,16 13,19 l 46,16 V 51 L 27,40 C 25,39 22,39 20,39 9,39 0,48 0,59 v 60 c 0,8 5,15 13,18 l 46,17 v 158 c 0,10 8,19 18,19 10,0 19,-9 19,-19 V 167 l 83,31 v 158 c 0,10 9,19 19,19 10,0 18,-9 18,-19 V 211 l 32,12 c 2,1 5,1 7,1 11,0 20,-9 20,-20 v -60 c 0,-8 -5,-16 -13,-19 L 216,109 V -51 l 32,11 c 2,1 5,1 7,1 11,0 20,-9 20,-20 v -60 c 0,-8 -5,-15 -13,-18 l -46,-17 z M 96,65 V -95 l 83,30 V 95 Z"
       fill="currentColor"
       id="path114" />
  </a>
  <path
     d="M 3.076,7.319 H 3.052 c -0.432,0 -0.78,-0.352 -0.78,-0.788 0,-0.232 0.212,-0.412 0.448,-0.412 0.216,0 0.38,0.188 0.38,0.412 0,0.208 -0.172,0.38 -0.38,0.38 -0.044,0 -0.084,-0.008 -0.124,-0.024 0.104,0.156 0.272,0.26 0.468,0.26 H 3.08 Z M 3.856,5.591 C 4.128,5.495 4.308,5.211 4.308,4.935 4.308,4.575 4.044,4.219 3.616,4.175 3.712,4.639 3.8,5.099 3.856,5.591 Z M 2.308,4.667 c 0,0.54 0.516,0.988 1.056,0.988 0.112,0 0.22,-0.008 0.328,-0.024 C 3.636,5.123 3.544,4.651 3.44,4.175 3.124,4.207 2.944,4.419 2.944,4.651 c 0,0.176 0.1,0.364 0.324,0.492 0.02,0.02 0.028,0.04 0.028,0.06 0,0.044 -0.04,0.088 -0.088,0.088 C 3.196,5.291 3.184,5.287 3.172,5.283 2.852,5.111 2.704,4.823 2.704,4.543 2.704,4.191 2.936,3.847 3.344,3.755 3.288,3.523 3.228,3.287 3.16,3.055 2.732,3.539 2.308,4.027 2.308,4.667 Z m 1.044,1.16 C 2.6,5.827 2.02,5.139 2.02,4.331 2.02,3.623 2.544,3.107 3.012,2.567 2.936,2.319 2.864,2.067 2.832,1.807 2.808,1.599 2.804,1.391 2.804,1.183 c 0,-0.46 0.22,-0.896 0.596,-1.168 0.024,-0.02 0.056,-0.02 0.08,0 0.284,0.336 0.532,0.98 0.532,1.432 0,0.572 -0.344,1.02 -0.72,1.456 0.084,0.272 0.156,0.552 0.224,0.828 0.016,0 0.036,-0.004 0.052,-0.004 0.62,0 1.024,0.512 1.024,1.044 0,0.304 -0.132,0.616 -0.428,0.84 -0.088,0.068 -0.188,0.112 -0.292,0.144 0.012,0.14 0.02,0.28 0.02,0.42 0,0.076 -0.004,0.156 -0.008,0.232 -0.028,0.476 -0.352,0.9 -0.808,0.912 L 3.08,7.147 C 3.452,7.139 3.692,6.779 3.716,6.383 3.72,6.311 3.724,6.235 3.724,6.163 3.724,6.039 3.72,5.919 3.708,5.795 3.592,5.815 3.476,5.827 3.352,5.827 Z M 3.724,1.115 C 3.724,0.895 3.708,0.799 3.644,0.599 3.248,0.791 2.996,1.195 2.996,1.635 2.996,1.931 3.068,2.167 3.14,2.411 3.46,2.023 3.724,1.619 3.724,1.115 Z"
     fill="currentColor"
     id="path118"
     style="stroke-width:0.004" />
  <a
     style="color:inherit"
     xlink:href="textedit:///Users/philippeperret/ICARE_EDITIONS/livres/musique/analyses/Schumann_Pays_etranges_Op15-1/Images/partition/essai-not-trimed.ly:30:7:8"
     id="a122"
     transform="translate(-4.4786,-3.8303)">
    <path
       transform="matrix(0.004,0,0,-0.004,15.9406,6.6093)"
       d="M 365,-156 H 10 c -6,0 -10,4 -10,10 V -10 C 0,-4 4,0 10,0 h 355 c 6,0 10,-4 10,-10 v -136 c 0,-6 -4,-10 -10,-10 z"
       fill="currentColor"
       id="path120" />
  </a>
  <rect
     x="1.152"
     y="1.7289999"
     width="0.16"
     height="13.1"
     ry="0.050000001"
     fill="currentColor"
     id="rect124" />
  <path
     d="m 0.792,10.271 c 0,1.044 -0.408,2.064 -0.408,3.06 0,0.54 0.12,1.044 0.516,1.44 0.06,0.06 -0.036,0.156 -0.096,0.096 -0.528,-0.54 -0.708,-1.248 -0.708,-2.004 0,-1.068 0.432,-2.112 0.432,-3.12 0,-0.54 -0.132,-1.044 -0.516,-1.44 C 0,8.291 0,8.291 0,8.279 0,8.267 0,8.267 0.012,8.255 c 0.384,-0.396 0.516,-0.9 0.516,-1.44 0,-1.008 -0.432,-2.052 -0.432,-3.12 0,-0.756 0.18,-1.464 0.708,-2.004 0.06,-0.06 0.156,0.036 0.096,0.096 -0.396,0.396 -0.516,0.9 -0.516,1.44 0,0.996 0.408,2.016 0.408,3.06 0,0.744 -0.18,1.452 -0.696,1.992 0.516,0.54 0.696,1.248 0.696,1.992 z"
     fill="currentColor"
     id="path126"
     style="stroke-width:0.004" />
  <rect
     x="34.1073"
     y="9.7790003"
     width="0.13"
     height="3.3139"
     ry="0.039999999"
     fill="currentColor"
     id="rect128" />
  <a
     style="color:inherit"
     xlink:href="textedit:///Users/philippeperret/ICARE_EDITIONS/livres/musique/analyses/Schumann_Pays_etranges_Op15-1/Images/partition/essai-not-trimed.ly:30:12:13"
     id="a132"
     transform="translate(-4.4786,-3.8303)">
    <path
       transform="matrix(0.004,0,0,-0.004,37.4117,6.6093)"
       d="M 365,-156 H 10 c -6,0 -10,4 -10,10 V -10 C 0,-4 4,0 10,0 h 355 c 6,0 10,-4 10,-10 v -136 c 0,-6 -4,-10 -10,-10 z"
       fill="currentColor"
       id="path130" />
  </a>
  <a
     style="color:inherit"
     xlink:href="textedit:///Users/philippeperret/ICARE_EDITIONS/livres/musique/analyses/Schumann_Pays_etranges_Op15-1/Images/partition/essai-not-trimed.ly:40:74:75"
     id="a136"
     transform="translate(-4.4786,-3.8303)">
    <path
       transform="matrix(0.004,0,0,-0.004,37.4117,17.1093)"
       d="m 218,136 c 55,0 108,-28 108,-89 0,-71 -55,-121 -102,-149 -35,-21 -75,-34 -116,-34 -55,0 -108,28 -108,89 0,71 55,121 102,149 35,21 75,34 116,34 z"
       fill="currentColor"
       id="path134" />
  </a>
</svg>
