<?xml version="1.0" encoding="UTF-8" standalone="no"?><!DOCTYPE svg PUBLIC "-//W3C//DTD SVG 1.1//EN" "http://www.w3.org/Graphics/SVG/1.1/DTD/svg11.dtd"><svg width="100%" height="100%" viewBox="0 0 247 96" version="1.1" xmlns="http://www.w3.org/2000/svg" xmlns:xlink="http://www.w3.org/1999/xlink" xml:space="preserve" xmlns:serif="http://www.serif.com/" style="fill-rule:evenodd;clip-rule:evenodd;stroke-linecap:round;stroke-linejoin:round;"><path d="M1.038,94.479l244.46,0" style="fill:none;fill-rule:nonzero;stroke:#000;stroke-width:2.08px;"/><path d="M1.038,73.724l244.46,-0" style="fill:none;fill-rule:nonzero;stroke:#000;stroke-width:2.08px;"/><path d="M1.038,52.968l244.46,0" style="fill:none;fill-rule:nonzero;stroke:#000;stroke-width:2.08px;"/><path d="M1.038,32.213l244.46,-0" style="fill:none;fill-rule:nonzero;stroke:#000;stroke-width:2.08px;"/><path d="M1.038,11.457l244.46,0" style="fill:none;fill-rule:nonzero;stroke:#000;stroke-width:2.08px;"/><path d="M62.847,63.346c-0,-2.325 1.909,-4.234 4.234,-4.234c2.324,-0 4.234,1.909 4.234,4.234c-0,2.324 -1.91,4.234 -4.234,4.234c-2.325,-0 -4.234,-1.91 -4.234,-4.234Zm-0,-20.756c-0,-2.324 1.909,-4.234 4.234,-4.234c2.324,0 4.234,1.91 4.234,4.234c-0,2.325 -1.91,4.234 -4.234,4.234c-2.325,0 -4.234,-1.909 -4.234,-4.234Zm-26.983,-11.457c14.28,0 24.326,7.306 24.326,20.839c-0,21.835 -21.835,34.371 -42.839,43.254c-0.25,0.249 -0.499,0.332 -0.748,0.332c-0.581,0 -1.079,-0.498 -1.079,-1.079c0,-0.249 0.083,-0.498 0.332,-0.747c16.771,-9.797 34.205,-22.001 34.205,-40.93c0,-9.963 -5.23,-19.51 -14.197,-19.51c-6.143,-0 -10.709,4.483 -12.785,10.461c0.913,-0.416 1.827,-0.665 2.823,-0.665c4.566,0 8.302,3.736 8.302,8.303c0,4.815 -3.653,8.8 -8.302,8.8c-4.981,-0 -9.299,-3.902 -9.299,-8.8c0,-11.042 8.469,-20.258 19.261,-20.258Z" style="fill-rule:nonzero;"/><path d="M138.231,2.159c-4.152,-0 -5.729,3.57 -5.729,7.306c0,6.392 4.732,11.29 11.125,11.29c4.151,0 5.729,-3.569 5.729,-7.305c-0,-6.393 -4.733,-11.291 -11.125,-11.291Zm23.246,9.298c-0,3.57 -2.906,6.31 -6.061,8.053c-4.4,2.491 -9.381,3.404 -14.446,3.404c-5.064,0 -10.128,-0.913 -14.529,-3.404c-3.154,-1.743 -6.06,-4.483 -6.06,-8.053c-0,-3.57 2.906,-6.31 6.06,-8.053c4.401,-2.491 9.465,-3.404 14.529,-3.404c5.065,-0 10.046,0.913 14.446,3.404c3.155,1.743 6.061,4.483 6.061,8.053Z" style="fill-rule:nonzero;"/></svg>