<?xml version="1.0" encoding="UTF-8" standalone="no"?><!DOCTYPE svg PUBLIC "-//W3C//DTD SVG 1.1//EN" "http://www.w3.org/Graphics/SVG/1.1/DTD/svg11.dtd"><svg width="100%" height="100%" viewBox="0 0 247 105" version="1.1" xmlns="http://www.w3.org/2000/svg" xmlns:xlink="http://www.w3.org/1999/xlink" xml:space="preserve" xmlns:serif="http://www.serif.com/" style="fill-rule:evenodd;clip-rule:evenodd;stroke-linecap:round;stroke-linejoin:round;"><path d="M1.038,103.777l244.46,0" style="fill:none;fill-rule:nonzero;stroke:#000;stroke-width:2.08px;"/><path d="M1.038,83.022l244.46,-0" style="fill:none;fill-rule:nonzero;stroke:#000;stroke-width:2.08px;"/><path d="M1.038,62.266l244.46,0" style="fill:none;fill-rule:nonzero;stroke:#000;stroke-width:2.08px;"/><path d="M1.038,41.511l244.46,-0" style="fill:none;fill-rule:nonzero;stroke:#000;stroke-width:2.08px;"/><path d="M1.038,20.755l244.46,0" style="fill:none;fill-rule:nonzero;stroke:#000;stroke-width:2.08px;"/><path d="M43.004,41.511c0,2.74 0.582,6.061 3.736,6.061c2.408,-0 4.733,-2.574 7.306,-2.574c10.212,-0 19.012,7.389 19.012,17.268c0,14.031 -7.721,20.756 -22.001,20.756c-6.89,-0 -12.619,-5.064 -12.619,-11.789c0,-3.487 2.823,-6.393 6.31,-6.393c3.487,0 6.309,2.906 6.309,6.393c0,3.238 -4.068,3.072 -4.068,6.31c0,1.909 1.993,3.154 4.068,3.154c9.631,0 11.624,-7.472 11.624,-18.431c-0,-8.8 -0.997,-14.943 -8.635,-14.943c-5.977,-0 -9.879,5.894 -9.879,12.37c-0,0.747 -0.581,1.162 -1.163,1.162c-0.581,0 -1.079,-0.415 -1.079,-1.162c0,-6.31 -2.574,-12.204 -6.974,-16.605l0,39.104c0,0.498 -0.332,0.83 -0.83,0.83l-1.743,-0c-0.499,-0 -0.831,-0.332 -0.831,-0.83l0,-81.362c0,-0.498 0.332,-0.83 0.831,-0.83l1.743,-0c0.498,-0 0.83,0.332 0.83,0.83l0,39.104c4.4,-4.401 6.974,-10.295 6.974,-16.605c0,-0.747 0.498,-1.162 1.079,-1.162c0.582,-0 1.163,0.415 1.163,1.162c-0,6.476 3.902,12.37 9.879,12.37c7.638,0 8.635,-6.143 8.635,-14.944c-0,-10.958 -1.993,-18.43 -11.624,-18.43c-2.075,-0 -4.068,1.245 -4.068,3.154c0,3.238 4.068,3.072 4.068,6.31c0,3.487 -2.822,6.393 -6.309,6.393c-3.487,-0 -6.31,-2.906 -6.31,-6.393c0,-6.725 5.729,-11.789 12.619,-11.789c14.28,-0 22.001,6.725 22.001,20.755c0,9.88 -8.8,17.269 -19.012,17.269c-2.573,0 -4.898,-2.574 -7.306,-2.574c-3.154,0 -3.736,3.321 -3.736,6.061Zm-15.691,41.511l-9.879,-0c-0.499,-0 -0.831,-0.332 -0.831,-0.83l0,-81.362c0,-0.498 0.332,-0.83 0.831,-0.83l9.879,-0c0.498,-0 0.83,0.332 0.83,0.83l0,81.362c0,0.498 -0.332,0.83 -0.83,0.83Z" style="fill-rule:nonzero;"/><path d="M138.231,32.213c-4.152,-0 -5.729,3.569 -5.729,7.305c0,6.393 4.732,11.291 11.125,11.291c4.151,0 5.729,-3.569 5.729,-7.305c-0,-6.393 -4.733,-11.291 -11.125,-11.291Zm23.246,9.298c-0,3.57 -2.906,6.31 -6.061,8.053c-4.4,2.491 -9.381,3.404 -14.446,3.404c-5.064,0 -10.128,-0.913 -14.529,-3.404c-3.154,-1.743 -6.06,-4.483 -6.06,-8.053c-0,-3.57 2.906,-6.31 6.06,-8.053c4.401,-2.491 9.465,-3.404 14.529,-3.404c5.065,-0 10.046,0.913 14.446,3.404c3.155,1.743 6.061,4.483 6.061,8.053Z" style="fill-rule:nonzero;"/></svg>