<?xml version="1.0" encoding="UTF-8" standalone="no"?>
<!DOCTYPE svg PUBLIC "-//W3C//DTD SVG 1.1//EN" "http://www.w3.org/Graphics/SVG/1.1/DTD/svg11.dtd">
<svg width="100%" height="100%" viewBox="0 0 105 37" version="1.1" xmlns="http://www.w3.org/2000/svg" xmlns:xlink="http://www.w3.org/1999/xlink" xml:space="preserve" xmlns:serif="http://www.serif.com/" style="fill-rule:evenodd;clip-rule:evenodd;stroke-linecap:round;stroke-linejoin:round;">
    <g transform="matrix(1,0,0,1,-113.386,-61.5995)">
        <g transform="matrix(1,0,0,1,113.386,90.3865)">
            <path d="M0.249,0L104.196,0" style="fill:none;fill-rule:nonzero;stroke:black;stroke-width:0.5px;"/>
        </g>
        <g transform="matrix(1,0,0,1,113.386,85.4052)">
            <path d="M0.249,0L104.196,0" style="fill:none;fill-rule:nonzero;stroke:black;stroke-width:0.5px;"/>
        </g>
        <g transform="matrix(1,0,0,1,113.386,80.4239)">
            <path d="M0.249,0L104.196,0" style="fill:none;fill-rule:nonzero;stroke:black;stroke-width:0.5px;"/>
        </g>
        <g transform="matrix(1,0,0,1,113.386,75.4426)">
            <path d="M0.249,0L104.196,0" style="fill:none;fill-rule:nonzero;stroke:black;stroke-width:0.5px;"/>
        </g>
        <g transform="matrix(1,0,0,1,113.386,70.4613)">
            <path d="M0.249,0L104.196,0" style="fill:none;fill-rule:nonzero;stroke:black;stroke-width:0.5px;"/>
        </g>
        <g transform="matrix(0.004,0,0,-0.004,193.401,90.3865)">
            <path d="M1085.93,677.459C1359.9,677.459 1623.91,537.983 1623.91,234.122C1623.91,-119.552 1349.94,-368.618 1115.82,-508.095C941.47,-612.702 742.217,-677.459 537.983,-677.459C264.01,-677.459 0,-537.983 0,-234.122C0,119.552 273.973,368.618 508.095,508.095C682.441,612.702 881.694,677.459 1085.93,677.459Z" style="fill-rule:nonzero;"/>
        </g>
        <g transform="matrix(1,0,0,1,136.499,80.4239)">
            <path d="M1.826,4.453C3.731,8.009 8.236,9.465 11.861,7.696C8.42,8.896 3.915,7.44 1.826,4.453Z" style="fill-rule:nonzero;stroke:black;stroke-width:0.4px;"/>
        </g>
        <g transform="matrix(1,0,0,1,199.574,80.4239)">
            <rect x="-0.324" y="-7.472" width="0.648" height="16.508"/>
        </g>
        <g transform="matrix(0.004,0,0,-0.004,145.766,82.9146)">
            <path d="M1085.93,677.459C1359.9,677.459 1623.91,537.983 1623.91,234.122C1623.91,-119.552 1349.94,-368.618 1115.82,-508.095C941.47,-612.702 742.217,-677.459 537.983,-677.459C264.01,-677.459 0,-537.983 0,-234.122C0,119.552 273.973,368.618 508.095,508.095C682.441,612.702 881.694,677.459 1085.93,677.459Z" style="fill-rule:nonzero;"/>
        </g>
        <g transform="matrix(1,0,0,1,151.939,80.4239)">
            <rect x="-0.324" y="-13.961" width="0.648" height="15.525"/>
        </g>
        <g transform="matrix(0.004,0,0,-0.004,164.218,85.4052)">
            <path d="M1085.93,677.459C1359.9,677.459 1623.91,537.983 1623.91,234.122C1623.91,-119.552 1349.94,-368.618 1115.82,-508.095C941.47,-612.702 742.217,-677.459 537.983,-677.459C264.01,-677.459 0,-537.983 0,-234.122C0,119.552 273.973,368.618 508.095,508.095C682.441,612.702 881.694,677.459 1085.93,677.459Z" style="fill-rule:nonzero;"/>
        </g>
        <g transform="matrix(1,0,0,1,170.391,80.4239)">
            <rect x="-0.324" y="-11.882" width="0.648" height="15.936"/>
        </g>
        <g transform="matrix(0.004,0,0,-0.004,156.995,85.4052)">
            <path d="M1075.96,-1554.17C1075.96,-1603.99 1036.12,-1648.82 986.302,-1648.82C936.488,-1648.82 891.656,-1603.99 891.656,-1554.17L891.656,-831.88L478.207,-986.301L478.207,-1773.35C478.207,-1823.16 433.375,-1868 383.562,-1868C333.749,-1868 293.898,-1823.16 293.898,-1773.35L293.898,-1051.06L134.496,-1110.83C124.533,-1115.82 109.589,-1115.82 99.627,-1115.82C44.832,-1115.82 0,-1070.98 0,-1016.19L0,-717.31C0,-677.459 24.907,-637.609 64.757,-622.665L293.898,-542.964L293.898,254.047L134.496,199.253C124.533,194.271 109.589,194.271 99.627,194.271C44.832,194.271 0,239.103 0,293.898L0,592.777C0,632.628 24.907,667.497 64.757,682.441L293.898,767.123L293.898,1554.17C293.898,1603.99 333.749,1648.82 383.562,1648.82C433.375,1648.82 478.207,1603.99 478.207,1554.17L478.207,831.88L891.656,986.301L891.656,1773.35C891.656,1823.16 936.488,1868 986.302,1868C1036.12,1868 1075.96,1823.16 1075.96,1773.35L1075.96,1051.06L1235.37,1110.83C1245.33,1115.82 1260.27,1115.82 1270.24,1115.82C1325.03,1115.82 1369.86,1070.98 1369.86,1016.19L1369.86,717.31C1369.86,677.459 1344.96,637.609 1305.11,622.665L1075.96,542.964L1075.96,-254.047L1235.37,-199.253C1245.33,-194.271 1260.27,-194.271 1270.24,-194.271C1325.03,-194.271 1369.86,-239.103 1369.86,-293.898L1369.86,-592.777C1369.86,-632.628 1344.96,-667.497 1305.11,-682.441L1075.96,-767.123L1075.96,-1554.17ZM478.207,323.786L478.207,-473.225L891.656,-323.786L891.656,473.225L478.207,323.786Z" style="fill-rule:nonzero;"/>
        </g>
        <g transform="matrix(0.004,0,0,-0.004,180.927,87.8959)">
            <path d="M1085.93,677.459C1359.9,677.459 1623.91,537.983 1623.91,234.122C1623.91,-119.552 1349.94,-368.618 1115.82,-508.095C941.47,-612.702 742.217,-677.459 537.983,-677.459C264.01,-677.459 0,-537.983 0,-234.122C0,119.552 273.973,368.618 508.095,508.095C682.441,612.702 881.694,677.459 1085.93,677.459Z" style="fill-rule:nonzero;"/>
        </g>
        <g transform="matrix(1,0,0,1,187.099,80.4239)">
            <rect x="-0.324" y="-9.999" width="0.648" height="16.544"/>
        </g>
        <g transform="matrix(1,0,0,1,151.615,66.4264)">
            <path d="M35.609,3.039L35.609,5.031L0.2,0.996L0.2,-0.996L35.609,3.039Z" style="fill-rule:nonzero;stroke:black;stroke-width:0.4px;"/>
        </g>
        <g transform="matrix(1,0,0,1,170.067,72.5405)">
            <path d="M17.157,0.959L17.157,2.952L0.2,0.996L0.2,-0.996L17.157,0.959Z" style="fill-rule:nonzero;stroke:black;stroke-width:0.4px;"/>
        </g>
        <g transform="matrix(0.0028,0,0,-0.0028,136.499,80.4239)">
            <path d="M1036.12,692.403C1339.98,692.403 1618.93,528.02 1618.93,199.253C1618.93,-154.421 1359.9,-393.524 1125.78,-533.001C956.414,-632.628 772.105,-692.403 577.833,-692.403C273.973,-692.403 0,-528.02 0,-199.253C0,154.421 254.048,393.524 488.17,533.001C657.534,632.628 841.843,692.403 1036.12,692.403Z" style="fill-rule:nonzero;"/>
        </g>
        <g transform="matrix(0.004,0,0,-0.004,117.371,85.4052)">
            <path d="M1325.03,-3163.14L1295.14,-3163.14C757.161,-3163.14 323.786,-2724.78 323.786,-2181.82C323.786,-1892.9 587.796,-1668.74 881.694,-1668.74C1150.68,-1668.74 1354.92,-1902.86 1354.92,-2181.82C1354.92,-2440.85 1140.72,-2655.04 881.694,-2655.04C826.899,-2655.04 777.086,-2645.08 727.273,-2625.16C856.787,-2819.43 1066,-2948.94 1310.09,-2948.94L1330.01,-2948.94L1325.03,-3163.14ZM2296.39,-1011.21C2635.12,-891.656 2859.28,-537.983 2859.28,-194.271C2859.28,254.047 2530.51,697.385 1997.51,752.179C2117.06,174.346 2226.65,-398.506 2296.39,-1011.21ZM368.618,139.477C368.618,-533.001 1011.21,-1090.91 1683.69,-1090.91C1823.16,-1090.91 1957.66,-1080.95 2092.15,-1061.02C2022.42,-428.393 1907.85,159.402 1778.33,752.179C1384.81,712.329 1160.65,448.319 1160.65,159.402C1160.65,-59.776 1285.18,-293.898 1564.13,-453.3C1589.04,-478.207 1599,-503.113 1599,-528.02C1599,-582.814 1549.19,-637.609 1489.41,-637.609C1474.47,-637.609 1459.53,-632.628 1444.58,-627.646C1046.08,-413.45 861.769,-54.795 861.769,293.898C861.769,732.254 1150.68,1160.65 1658.78,1275.22C1589.04,1564.13 1514.32,1858.03 1429.64,2146.95C896.638,1544.21 368.618,936.488 368.618,139.477ZM1668.74,-1305.11C732.254,-1305.11 9.963,-448.319 9.963,557.908C9.963,1439.6 662.516,2082.19 1245.33,2754.67C1150.68,3063.51 1061.02,3377.34 1021.17,3701.12C991.283,3960.15 986.302,4219.18 986.302,4478.21C986.302,5051.06 1260.27,5594.02 1728.52,5932.75C1758.41,5957.66 1798.26,5957.66 1828.14,5932.75C2181.82,5514.32 2490.66,4712.33 2490.66,4149.44C2490.66,3437.11 2062.27,2879.2 1594.02,2336.24C1698.63,1997.51 1788.29,1648.82 1872.98,1305.11C1892.9,1305.11 1917.81,1310.09 1937.73,1310.09C2709.84,1310.09 3212.95,672.478 3212.95,9.963C3212.95,-368.618 3048.57,-757.161 2679.95,-1036.11C2570.36,-1120.8 2445.83,-1175.59 2316.31,-1215.44C2331.26,-1389.79 2341.22,-1564.13 2341.22,-1738.48C2341.22,-1833.13 2336.24,-1932.75 2331.26,-2027.4C2296.39,-2620.17 1892.9,-3148.19 1325.03,-3163.14L1330.01,-2948.94C1793.28,-2938.98 2092.15,-2490.66 2122.04,-1997.51C2127.02,-1907.85 2132.01,-1813.2 2132.01,-1723.54C2132.01,-1569.12 2127.02,-1419.68 2112.08,-1265.26C1967.62,-1290.16 1823.16,-1305.11 1668.74,-1305.11ZM2132.01,4562.89C2132.01,4836.86 2112.08,4956.41 2032.38,5205.48C1539.23,4966.38 1225.4,4463.26 1225.4,3915.32C1225.4,3546.7 1315.07,3252.8 1404.73,2948.94C1803.24,3432.13 2132.01,3935.24 2132.01,4562.89Z" style="fill-rule:nonzero;"/>
        </g>
        <g transform="matrix(1,0,0,1,140.748,80.4239)">
            <rect x="-0.324" y="-13.45" width="0.648" height="12.88"/>
        </g>
        <g transform="matrix(0.0028,0,0,-0.0028,141.071,67.1736)">
            <path d="M0,0C0,-976.339 1031.13,-1663.76 1031.13,-2640.1C1031.13,-2993.77 956.414,-3337.48 826.899,-3666.25C801.993,-3716.06 757.161,-3731.01 712.329,-3731.01C642.59,-3731.01 572.852,-3681.2 572.852,-3601.49C572.852,-3591.53 577.833,-3586.55 577.833,-3576.59C707.348,-3282.69 787.049,-2963.89 787.049,-2640.1C787.049,-2136.99 338.73,-1618.93 0,-1245.33L-104.607,-1245.33L-104.607,0L0,0Z" style="fill-rule:nonzero;"/>
        </g>
        <g transform="matrix(0.004,0,0,-0.004,173.704,87.8959)">
            <path d="M1075.96,-1554.17C1075.96,-1603.99 1036.12,-1648.82 986.302,-1648.82C936.488,-1648.82 891.656,-1603.99 891.656,-1554.17L891.656,-831.88L478.207,-986.301L478.207,-1773.35C478.207,-1823.16 433.375,-1868 383.562,-1868C333.749,-1868 293.898,-1823.16 293.898,-1773.35L293.898,-1051.06L134.496,-1110.83C124.533,-1115.82 109.589,-1115.82 99.627,-1115.82C44.832,-1115.82 0,-1070.98 0,-1016.19L0,-717.31C0,-677.459 24.907,-637.609 64.757,-622.665L293.898,-542.964L293.898,254.047L134.496,199.253C124.533,194.271 109.589,194.271 99.627,194.271C44.832,194.271 0,239.103 0,293.898L0,592.777C0,632.628 24.907,667.497 64.757,682.441L293.898,767.123L293.898,1554.17C293.898,1603.99 333.749,1648.82 383.562,1648.82C433.375,1648.82 478.207,1603.99 478.207,1554.17L478.207,831.88L891.656,986.301L891.656,1773.35C891.656,1823.16 936.488,1868 986.302,1868C1036.12,1868 1075.96,1823.16 1075.96,1773.35L1075.96,1051.06L1235.37,1110.83C1245.33,1115.82 1260.27,1115.82 1270.24,1115.82C1325.03,1115.82 1369.86,1070.98 1369.86,1016.19L1369.86,717.31C1369.86,677.459 1344.96,637.609 1305.11,622.665L1075.96,542.964L1075.96,-254.047L1235.37,-199.253C1245.33,-194.271 1260.27,-194.271 1270.24,-194.271C1325.03,-194.271 1369.86,-239.103 1369.86,-293.898L1369.86,-592.777C1369.86,-632.628 1344.96,-667.497 1305.11,-682.441L1075.96,-767.123L1075.96,-1554.17ZM478.207,323.786L478.207,-473.225L891.656,-323.786L891.656,473.225L478.207,323.786Z" style="fill-rule:nonzero;"/>
        </g>
    </g>
</svg>
