<?xml version="1.0" encoding="UTF-8" standalone="no"?>
<!DOCTYPE svg PUBLIC "-//W3C//DTD SVG 1.1//EN" "http://www.w3.org/Graphics/SVG/1.1/DTD/svg11.dtd">
<svg width="100%" height="100%" viewBox="0 0 58 37" version="1.1" xmlns="http://www.w3.org/2000/svg" xmlns:xlink="http://www.w3.org/1999/xlink" xml:space="preserve" xmlns:serif="http://www.serif.com/" style="fill-rule:evenodd;clip-rule:evenodd;stroke-linecap:round;stroke-linejoin:round;">
    <g transform="matrix(1,0,0,1,-113.386,-61.5995)">
        <g transform="matrix(1,0,0,1,113.386,90.3865)">
            <path d="M0.249,0L57.639,0" style="fill:none;fill-rule:nonzero;stroke:black;stroke-width:0.5px;"/>
        </g>
        <g transform="matrix(1,0,0,1,113.386,85.4052)">
            <path d="M0.249,0L57.639,0" style="fill:none;fill-rule:nonzero;stroke:black;stroke-width:0.5px;"/>
        </g>
        <g transform="matrix(1,0,0,1,113.386,80.4239)">
            <path d="M0.249,0L57.639,0" style="fill:none;fill-rule:nonzero;stroke:black;stroke-width:0.5px;"/>
        </g>
        <g transform="matrix(1,0,0,1,113.386,75.4426)">
            <path d="M0.249,0L57.639,0" style="fill:none;fill-rule:nonzero;stroke:black;stroke-width:0.5px;"/>
        </g>
        <g transform="matrix(1,0,0,1,113.386,70.4613)">
            <path d="M0.249,0L57.639,0" style="fill:none;fill-rule:nonzero;stroke:black;stroke-width:0.5px;"/>
        </g>
        <g transform="matrix(0.004,0,0,-0.004,156.318,82.9146)">
            <path d="M1085.93,677.459C1359.9,677.459 1623.91,537.983 1623.91,234.122C1623.91,-119.552 1349.94,-368.618 1115.82,-508.095C941.47,-612.702 742.217,-677.459 537.983,-677.459C264.01,-677.459 0,-537.983 0,-234.122C0,119.552 273.973,368.618 508.095,508.095C682.441,612.702 881.694,677.459 1085.93,677.459Z" style="fill-rule:nonzero;"/>
        </g>
        <g transform="matrix(1,0,0,1,162.492,80.4239)">
            <rect x="-0.324" y="-14.944" width="0.648" height="16.508"/>
        </g>
        <g transform="matrix(0.0028,0,0,-0.0028,149.255,85.4052)">
            <path d="M1036.12,692.403C1339.98,692.403 1618.93,528.02 1618.93,199.253C1618.93,-154.421 1359.9,-393.524 1125.78,-533.001C956.414,-632.628 772.105,-692.403 577.833,-692.403C273.973,-692.403 0,-528.02 0,-199.253C0,154.421 254.048,393.524 488.17,533.001C657.534,632.628 841.843,692.403 1036.12,692.403Z" style="fill-rule:nonzero;"/>
        </g>
        <g transform="matrix(1,0,0,1,153.504,80.4239)">
            <rect x="-0.324" y="-9.333" width="0.648" height="13.744"/>
        </g>
        <g transform="matrix(0.0025,0,0,-0.0025,144.06,85.4052)">
            <path d="M986.302,-1628.89C921.544,-1628.89 866.75,-1574.1 866.75,-1509.34L866.75,-866.75L503.114,-1011.21L503.114,-1748.44C503.114,-1813.2 448.319,-1868 383.562,-1868C318.805,-1868 268.992,-1813.2 268.992,-1748.44L268.992,-1105.85L219.178,-1125.78C199.253,-1135.74 179.328,-1135.74 159.402,-1135.74C74.72,-1135.74 0,-1066 0,-976.339L0,-747.198C0,-682.441 39.851,-627.646 99.627,-602.74L268.992,-533.001L268.992,204.234L219.178,184.309C199.253,174.346 179.328,169.365 159.402,169.365C74.72,169.365 0,239.103 0,328.767L0,557.908C0,622.665 39.851,682.441 99.627,707.347L268.992,772.105L268.992,1509.34C268.992,1574.1 318.805,1628.89 383.562,1628.89C448.319,1628.89 503.114,1574.1 503.114,1509.34L503.114,866.75L866.75,1011.21L866.75,1748.44C866.75,1813.2 921.544,1868 986.302,1868C1051.06,1868 1100.87,1813.2 1100.87,1748.44L1100.87,1105.85L1150.68,1125.78C1170.61,1135.74 1190.54,1135.74 1210.46,1135.74C1295.14,1135.74 1369.86,1066 1369.86,976.339L1369.86,747.198C1369.86,682.441 1330.01,627.646 1270.24,602.74L1100.87,533.001L1100.87,-204.234L1150.68,-184.309C1170.61,-174.346 1190.54,-169.365 1210.46,-169.365C1295.14,-169.365 1369.86,-239.103 1369.86,-328.767L1369.86,-557.908C1369.86,-622.665 1330.01,-682.441 1270.24,-707.347L1100.87,-772.105L1100.87,-1509.34C1100.87,-1574.1 1051.06,-1628.89 986.302,-1628.89ZM503.114,293.898L503.114,-443.337L866.75,-293.898L866.75,443.337L503.114,293.898Z" style="fill-rule:nonzero;"/>
        </g>
        <g transform="matrix(1,0,0,1,140.424,67.9706)">
            <path d="M13.205,2.441L13.205,3.955L0.2,0.757L0.2,-0.757L13.205,2.441Z" style="fill-rule:nonzero;stroke:black;stroke-width:0.4px;"/>
        </g>
        <g transform="matrix(1,0,0,1,140.424,71.1985)">
            <path d="M13.205,2.441L13.205,3.955L0.2,0.757L0.2,-0.757L13.205,2.441Z" style="fill-rule:nonzero;stroke:black;stroke-width:0.4px;"/>
        </g>
        <g transform="matrix(0.0028,0,0,-0.0028,136.499,80.4239)">
            <path d="M1036.12,692.403C1339.98,692.403 1618.93,528.02 1618.93,199.253C1618.93,-154.421 1359.9,-393.524 1125.78,-533.001C956.414,-632.628 772.105,-692.403 577.833,-692.403C273.973,-692.403 0,-528.02 0,-199.253C0,154.421 254.048,393.524 488.17,533.001C657.534,632.628 841.843,692.403 1036.12,692.403Z" style="fill-rule:nonzero;"/>
        </g>
        <g transform="matrix(0.004,0,0,-0.004,117.371,85.4052)">
            <path d="M1325.03,-3163.14L1295.14,-3163.14C757.161,-3163.14 323.786,-2724.78 323.786,-2181.82C323.786,-1892.9 587.796,-1668.74 881.694,-1668.74C1150.68,-1668.74 1354.92,-1902.86 1354.92,-2181.82C1354.92,-2440.85 1140.72,-2655.04 881.694,-2655.04C826.899,-2655.04 777.086,-2645.08 727.273,-2625.16C856.787,-2819.43 1066,-2948.94 1310.09,-2948.94L1330.01,-2948.94L1325.03,-3163.14ZM2296.39,-1011.21C2635.12,-891.656 2859.28,-537.983 2859.28,-194.271C2859.28,254.047 2530.51,697.385 1997.51,752.179C2117.06,174.346 2226.65,-398.506 2296.39,-1011.21ZM368.618,139.477C368.618,-533.001 1011.21,-1090.91 1683.69,-1090.91C1823.16,-1090.91 1957.66,-1080.95 2092.15,-1061.02C2022.42,-428.393 1907.85,159.402 1778.33,752.179C1384.81,712.329 1160.65,448.319 1160.65,159.402C1160.65,-59.776 1285.18,-293.898 1564.13,-453.3C1589.04,-478.207 1599,-503.113 1599,-528.02C1599,-582.814 1549.19,-637.609 1489.41,-637.609C1474.47,-637.609 1459.53,-632.628 1444.58,-627.646C1046.08,-413.45 861.769,-54.795 861.769,293.898C861.769,732.254 1150.68,1160.65 1658.78,1275.22C1589.04,1564.13 1514.32,1858.03 1429.64,2146.95C896.638,1544.21 368.618,936.488 368.618,139.477ZM1668.74,-1305.11C732.254,-1305.11 9.963,-448.319 9.963,557.908C9.963,1439.6 662.516,2082.19 1245.33,2754.67C1150.68,3063.51 1061.02,3377.34 1021.17,3701.12C991.283,3960.15 986.302,4219.18 986.302,4478.21C986.302,5051.06 1260.27,5594.02 1728.52,5932.75C1758.41,5957.66 1798.26,5957.66 1828.14,5932.75C2181.82,5514.32 2490.66,4712.33 2490.66,4149.44C2490.66,3437.11 2062.27,2879.2 1594.02,2336.24C1698.63,1997.51 1788.29,1648.82 1872.98,1305.11C1892.9,1305.11 1917.81,1310.09 1937.73,1310.09C2709.84,1310.09 3212.95,672.478 3212.95,9.963C3212.95,-368.618 3048.57,-757.161 2679.95,-1036.11C2570.36,-1120.8 2445.83,-1175.59 2316.31,-1215.44C2331.26,-1389.79 2341.22,-1564.13 2341.22,-1738.48C2341.22,-1833.13 2336.24,-1932.75 2331.26,-2027.4C2296.39,-2620.17 1892.9,-3148.19 1325.03,-3163.14L1330.01,-2948.94C1793.28,-2938.98 2092.15,-2490.66 2122.04,-1997.51C2127.02,-1907.85 2132.01,-1813.2 2132.01,-1723.54C2132.01,-1569.12 2127.02,-1419.68 2112.08,-1265.26C1967.62,-1290.16 1823.16,-1305.11 1668.74,-1305.11ZM2132.01,4562.89C2132.01,4836.86 2112.08,4956.41 2032.38,5205.48C1539.23,4966.38 1225.4,4463.26 1225.4,3915.32C1225.4,3546.7 1315.07,3252.8 1404.73,2948.94C1803.24,3432.13 2132.01,3935.24 2132.01,4562.89Z" style="fill-rule:nonzero;"/>
        </g>
        <g transform="matrix(1,0,0,1,140.748,80.4239)">
            <rect x="-0.324" y="-12.376" width="0.648" height="11.806"/>
        </g>
    </g>
</svg>
