<?xml version="1.0" encoding="UTF-8" standalone="no"?>
<svg
   version="1.2"
   width="20.421572mm"
   height="12.861671mm"
   viewBox="0 0 11.620999 7.3190007"
   id="svg40"
   xmlns:xlink="http://www.w3.org/1999/xlink"
   xmlns="http://www.w3.org/2000/svg"
   xmlns:svg="http://www.w3.org/2000/svg">
  <defs
     id="defs44" />
  <style
     text="style/css"
     id="style2"><![CDATA[
tspan { white-space: pre; }
]]></style>
  <!-- Page: 1/1 -->
  <line
     stroke-linejoin="round"
     stroke-linecap="round"
     stroke-width="0.1"
     stroke="currentColor"
     x1="0.050000001"
     y1="5.7789998"
     x2="11.571"
     y2="5.7789998"
     id="line4" />
  <line
     stroke-linejoin="round"
     stroke-linecap="round"
     stroke-width="0.1"
     stroke="currentColor"
     x1="0.050000001"
     y1="4.7789998"
     x2="11.571"
     y2="4.7789998"
     id="line6" />
  <line
     stroke-linejoin="round"
     stroke-linecap="round"
     stroke-width="0.1"
     stroke="currentColor"
     x1="0.050000001"
     y1="3.779"
     x2="11.571"
     y2="3.779"
     id="line8" />
  <line
     stroke-linejoin="round"
     stroke-linecap="round"
     stroke-width="0.1"
     stroke="currentColor"
     x1="0.050000001"
     y1="2.779"
     x2="11.571"
     y2="2.779"
     id="line10" />
  <line
     stroke-linejoin="round"
     stroke-linecap="round"
     stroke-width="0.1"
     stroke="currentColor"
     x1="0.050000001"
     y1="1.779"
     x2="11.571"
     y2="1.779"
     id="line12" />
  <a
     style="color:inherit"
     xlink:href="textedit:///Users/philippeperret/ICARE_EDITIONS/livres/musique/xDev/scripts/music-score/Manuel/images/exemples/grace_slashed_multiple-not-trimed.ly:28:29:37"
     id="a16"
     transform="translate(-22.7622,-12.3661)">
    <path
       transform="matrix(0.004,0,0,-0.004,31.3809,16.6451)"
       d="m 218,136 c 55,0 108,-28 108,-89 0,-71 -55,-121 -102,-149 -35,-21 -75,-34 -116,-34 -55,0 -108,28 -108,89 0,71 55,121 102,149 35,21 75,34 116,34 z"
       fill="currentColor"
       id="path14" />
  </a>
  <rect
     x="9.7930002"
     y="0.77899998"
     width="0.13"
     height="3.3139"
     ry="0.039999999"
     fill="currentColor"
     id="rect18" />
  <a
     style="color:inherit"
     xlink:href="textedit:///Users/philippeperret/ICARE_EDITIONS/livres/musique/xDev/scripts/music-score/Manuel/images/exemples/grace_slashed_multiple-not-trimed.ly:28:23:31"
     id="a22"
     transform="translate(-22.7622,-12.3661)">
    <path
       transform="matrix(0.0028,0,0,-0.0028,29.963,17.1451)"
       d="m 208,139 c 61,0 117,-33 117,-99 0,-71 -52,-119 -99,-147 -34,-20 -71,-32 -110,-32 -61,0 -116,33 -116,99 0,71 51,119 98,147 34,20 71,32 110,32 z"
       fill="currentColor"
       id="path20" />
  </a>
  <rect
     x="7.9886999"
     y="1.9055001"
     width="0.13"
     height="2.7591"
     ry="0.039999999"
     fill="currentColor"
     id="rect24" />
  <path
     d="m 6.6529,5.5965 c -0.0325,0 -0.06,-0.0275 -0.06,-0.06 V 5.214 L 6.4104,5.2865 v 0.37 c 0,0.0325 -0.0275,0.06 -0.06,0.06 -0.0325,0 -0.0575,-0.0275 -0.0575,-0.06 V 5.334 l -0.025,0.01 c -0.01,0.005 -0.02,0.005 -0.03,0.005 -0.0425,0 -0.08,-0.035 -0.08,-0.08 V 5.154 c 0,-0.0325 0.02,-0.06 0.05,-0.0725 l 0.085,-0.035 v -0.37 l -0.025,0.01 c -0.01,0.005 -0.02,0.0075 -0.03,0.0075 -0.0425,0 -0.08,-0.035 -0.08,-0.08 V 4.499 c 0,-0.0325 0.02,-0.0625 0.05,-0.075 l 0.085,-0.0325 v -0.37 c 0,-0.0325 0.025,-0.06 0.0575,-0.06 0.0325,0 0.06,0.0275 0.06,0.06 V 4.344 L 6.5929,4.2715 v -0.37 c 0,-0.0325 0.0275,-0.06 0.06,-0.06 0.0325,0 0.0575,0.0275 0.0575,0.06 V 4.224 l 0.025,-0.01 c 0.01,-0.005 0.02,-0.005 0.03,-0.005 0.0425,0 0.08,0.035 0.08,0.08 v 0.115 c 0,0.0325 -0.02,0.06 -0.05,0.0725 l -0.085,0.035 v 0.37 l 0.025,-0.01 c 0.01,-0.005 0.02,-0.0075 0.03,-0.0075 0.0425,0 0.08,0.035 0.08,0.08 v 0.115 c 0,0.0325 -0.02,0.0625 -0.05,0.075 l -0.085,0.0325 v 0.37 c 0,0.0325 -0.025,0.06 -0.0575,0.06 z M 6.4104,4.6315 v 0.37 l 0.1825,-0.075 v -0.37 z"
     fill="currentColor"
     id="path26"
     style="stroke-width:0.0025" />
  <polygon
     transform="translate(5.4279,1.279)"
     stroke-linejoin="round"
     stroke-linecap="round"
     stroke-width="0.08"
     fill="currentColor"
     stroke="currentColor"
     points="0.04,0.152 0.04,-0.152 2.6508,0.49 2.6508,0.794 "
     id="polygon28" />
  <polygon
     transform="translate(5.4279,1.927)"
     stroke-linejoin="round"
     stroke-linecap="round"
     stroke-width="0.08"
     fill="currentColor"
     stroke="currentColor"
     points="0.04,0.152 0.04,-0.152 2.6508,0.49 2.6508,0.794 "
     id="polygon30" />
  <a
     style="color:inherit"
     xlink:href="textedit:///Users/philippeperret/ICARE_EDITIONS/livres/musique/xDev/scripts/music-score/Manuel/images/exemples/grace_slashed_multiple-not-trimed.ly:28:18:26"
     id="a34"
     transform="translate(-22.7622,-12.3661)">
    <path
       transform="matrix(0.0028,0,0,-0.0028,27.4022,16.1451)"
       d="m 208,139 c 61,0 117,-33 117,-99 0,-71 -52,-119 -99,-147 -34,-20 -71,-32 -110,-32 -61,0 -116,33 -116,99 0,71 51,119 98,147 34,20 71,32 110,32 z"
       fill="currentColor"
       id="path32" />
  </a>
  <path
     d="M 1.864,7.319 H 1.84 c -0.432,0 -0.78,-0.352 -0.78,-0.788 0,-0.232 0.212,-0.412 0.448,-0.412 0.216,0 0.38,0.188 0.38,0.412 0,0.208 -0.172,0.38 -0.38,0.38 -0.044,0 -0.084,-0.008 -0.124,-0.024 0.104,0.156 0.272,0.26 0.468,0.26 H 1.868 Z M 2.644,5.591 C 2.916,5.495 3.096,5.211 3.096,4.935 3.096,4.575 2.832,4.219 2.404,4.175 2.5,4.639 2.588,5.099 2.644,5.591 Z M 1.096,4.667 c 0,0.54 0.516,0.988 1.056,0.988 0.112,0 0.22,-0.008 0.328,-0.024 C 2.424,5.123 2.332,4.651 2.228,4.175 1.912,4.207 1.732,4.419 1.732,4.651 c 0,0.176 0.1,0.364 0.324,0.492 0.02,0.02 0.028,0.04 0.028,0.06 0,0.044 -0.04,0.088 -0.088,0.088 C 1.984,5.291 1.972,5.287 1.96,5.283 1.64,5.111 1.492,4.823 1.492,4.543 1.492,4.191 1.724,3.847 2.132,3.755 2.076,3.523 2.016,3.287 1.948,3.055 1.52,3.539 1.096,4.027 1.096,4.667 Z M 2.14,5.827 C 1.388,5.827 0.808,5.139 0.808,4.331 0.808,3.623 1.332,3.107 1.8,2.567 1.724,2.319 1.652,2.067 1.62,1.807 1.596,1.599 1.592,1.391 1.592,1.183 c 0,-0.46 0.22,-0.896 0.596,-1.168 0.024,-0.02 0.056,-0.02 0.08,0 0.284,0.336 0.532,0.98 0.532,1.432 0,0.572 -0.344,1.02 -0.72,1.456 0.084,0.272 0.156,0.552 0.224,0.828 0.016,0 0.036,-0.004 0.052,-0.004 0.62,0 1.024,0.512 1.024,1.044 0,0.304 -0.132,0.616 -0.428,0.84 C 2.864,5.679 2.764,5.723 2.66,5.755 2.672,5.895 2.68,6.035 2.68,6.175 2.68,6.251 2.676,6.331 2.672,6.407 2.644,6.883 2.32,7.307 1.864,7.319 L 1.868,7.147 C 2.24,7.139 2.48,6.779 2.504,6.383 2.508,6.311 2.512,6.235 2.512,6.163 2.512,6.039 2.508,5.919 2.496,5.795 2.38,5.815 2.264,5.827 2.14,5.827 Z M 2.512,1.115 c 0,-0.22 -0.016,-0.316 -0.08,-0.516 -0.396,0.192 -0.648,0.596 -0.648,1.036 0,0.296 0.072,0.532 0.144,0.776 0.32,-0.388 0.584,-0.792 0.584,-1.296 z"
     fill="currentColor"
     id="path36"
     style="stroke-width:0.004" />
  <rect
     x="5.4278998"
     y="1.2945001"
     width="0.13"
     height="2.3701"
     ry="0.039999999"
     fill="currentColor"
     id="rect38" />
</svg>
