<?xml version="1.0" encoding="UTF-8" standalone="no"?>
<!DOCTYPE svg PUBLIC "-//W3C//DTD SVG 1.1//EN" "http://www.w3.org/Graphics/SVG/1.1/DTD/svg11.dtd">
<svg width="100%" height="100%" viewBox="0 0 422 96" version="1.1" xmlns="http://www.w3.org/2000/svg" xmlns:xlink="http://www.w3.org/1999/xlink" xml:space="preserve" xmlns:serif="http://www.serif.com/" style="fill-rule:evenodd;clip-rule:evenodd;stroke-linecap:round;stroke-linejoin:round;">
    <g transform="matrix(1,0,0,1,-33.6478,-24.8241)">
        <g transform="matrix(1,0,0,1,39.6852,64.1763)">
            <path d="M0.249,0L415.557,0" style="fill:none;fill-rule:nonzero;stroke:black;stroke-width:0.5px;"/>
        </g>
        <g transform="matrix(1,0,0,1,39.6852,59.195)">
            <path d="M0.249,0L415.557,0" style="fill:none;fill-rule:nonzero;stroke:black;stroke-width:0.5px;"/>
        </g>
        <g transform="matrix(1,0,0,1,39.6852,54.2137)">
            <path d="M0.249,0L415.557,0" style="fill:none;fill-rule:nonzero;stroke:black;stroke-width:0.5px;"/>
        </g>
        <g transform="matrix(1,0,0,1,39.6852,49.2324)">
            <path d="M0.249,0L415.557,0" style="fill:none;fill-rule:nonzero;stroke:black;stroke-width:0.5px;"/>
        </g>
        <g transform="matrix(1,0,0,1,39.6852,44.2511)">
            <path d="M0.249,0L415.557,0" style="fill:none;fill-rule:nonzero;stroke:black;stroke-width:0.5px;"/>
        </g>
        <g transform="matrix(1,0,0,1,184.473,99.0456)">
            <rect x="0" y="-10.211" width="0.946" height="20.174"/>
        </g>
        <g transform="matrix(1,0,0,1,269.917,99.0456)">
            <rect x="0" y="-10.211" width="0.946" height="20.174"/>
        </g>
        <g transform="matrix(1,0,0,1,269.917,24.8239)">
            <rect x="0" y="39.602" width="0.946" height="24.658"/>
        </g>
        <g transform="matrix(1,0,0,1,454.544,54.2137)">
            <rect x="0" y="-9.962" width="0.946" height="20.174"/>
        </g>
        <g transform="matrix(1,0,0,1,375.709,54.2137)">
            <rect x="0" y="-9.962" width="0.946" height="20.174"/>
        </g>
        <g transform="matrix(1,0,0,1,184.473,54.2137)">
            <rect x="0" y="-9.962" width="0.946" height="20.174"/>
        </g>
        <g transform="matrix(1,0,0,1,375.709,99.0456)">
            <rect x="0" y="-10.211" width="0.946" height="20.174"/>
        </g>
        <g transform="matrix(1,0,0,1,184.473,24.8239)">
            <rect x="0" y="39.602" width="0.946" height="24.658"/>
        </g>
        <g transform="matrix(1,0,0,1,454.544,99.0456)">
            <rect x="0" y="-10.211" width="0.946" height="20.174"/>
        </g>
        <g transform="matrix(1,0,0,1,39.6852,39.2697)">
            <rect x="299.457" y="-0.498" width="9.745" height="0.996"/>
        </g>
        <g transform="matrix(1,0,0,1,39.6852,39.2697)">
            <rect x="290.282" y="-0.498" width="6.858" height="0.996"/>
        </g>
        <g transform="matrix(1,0,0,1,39.6852,84.1016)">
            <rect x="271.245" y="-0.498" width="9.745" height="0.996"/>
        </g>
        <g transform="matrix(1,0,0,1,269.917,54.2137)">
            <rect x="0" y="-9.962" width="0.946" height="20.174"/>
        </g>
        <g transform="matrix(1,0,0,1,39.6852,109.008)">
            <path d="M0.249,0L415.557,0" style="fill:none;fill-rule:nonzero;stroke:black;stroke-width:0.5px;"/>
        </g>
        <g transform="matrix(1,0,0,1,39.6852,104.027)">
            <path d="M0.249,0L415.557,0" style="fill:none;fill-rule:nonzero;stroke:black;stroke-width:0.5px;"/>
        </g>
        <g transform="matrix(1,0,0,1,39.6852,99.0456)">
            <path d="M0.249,0L415.557,0" style="fill:none;fill-rule:nonzero;stroke:black;stroke-width:0.5px;"/>
        </g>
        <g transform="matrix(1,0,0,1,39.6852,94.0642)">
            <path d="M0.249,0L415.557,0" style="fill:none;fill-rule:nonzero;stroke:black;stroke-width:0.5px;"/>
        </g>
        <g transform="matrix(1,0,0,1,39.6852,89.0829)">
            <path d="M0.249,0L415.557,0" style="fill:none;fill-rule:nonzero;stroke:black;stroke-width:0.5px;"/>
        </g>
        <g transform="matrix(1,0,0,1,454.544,24.8239)">
            <rect x="0" y="39.602" width="0.946" height="24.658"/>
        </g>
        <g transform="matrix(1,0,0,1,375.709,24.8239)">
            <rect x="0" y="39.602" width="0.946" height="24.658"/>
        </g>
        <g transform="matrix(0.004,0,0,-0.004,124.894,99.0456)">
            <path d="M-114.57,-577.833C-114.57,-438.356 -59.776,-368.617 84.682,-368.617C249.066,-368.617 473.225,-433.375 677.459,-523.038L19.925,264.01C-14.944,308.842 -29.888,348.693 -29.888,388.543C-29.888,557.908 219.178,717.31 403.487,881.694C528.02,991.283 587.796,1140.72 587.796,1295.14C587.796,1414.69 547.945,1539.23 463.263,1638.85L288.917,1848.07C273.973,1863.01 268.991,1882.94 268.991,1897.88C268.991,1942.72 313.823,1972.6 353.674,1972.6C373.599,1972.6 393.524,1967.62 408.468,1947.7L1160.65,1051.06C1195.52,1006.23 1210.46,966.376 1210.46,926.526C1210.46,757.161 961.395,597.759 777.086,433.375C652.553,323.786 592.777,174.346 592.777,19.926C592.777,-99.626 627.646,-224.159 712.329,-323.786L1130.76,-816.936C1145.7,-831.88 1150.68,-851.805 1150.68,-866.749C1150.68,-911.581 1110.83,-946.45 1070.98,-946.45C1051.06,-946.45 1026.15,-936.488 1011.21,-916.562C921.544,-811.955 697.385,-727.272 528.02,-727.272C323.786,-727.272 264.01,-856.787 264.01,-1061.02C264.01,-1235.37 318.804,-1429.64 403.487,-1529.27C438.356,-1569.12 378.58,-1623.91 343.711,-1584.06C119.552,-1315.07 -114.57,-846.824 -114.57,-577.833Z" style="fill-rule:nonzero;"/>
        </g>
        <g transform="matrix(0.004,0,0,-0.004,124.894,51.723)">
            <path d="M1085.93,677.46C1359.9,677.46 1623.91,537.983 1623.91,234.122C1623.91,-119.551 1349.94,-368.617 1115.82,-508.094C941.469,-612.702 742.217,-677.459 537.982,-677.459C264.01,-677.459 0,-537.982 0,-234.122C0,119.552 273.973,368.618 508.095,508.095C682.441,612.702 881.693,677.46 1085.93,677.46Z" style="fill-rule:nonzero;"/>
        </g>
        <g transform="matrix(1,0,0,1,125.218,54.2137)">
            <rect x="-0.324" y="-1.563" width="0.648" height="12.512"/>
        </g>
        <g transform="matrix(1,0,0,1,150.167,54.2137)">
            <rect x="-0.324" y="3.418" width="0.648" height="10.541"/>
        </g>
        <g transform="matrix(0.004,0,0,-0.004,389.709,89.0829)">
            <path d="M1085.93,677.46C1359.9,677.46 1623.91,537.983 1623.91,234.122C1623.91,-119.551 1349.94,-368.617 1115.82,-508.094C941.469,-612.702 742.217,-677.459 537.982,-677.459C264.01,-677.459 0,-537.982 0,-234.122C0,119.552 273.973,368.618 508.095,508.095C682.441,612.702 881.693,677.46 1085.93,677.46Z" style="fill-rule:nonzero;"/>
        </g>
        <g transform="matrix(1,0,0,1,167.688,54.2137)">
            <rect x="-0.324" y="-7.472" width="0.648" height="16.508"/>
        </g>
        <g transform="matrix(0.004,0,0,-0.004,161.515,101.536)">
            <path d="M1085.93,677.46C1359.9,677.46 1623.91,537.983 1623.91,234.122C1623.91,-119.551 1349.94,-368.617 1115.82,-508.094C941.469,-612.702 742.217,-677.459 537.982,-677.459C264.01,-677.459 0,-537.982 0,-234.122C0,119.552 273.973,368.618 508.095,508.095C682.441,612.702 881.693,677.46 1085.93,677.46Z" style="fill-rule:nonzero;"/>
        </g>
        <g transform="matrix(0.004,0,0,-0.004,161.515,64.1763)">
            <path d="M1085.93,677.46C1359.9,677.46 1623.91,537.983 1623.91,234.122C1623.91,-119.551 1349.94,-368.617 1115.82,-508.094C941.469,-612.702 742.217,-677.459 537.982,-677.459C264.01,-677.459 0,-537.982 0,-234.122C0,119.552 273.973,368.618 508.095,508.095C682.441,612.702 881.693,677.46 1085.93,677.46Z" style="fill-rule:nonzero;"/>
        </g>
        <g transform="matrix(0.004,0,0,-0.004,149.843,56.7043)">
            <path d="M1085.93,677.46C1359.9,677.46 1623.91,537.983 1623.91,234.122C1623.91,-119.551 1349.94,-368.617 1115.82,-508.094C941.469,-612.702 742.217,-677.459 537.982,-677.459C264.01,-677.459 0,-537.982 0,-234.122C0,119.552 273.973,368.618 508.095,508.095C682.441,612.702 881.693,677.46 1085.93,677.46Z" style="fill-rule:nonzero;"/>
        </g>
        <g transform="matrix(1,0,0,1,137.692,54.2137)">
            <rect x="-0.324" y="0.927" width="0.648" height="11.526"/>
        </g>
        <g transform="matrix(0.004,0,0,-0.004,137.368,54.2137)">
            <path d="M1085.93,677.46C1359.9,677.46 1623.91,537.983 1623.91,234.122C1623.91,-119.551 1349.94,-368.617 1115.82,-508.094C941.469,-612.702 742.217,-677.459 537.982,-677.459C264.01,-677.459 0,-537.982 0,-234.122C0,119.552 273.973,368.618 508.095,508.095C682.441,612.702 881.693,677.46 1085.93,677.46Z" style="fill-rule:nonzero;"/>
        </g>
        <g transform="matrix(1,0,0,1,433.93,54.2137)">
            <rect x="-0.324" y="-1.563" width="0.648" height="16.508"/>
        </g>
        <g transform="matrix(0.004,0,0,-0.004,433.606,89.0829)">
            <path d="M1085.93,677.46C1359.9,677.46 1623.91,537.983 1623.91,234.122C1623.91,-119.551 1349.94,-368.617 1115.82,-508.094C941.469,-612.702 742.217,-677.459 537.982,-677.459C264.01,-677.459 0,-537.982 0,-234.122C0,119.552 273.973,368.618 508.095,508.095C682.441,612.702 881.693,677.46 1085.93,677.46Z" style="fill-rule:nonzero;"/>
        </g>
        <g transform="matrix(0.004,0,0,-0.004,433.606,51.723)">
            <path d="M1085.93,677.46C1359.9,677.46 1623.91,537.983 1623.91,234.122C1623.91,-119.551 1349.94,-368.617 1115.82,-508.094C941.469,-612.702 742.217,-677.459 537.982,-677.459C264.01,-677.459 0,-537.982 0,-234.122C0,119.552 273.973,368.618 508.095,508.095C682.441,612.702 881.693,677.46 1085.93,677.46Z" style="fill-rule:nonzero;"/>
        </g>
        <g transform="matrix(1,0,0,1,410.736,99.0456)">
            <rect x="-0.324" y="-1.563" width="0.648" height="16.508"/>
        </g>
        <g transform="matrix(0.004,0,0,-0.004,410.412,96.5549)">
            <path d="M1085.93,677.46C1359.9,677.46 1623.91,537.983 1623.91,234.122C1623.91,-119.551 1349.94,-368.617 1115.82,-508.094C941.469,-612.702 742.217,-677.459 537.982,-677.459C264.01,-677.459 0,-537.982 0,-234.122C0,119.552 273.973,368.618 508.095,508.095C682.441,612.702 881.693,677.46 1085.93,677.46Z" style="fill-rule:nonzero;"/>
        </g>
        <g transform="matrix(1,0,0,1,390.033,99.0456)">
            <rect x="-0.324" y="-9.035" width="0.648" height="16.508"/>
        </g>
        <g transform="matrix(1,0,0,1,390.033,54.2137)">
            <rect x="-0.324" y="-3.691" width="0.648" height="16.144"/>
        </g>
        <g transform="matrix(1,0,0,1,433.93,99.0456)">
            <rect x="-0.324" y="-9.035" width="0.648" height="16.508"/>
        </g>
        <g transform="matrix(1,0,0,1,249.214,54.2137)">
            <rect x="-0.324" y="-4.054" width="0.648" height="16.508"/>
        </g>
        <g transform="matrix(0.004,0,0,-0.004,248.89,96.5549)">
            <path d="M1085.93,677.46C1359.9,677.46 1623.91,537.983 1623.91,234.122C1623.91,-119.551 1349.94,-368.617 1115.82,-508.094C941.469,-612.702 742.217,-677.459 537.982,-677.459C264.01,-677.459 0,-537.982 0,-234.122C0,119.552 273.973,368.618 508.095,508.095C682.441,612.702 881.693,677.46 1085.93,677.46Z" style="fill-rule:nonzero;"/>
        </g>
        <g transform="matrix(0.004,0,0,-0.004,248.89,49.2324)">
            <path d="M1085.93,677.46C1359.9,677.46 1623.91,537.983 1623.91,234.122C1623.91,-119.551 1349.94,-368.617 1115.82,-508.094C941.469,-612.702 742.217,-677.459 537.982,-677.459C264.01,-677.459 0,-537.982 0,-234.122C0,119.552 273.973,368.618 508.095,508.095C682.441,612.702 881.693,677.46 1085.93,677.46Z" style="fill-rule:nonzero;"/>
        </g>
        <g transform="matrix(1,0,0,1,227.265,99.0456)">
            <rect x="-0.324" y="-6.545" width="0.648" height="16.508"/>
        </g>
        <g transform="matrix(1,0,0,1,227.265,54.2137)">
            <rect x="-0.324" y="0.927" width="0.648" height="15.677"/>
        </g>
        <g transform="matrix(0.004,0,0,-0.004,226.941,91.5736)">
            <path d="M1085.93,677.46C1359.9,677.46 1623.91,537.983 1623.91,234.122C1623.91,-119.551 1349.94,-368.617 1115.82,-508.094C941.469,-612.702 742.217,-677.459 537.982,-677.459C264.01,-677.459 0,-537.982 0,-234.122C0,119.552 273.973,368.618 508.095,508.095C682.441,612.702 881.693,677.46 1085.93,677.46Z" style="fill-rule:nonzero;"/>
        </g>
        <g transform="matrix(0.004,0,0,-0.004,226.941,54.2137)">
            <path d="M1085.93,677.46C1359.9,677.46 1623.91,537.983 1623.91,234.122C1623.91,-119.551 1349.94,-368.617 1115.82,-508.094C941.469,-612.702 742.217,-677.459 537.982,-677.459C264.01,-677.459 0,-537.982 0,-234.122C0,119.552 273.973,368.618 508.095,508.095C682.441,612.702 881.693,677.46 1085.93,677.46Z" style="fill-rule:nonzero;"/>
        </g>
        <g transform="matrix(1,0,0,1,135.481,76.2715)">
            <text x="0px" y="0px" style="font-family:'Times-Italic', 'Times';font-style:italic;font-size:8.698px;">3</text>
        </g>
        <g transform="matrix(1,0,0,1,124.894,65.1228)">
            <path d="M25.397,2.092L25.397,4.085L0.199,0.996L0.199,-0.996L25.397,2.092Z" style="fill-rule:nonzero;stroke:black;stroke-width:0.4px;"/>
        </g>
        <g transform="matrix(1,0,0,1,201.351,71.2901)">
            <text x="0px" y="0px" style="font-family:'Times-Italic', 'Times';font-style:italic;font-size:8.698px;">3</text>
        </g>
        <g transform="matrix(1,0,0,1,190.764,63.2299)">
            <path d="M25.397,-4.084L25.397,-2.092L0.199,0.996L0.199,-0.996L25.397,-4.084Z" style="fill-rule:nonzero;stroke:black;stroke-width:0.4px;"/>
        </g>
        <g transform="matrix(1,0,0,1,286.877,76.2715)">
            <text x="0px" y="0px" style="font-family:'Times-Italic', 'Times';font-style:italic;font-size:8.698px;">3</text>
        </g>
        <g transform="matrix(1,0,0,1,276.29,68.2112)">
            <path d="M25.397,-4.084L25.397,-2.092L0.199,0.996L0.199,-0.996L25.397,-4.084Z" style="fill-rule:nonzero;stroke:black;stroke-width:0.4px;"/>
        </g>
        <g transform="matrix(1,0,0,1,216.036,54.2137)">
            <rect x="-0.324" y="-9.035" width="0.648" height="15.002"/>
        </g>
        <g transform="matrix(1,0,0,1,356.738,52.9126)">
            <path d="M11.428,0.305L11.428,2.298L0.199,0.996L0.199,-0.996L11.428,0.305Z" style="fill-rule:nonzero;stroke:black;stroke-width:0.4px;"/>
        </g>
        <g transform="matrix(1,0,0,1,340.767,55.1601)">
            <path d="M27.399,2.092L27.399,4.085L0.199,0.996L0.199,-0.996L27.399,2.092Z" style="fill-rule:nonzero;stroke:black;stroke-width:0.4px;"/>
        </g>
        <g transform="matrix(1,0,0,1,249.214,99.0456)">
            <rect x="-0.324" y="-1.563" width="0.648" height="16.508"/>
        </g>
        <g transform="matrix(1,0,0,1,191.088,99.0456)">
            <rect x="-0.324" y="-11.526" width="0.648" height="16.508"/>
        </g>
        <g transform="matrix(1,0,0,1,191.088,54.2137)">
            <rect x="-0.324" y="-4.054" width="0.648" height="13.032"/>
        </g>
        <g transform="matrix(0.004,0,0,-0.004,190.764,86.5923)">
            <path d="M1085.93,677.46C1359.9,677.46 1623.91,537.983 1623.91,234.122C1623.91,-119.551 1349.94,-368.617 1115.82,-508.094C941.469,-612.702 742.217,-677.459 537.982,-677.459C264.01,-677.459 0,-537.982 0,-234.122C0,119.552 273.973,368.618 508.095,508.095C682.441,612.702 881.693,677.46 1085.93,677.46Z" style="fill-rule:nonzero;"/>
        </g>
        <g transform="matrix(0.004,0,0,-0.004,190.764,49.2324)">
            <path d="M1085.93,677.46C1359.9,677.46 1623.91,537.983 1623.91,234.122C1623.91,-119.551 1349.94,-368.617 1115.82,-508.094C941.469,-612.702 742.217,-677.459 537.982,-677.459C264.01,-677.459 0,-537.982 0,-234.122C0,119.552 273.973,368.618 508.095,508.095C682.441,612.702 881.693,677.46 1085.93,677.46Z" style="fill-rule:nonzero;"/>
        </g>
        <g transform="matrix(1,0,0,1,167.688,99.0456)">
            <rect x="-0.324" y="-14.944" width="0.648" height="16.508"/>
        </g>
        <g transform="matrix(0.004,0,0,-0.004,215.713,44.2511)">
            <path d="M1085.93,677.46C1359.9,677.46 1623.91,537.983 1623.91,234.122C1623.91,-119.551 1349.94,-368.617 1115.82,-508.094C941.469,-612.702 742.217,-677.459 537.982,-677.459C264.01,-677.459 0,-537.982 0,-234.122C0,119.552 273.973,368.618 508.095,508.095C682.441,612.702 881.693,677.46 1085.93,677.46Z" style="fill-rule:nonzero;"/>
        </g>
        <g transform="matrix(1,0,0,1,203.562,54.2137)">
            <rect x="-0.324" y="-6.545" width="0.648" height="14.017"/>
        </g>
        <g transform="matrix(0.004,0,0,-0.004,203.238,46.7417)">
            <path d="M1085.93,677.46C1359.9,677.46 1623.91,537.983 1623.91,234.122C1623.91,-119.551 1349.94,-368.617 1115.82,-508.094C941.469,-612.702 742.217,-677.459 537.982,-677.459C264.01,-677.459 0,-537.982 0,-234.122C0,119.552 273.973,368.618 508.095,508.095C682.441,612.702 881.693,677.46 1085.93,677.46Z" style="fill-rule:nonzero;"/>
        </g>
        <g transform="matrix(1,0,0,1,276.614,99.0456)">
            <rect x="-0.324" y="-9.035" width="0.648" height="16.508"/>
        </g>
        <g transform="matrix(1,0,0,1,276.614,54.2137)">
            <rect x="-0.324" y="-1.563" width="0.648" height="15.522"/>
        </g>
        <g transform="matrix(0.004,0,0,-0.004,276.29,89.0829)">
            <path d="M1085.93,677.46C1359.9,677.46 1623.91,537.983 1623.91,234.122C1623.91,-119.551 1349.94,-368.617 1115.82,-508.094C941.469,-612.702 742.217,-677.459 537.982,-677.459C264.01,-677.459 0,-537.982 0,-234.122C0,119.552 273.973,368.618 508.095,508.095C682.441,612.702 881.693,677.46 1085.93,677.46Z" style="fill-rule:nonzero;"/>
        </g>
        <g transform="matrix(0.004,0,0,-0.004,312.555,56.7043)">
            <path d="M1085.93,677.46C1359.9,677.46 1623.91,537.983 1623.91,234.122C1623.91,-119.551 1349.94,-368.617 1115.82,-508.094C941.469,-612.702 742.217,-677.459 537.982,-677.459C264.01,-677.459 0,-537.982 0,-234.122C0,119.552 273.973,368.618 508.095,508.095C682.441,612.702 881.693,677.46 1085.93,677.46Z" style="fill-rule:nonzero;"/>
        </g>
        <g transform="matrix(0.004,0,0,-0.004,393.14,42.7567)">
            <path d="M-1479.45,1130.76C-1479.45,1021.17 -1394.77,981.32 -1285.18,981.32C-1090.91,981.32 -926.525,1051.06 -772.104,1120.8L-747.198,1240.35C-861.768,1325.03 -996.264,1384.81 -1150.68,1384.81C-1310.09,1384.81 -1479.45,1305.11 -1479.45,1130.76ZM-129.514,518.057C-129.514,214.197 -363.636,-54.794 -617.684,-54.794C-811.955,-54.794 -896.637,164.384 -896.637,398.506C-896.637,468.244 -891.656,537.983 -876.712,602.74L-801.992,981.32C-956.413,916.563 -1110.83,856.787 -1305.11,856.787C-1479.45,856.787 -1603.99,946.451 -1603.99,1110.83C-1603.99,1364.88 -1359.9,1509.34 -1125.78,1509.34C-971.357,1509.34 -836.862,1459.53 -717.31,1384.81L-488.169,2540.47C-458.281,2525.53 -423.412,2515.57 -388.543,2515.57C-278.954,2515.57 -149.44,2595.27 -49.813,2689.91L-313.823,1364.88L4.981,1544.21C134.496,1613.95 259.029,1643.84 373.599,1643.84C518.057,1643.84 637.609,1594.02 692.403,1504.36C782.067,1603.99 911.581,1653.8 1036.11,1653.8C1215.44,1653.8 1379.83,1544.21 1379.83,1310.09C1379.83,1085.93 1245.33,861.768 1056.04,861.768C931.507,861.768 866.75,971.357 866.75,1100.87C866.75,1305.11 1011.21,1419.68 1165.63,1419.68L1180.57,1419.68C1140.72,1489.41 1066,1519.3 991.283,1519.3C871.731,1519.3 742.217,1439.6 717.31,1305.11L448.319,-39.85C393.524,-4.981 328.767,14.944 259.029,14.944C189.29,14.944 114.57,-4.981 44.832,-39.85L313.823,1305.11L313.823,1339.98C313.823,1419.68 254.047,1469.49 169.365,1469.49C134.496,1469.49 89.664,1454.55 49.813,1434.62L-343.711,1215.44L-378.58,1061.02C-244.085,906.6 -129.514,727.273 -129.514,518.057ZM-428.393,194.272C-313.823,194.272 -254.047,363.637 -254.047,498.132C-254.047,647.572 -323.786,772.105 -413.449,886.675L-438.356,752.179C-458.281,662.516 -503.113,473.226 -503.113,338.73C-503.113,254.048 -483.188,194.272 -428.393,194.272Z" style="fill-rule:nonzero;"/>
        </g>
        <g transform="matrix(0.004,0,0,-0.004,301.239,46.7417)">
            <path d="M1085.93,677.46C1359.9,677.46 1623.91,537.983 1623.91,234.122C1623.91,-119.551 1349.94,-368.617 1115.82,-508.094C941.469,-612.702 742.217,-677.459 537.982,-677.459C264.01,-677.459 0,-537.982 0,-234.122C0,119.552 273.973,368.618 508.095,508.095C682.441,612.702 881.693,677.46 1085.93,677.46Z" style="fill-rule:nonzero;"/>
        </g>
        <g transform="matrix(0.004,0,0,-0.004,276.29,51.723)">
            <path d="M1085.93,677.46C1359.9,677.46 1623.91,537.983 1623.91,234.122C1623.91,-119.551 1349.94,-368.617 1115.82,-508.094C941.469,-612.702 742.217,-677.459 537.982,-677.459C264.01,-677.459 0,-537.982 0,-234.122C0,119.552 273.973,368.618 508.095,508.095C682.441,612.702 881.693,677.46 1085.93,677.46Z" style="fill-rule:nonzero;"/>
        </g>
        <g transform="matrix(1,0,0,1,289.088,54.2137)">
            <rect x="-0.324" y="-4.054" width="0.648" height="16.508"/>
        </g>
        <g transform="matrix(0.004,0,0,-0.004,288.765,49.2324)">
            <path d="M1085.93,677.46C1359.9,677.46 1623.91,537.983 1623.91,234.122C1623.91,-119.551 1349.94,-368.617 1115.82,-508.094C941.469,-612.702 742.217,-677.459 537.982,-677.459C264.01,-677.459 0,-537.982 0,-234.122C0,119.552 273.973,368.618 508.095,508.095C682.441,612.702 881.693,677.46 1085.93,677.46Z" style="fill-rule:nonzero;"/>
        </g>
        <g transform="matrix(0.004,0,0,-0.004,102.722,56.7043)">
            <path d="M1085.93,677.46C1359.9,677.46 1623.91,537.983 1623.91,234.122C1623.91,-119.551 1349.94,-368.617 1115.82,-508.094C941.469,-612.702 742.217,-677.459 537.982,-677.459C264.01,-677.459 0,-537.982 0,-234.122C0,119.552 273.973,368.618 508.095,508.095C682.441,612.702 881.693,677.46 1085.93,677.46Z" style="fill-rule:nonzero;"/>
        </g>
        <g transform="matrix(0.004,0,0,-0.004,83.9522,99.0456)">
            <path d="M747.198,2376.09C602.74,2376.09 453.3,2336.24 453.3,2211.71C453.3,2102.12 632.628,2087.17 632.628,1977.58C632.628,1818.18 503.113,1688.67 343.711,1688.67C184.309,1688.67 59.776,1818.18 59.776,1977.58C59.776,2301.37 393.524,2490.66 747.198,2490.66C1200.5,2490.66 1589.04,2326.28 1589.04,1922.79C1589.04,1708.59 1569.12,1514.32 1379.83,1424.66C1334.99,1404.73 1310.09,1364.88 1310.09,1320.05C1310.09,1275.22 1334.99,1230.39 1379.83,1210.46C1584.06,1115.82 1658.78,926.526 1658.78,697.385C1658.78,239.104 1265.26,0 767.123,0C373.599,0 0,209.216 0,562.889C0,742.217 149.44,891.656 328.767,891.656C508.095,891.656 652.553,742.217 652.553,562.889C652.553,438.356 453.3,423.412 453.3,298.879C453.3,164.384 612.702,114.571 767.123,114.571C1011.21,114.571 1080.95,418.431 1080.95,697.385L1080.95,777.086C1080.95,1046.08 1070.98,1245.33 831.88,1245.33L433.375,1245.33C383.562,1245.33 363.636,1285.18 363.636,1320.05C363.636,1354.92 383.562,1389.79 433.375,1389.79L831.88,1389.79C1075.96,1389.79 1080.95,1603.99 1080.95,1882.94L1080.95,1922.79C1080.95,2191.78 991.283,2376.09 747.198,2376.09Z" style="fill-rule:nonzero;"/>
        </g>
        <g transform="matrix(0.004,0,0,-0.004,83.2717,109.08)">
            <path d="M976.339,582.815L1559.15,582.815C1559.15,343.711 1693.65,114.571 1917.81,114.571C1957.66,114.571 1977.58,89.664 1977.58,59.776C1977.58,29.888 1957.66,0 1917.81,0C1698.63,0 1484.43,64.757 1265.26,64.757C1046.08,64.757 831.88,0 612.702,0C572.852,0 552.926,29.888 552.926,59.776C552.926,89.664 572.852,114.571 612.702,114.571C836.862,114.571 976.339,343.711 976.339,582.815ZM1016.19,1529.27C1125.78,1599 1235.37,1673.72 1315.07,1778.33C1369.86,1853.05 1409.71,1942.72 1449.56,2027.4C1459.53,2047.32 1474.47,2057.28 1494.4,2057.28C1524.28,2057.28 1559.15,2032.38 1559.15,1987.55L1559.15,767.123L1917.81,767.123C1967.62,767.123 1992.53,732.254 1992.53,697.385C1992.53,662.516 1967.62,622.665 1917.81,622.665L1559.15,622.665L1559.15,582.815L976.339,582.815L976.339,622.665L144.458,622.665C29.888,622.665 -9.963,692.404 -9.963,737.235C-9.963,752.179 -4.981,762.142 0,767.123C398.506,1230.39 687.422,1798.26 687.422,2410.96C687.422,2460.77 722.291,2505.6 767.123,2490.66C881.693,2455.79 1001.25,2425.9 1120.8,2425.9C1240.35,2425.9 1359.9,2455.79 1474.47,2490.66C1544.21,2510.59 1589.04,2445.83 1559.15,2410.96L144.458,767.123L976.339,767.123L976.339,1419.68C976.339,1459.53 981.32,1504.36 1016.19,1529.27Z" style="fill-rule:nonzero;"/>
        </g>
        <g transform="matrix(0.004,0,0,-0.004,61.1048,94.0642)">
            <path d="M1075.96,-1554.17C1075.96,-1603.99 1036.11,-1648.82 986.301,-1648.82C936.488,-1648.82 891.656,-1603.99 891.656,-1554.17L891.656,-831.88L478.207,-986.301L478.207,-1773.35C478.207,-1823.16 433.375,-1867.99 383.562,-1867.99C333.748,-1867.99 293.898,-1823.16 293.898,-1773.35L293.898,-1051.06L134.496,-1110.83C124.533,-1115.82 109.589,-1115.82 99.626,-1115.82C44.832,-1115.82 0,-1070.98 0,-1016.19L0,-717.31C0,-677.459 24.907,-637.609 64.757,-622.665L293.898,-542.964L293.898,254.048L134.496,199.253C124.533,194.272 109.589,194.272 99.626,194.272C44.832,194.272 0,239.104 0,293.898L0,592.777C0,632.628 24.907,667.497 64.757,682.441L293.898,767.123L293.898,1554.17C293.898,1603.99 333.748,1648.82 383.562,1648.82C433.375,1648.82 478.207,1603.99 478.207,1554.17L478.207,831.881L891.656,986.301L891.656,1773.35C891.656,1823.16 936.488,1868 986.301,1868C1036.11,1868 1075.96,1823.16 1075.96,1773.35L1075.96,1051.06L1235.37,1110.83C1245.33,1115.82 1260.27,1115.82 1270.24,1115.82C1325.03,1115.82 1369.86,1070.98 1369.86,1016.19L1369.86,717.31C1369.86,677.46 1344.96,637.609 1305.11,622.665L1075.96,542.964L1075.96,-254.047L1235.37,-199.253C1245.33,-194.271 1260.27,-194.271 1270.24,-194.271C1325.03,-194.271 1369.86,-239.103 1369.86,-293.898L1369.86,-592.777C1369.86,-632.627 1344.96,-667.497 1305.11,-682.44L1075.96,-767.123L1075.96,-1554.17ZM478.207,323.786L478.207,-473.225L891.656,-323.786L891.656,473.226L478.207,323.786Z" style="fill-rule:nonzero;"/>
        </g>
        <g transform="matrix(0.004,0,0,-0.004,66.5843,101.536)">
            <path d="M1075.96,-1554.17C1075.96,-1603.99 1036.11,-1648.82 986.301,-1648.82C936.488,-1648.82 891.656,-1603.99 891.656,-1554.17L891.656,-831.88L478.207,-986.301L478.207,-1773.35C478.207,-1823.16 433.375,-1867.99 383.562,-1867.99C333.748,-1867.99 293.898,-1823.16 293.898,-1773.35L293.898,-1051.06L134.496,-1110.83C124.533,-1115.82 109.589,-1115.82 99.626,-1115.82C44.832,-1115.82 0,-1070.98 0,-1016.19L0,-717.31C0,-677.459 24.907,-637.609 64.757,-622.665L293.898,-542.964L293.898,254.048L134.496,199.253C124.533,194.272 109.589,194.272 99.626,194.272C44.832,194.272 0,239.104 0,293.898L0,592.777C0,632.628 24.907,667.497 64.757,682.441L293.898,767.123L293.898,1554.17C293.898,1603.99 333.748,1648.82 383.562,1648.82C433.375,1648.82 478.207,1603.99 478.207,1554.17L478.207,831.881L891.656,986.301L891.656,1773.35C891.656,1823.16 936.488,1868 986.301,1868C1036.11,1868 1075.96,1823.16 1075.96,1773.35L1075.96,1051.06L1235.37,1110.83C1245.33,1115.82 1260.27,1115.82 1270.24,1115.82C1325.03,1115.82 1369.86,1070.98 1369.86,1016.19L1369.86,717.31C1369.86,677.46 1344.96,637.609 1305.11,622.665L1075.96,542.964L1075.96,-254.047L1235.37,-199.253C1245.33,-194.271 1260.27,-194.271 1270.24,-194.271C1325.03,-194.271 1369.86,-239.103 1369.86,-293.898L1369.86,-592.777C1369.86,-632.627 1344.96,-667.497 1305.11,-682.44L1075.96,-767.123L1075.96,-1554.17ZM478.207,323.786L478.207,-473.225L891.656,-323.786L891.656,473.226L478.207,323.786Z" style="fill-rule:nonzero;"/>
        </g>
        <g transform="matrix(0.004,0,0,-0.004,72.0637,91.5736)">
            <path d="M1075.96,-1554.17C1075.96,-1603.99 1036.11,-1648.82 986.301,-1648.82C936.488,-1648.82 891.656,-1603.99 891.656,-1554.17L891.656,-831.88L478.207,-986.301L478.207,-1773.35C478.207,-1823.16 433.375,-1867.99 383.562,-1867.99C333.748,-1867.99 293.898,-1823.16 293.898,-1773.35L293.898,-1051.06L134.496,-1110.83C124.533,-1115.82 109.589,-1115.82 99.626,-1115.82C44.832,-1115.82 0,-1070.98 0,-1016.19L0,-717.31C0,-677.459 24.907,-637.609 64.757,-622.665L293.898,-542.964L293.898,254.048L134.496,199.253C124.533,194.272 109.589,194.272 99.626,194.272C44.832,194.272 0,239.104 0,293.898L0,592.777C0,632.628 24.907,667.497 64.757,682.441L293.898,767.123L293.898,1554.17C293.898,1603.99 333.748,1648.82 383.562,1648.82C433.375,1648.82 478.207,1603.99 478.207,1554.17L478.207,831.881L891.656,986.301L891.656,1773.35C891.656,1823.16 936.488,1868 986.301,1868C1036.11,1868 1075.96,1823.16 1075.96,1773.35L1075.96,1051.06L1235.37,1110.83C1245.33,1115.82 1260.27,1115.82 1270.24,1115.82C1325.03,1115.82 1369.86,1070.98 1369.86,1016.19L1369.86,717.31C1369.86,677.46 1344.96,637.609 1305.11,622.665L1075.96,542.964L1075.96,-254.047L1235.37,-199.253C1245.33,-194.271 1260.27,-194.271 1270.24,-194.271C1325.03,-194.271 1369.86,-239.103 1369.86,-293.898L1369.86,-592.777C1369.86,-632.627 1344.96,-667.497 1305.11,-682.44L1075.96,-767.123L1075.96,-1554.17ZM478.207,323.786L478.207,-473.225L891.656,-323.786L891.656,473.226L478.207,323.786Z" style="fill-rule:nonzero;"/>
        </g>
        <g transform="matrix(0.004,0,0,-0.004,43.6702,94.0642)">
            <path d="M2774.6,-622.665C2774.6,-483.188 2889.16,-368.617 3028.64,-368.617C3168.12,-368.617 3282.69,-483.188 3282.69,-622.665C3282.69,-762.142 3168.12,-876.712 3028.64,-876.712C2889.16,-876.712 2774.6,-762.142 2774.6,-622.665ZM2774.6,622.665C2774.6,762.142 2889.16,876.712 3028.64,876.712C3168.12,876.712 3282.69,762.142 3282.69,622.665C3282.69,483.188 3168.12,368.618 3028.64,368.618C2889.16,368.618 2774.6,483.188 2774.6,622.665ZM1155.67,1310.09C2012.45,1310.09 2615.19,871.731 2615.19,59.776C2615.19,-1250.31 1305.11,-2002.49 44.832,-2535.49C29.888,-2550.43 14.944,-2555.42 0,-2555.42C-34.869,-2555.42 -64.757,-2525.53 -64.757,-2490.66C-64.757,-2475.72 -59.776,-2460.77 -44.832,-2445.83C961.395,-1858.03 2007.47,-1125.78 2007.47,9.963C2007.47,607.721 1693.65,1180.57 1155.67,1180.57C787.048,1180.57 513.076,911.582 388.543,552.927C443.337,577.833 498.132,592.777 557.908,592.777C831.88,592.777 1056.04,368.618 1056.04,94.645C1056.04,-194.271 836.862,-433.375 557.908,-433.375C259.029,-433.375 0,-199.253 0,94.645C0,757.161 508.095,1310.09 1155.67,1310.09Z" style="fill-rule:nonzero;"/>
        </g>
        <g transform="matrix(0.004,0,0,-0.004,102.722,89.0829)">
            <path d="M1085.93,677.46C1359.9,677.46 1623.91,537.983 1623.91,234.122C1623.91,-119.551 1349.94,-368.617 1115.82,-508.094C941.469,-612.702 742.217,-677.459 537.982,-677.459C264.01,-677.459 0,-537.982 0,-234.122C0,119.552 273.973,368.618 508.095,508.095C682.441,612.702 881.693,677.46 1085.93,677.46Z" style="fill-rule:nonzero;"/>
        </g>
        <g transform="matrix(0.004,0,0,-0.004,102.722,106.518)">
            <path d="M1085.93,677.46C1359.9,677.46 1623.91,537.983 1623.91,234.122C1623.91,-119.551 1349.94,-368.617 1115.82,-508.094C941.469,-612.702 742.217,-677.459 537.982,-677.459C264.01,-677.459 0,-537.982 0,-234.122C0,119.552 273.973,368.618 508.095,508.095C682.441,612.702 881.693,677.46 1085.93,677.46Z" style="fill-rule:nonzero;"/>
        </g>
        <g transform="matrix(0.004,0,0,-0.004,83.9522,54.2137)">
            <path d="M747.198,2376.09C602.74,2376.09 453.3,2336.24 453.3,2211.71C453.3,2102.12 632.628,2087.17 632.628,1977.58C632.628,1818.18 503.113,1688.67 343.711,1688.67C184.309,1688.67 59.776,1818.18 59.776,1977.58C59.776,2301.37 393.524,2490.66 747.198,2490.66C1200.5,2490.66 1589.04,2326.28 1589.04,1922.79C1589.04,1708.59 1569.12,1514.32 1379.83,1424.66C1334.99,1404.73 1310.09,1364.88 1310.09,1320.05C1310.09,1275.22 1334.99,1230.39 1379.83,1210.46C1584.06,1115.82 1658.78,926.526 1658.78,697.385C1658.78,239.104 1265.26,0 767.123,0C373.599,0 0,209.216 0,562.889C0,742.217 149.44,891.656 328.767,891.656C508.095,891.656 652.553,742.217 652.553,562.889C652.553,438.356 453.3,423.412 453.3,298.879C453.3,164.384 612.702,114.571 767.123,114.571C1011.21,114.571 1080.95,418.431 1080.95,697.385L1080.95,777.086C1080.95,1046.08 1070.98,1245.33 831.88,1245.33L433.375,1245.33C383.562,1245.33 363.636,1285.18 363.636,1320.05C363.636,1354.92 383.562,1389.79 433.375,1389.79L831.88,1389.79C1075.96,1389.79 1080.95,1603.99 1080.95,1882.94L1080.95,1922.79C1080.95,2191.78 991.283,2376.09 747.198,2376.09Z" style="fill-rule:nonzero;"/>
        </g>
        <g transform="matrix(0.004,0,0,-0.004,83.2717,64.2481)">
            <path d="M976.339,582.815L1559.15,582.815C1559.15,343.711 1693.65,114.571 1917.81,114.571C1957.66,114.571 1977.58,89.664 1977.58,59.776C1977.58,29.888 1957.66,0 1917.81,0C1698.63,0 1484.43,64.757 1265.26,64.757C1046.08,64.757 831.88,0 612.702,0C572.852,0 552.926,29.888 552.926,59.776C552.926,89.664 572.852,114.571 612.702,114.571C836.862,114.571 976.339,343.711 976.339,582.815ZM1016.19,1529.27C1125.78,1599 1235.37,1673.72 1315.07,1778.33C1369.86,1853.05 1409.71,1942.72 1449.56,2027.4C1459.53,2047.32 1474.47,2057.28 1494.4,2057.28C1524.28,2057.28 1559.15,2032.38 1559.15,1987.55L1559.15,767.123L1917.81,767.123C1967.62,767.123 1992.53,732.254 1992.53,697.385C1992.53,662.516 1967.62,622.665 1917.81,622.665L1559.15,622.665L1559.15,582.815L976.339,582.815L976.339,622.665L144.458,622.665C29.888,622.665 -9.963,692.404 -9.963,737.235C-9.963,752.179 -4.981,762.142 0,767.123C398.506,1230.39 687.422,1798.26 687.422,2410.96C687.422,2460.77 722.291,2505.6 767.123,2490.66C881.693,2455.79 1001.25,2425.9 1120.8,2425.9C1240.35,2425.9 1359.9,2455.79 1474.47,2490.66C1544.21,2510.59 1589.04,2445.83 1559.15,2410.96L144.458,767.123L976.339,767.123L976.339,1419.68C976.339,1459.53 981.32,1504.36 1016.19,1529.27Z" style="fill-rule:nonzero;"/>
        </g>
        <g transform="matrix(0.004,0,0,-0.004,61.1048,44.2511)">
            <path d="M1075.96,-1554.17C1075.96,-1603.99 1036.11,-1648.82 986.301,-1648.82C936.488,-1648.82 891.656,-1603.99 891.656,-1554.17L891.656,-831.88L478.207,-986.301L478.207,-1773.35C478.207,-1823.16 433.375,-1867.99 383.562,-1867.99C333.748,-1867.99 293.898,-1823.16 293.898,-1773.35L293.898,-1051.06L134.496,-1110.83C124.533,-1115.82 109.589,-1115.82 99.626,-1115.82C44.832,-1115.82 0,-1070.98 0,-1016.19L0,-717.31C0,-677.459 24.907,-637.609 64.757,-622.665L293.898,-542.964L293.898,254.048L134.496,199.253C124.533,194.272 109.589,194.272 99.626,194.272C44.832,194.272 0,239.104 0,293.898L0,592.777C0,632.628 24.907,667.497 64.757,682.441L293.898,767.123L293.898,1554.17C293.898,1603.99 333.748,1648.82 383.562,1648.82C433.375,1648.82 478.207,1603.99 478.207,1554.17L478.207,831.881L891.656,986.301L891.656,1773.35C891.656,1823.16 936.488,1868 986.301,1868C1036.11,1868 1075.96,1823.16 1075.96,1773.35L1075.96,1051.06L1235.37,1110.83C1245.33,1115.82 1260.27,1115.82 1270.24,1115.82C1325.03,1115.82 1369.86,1070.98 1369.86,1016.19L1369.86,717.31C1369.86,677.46 1344.96,637.609 1305.11,622.665L1075.96,542.964L1075.96,-254.047L1235.37,-199.253C1245.33,-194.271 1260.27,-194.271 1270.24,-194.271C1325.03,-194.271 1369.86,-239.103 1369.86,-293.898L1369.86,-592.777C1369.86,-632.627 1344.96,-667.497 1305.11,-682.44L1075.96,-767.123L1075.96,-1554.17ZM478.207,323.786L478.207,-473.225L891.656,-323.786L891.656,473.226L478.207,323.786Z" style="fill-rule:nonzero;"/>
        </g>
        <g transform="matrix(0.004,0,0,-0.004,66.5843,51.723)">
            <path d="M1075.96,-1554.17C1075.96,-1603.99 1036.11,-1648.82 986.301,-1648.82C936.488,-1648.82 891.656,-1603.99 891.656,-1554.17L891.656,-831.88L478.207,-986.301L478.207,-1773.35C478.207,-1823.16 433.375,-1867.99 383.562,-1867.99C333.748,-1867.99 293.898,-1823.16 293.898,-1773.35L293.898,-1051.06L134.496,-1110.83C124.533,-1115.82 109.589,-1115.82 99.626,-1115.82C44.832,-1115.82 0,-1070.98 0,-1016.19L0,-717.31C0,-677.459 24.907,-637.609 64.757,-622.665L293.898,-542.964L293.898,254.048L134.496,199.253C124.533,194.272 109.589,194.272 99.626,194.272C44.832,194.272 0,239.104 0,293.898L0,592.777C0,632.628 24.907,667.497 64.757,682.441L293.898,767.123L293.898,1554.17C293.898,1603.99 333.748,1648.82 383.562,1648.82C433.375,1648.82 478.207,1603.99 478.207,1554.17L478.207,831.881L891.656,986.301L891.656,1773.35C891.656,1823.16 936.488,1868 986.301,1868C1036.11,1868 1075.96,1823.16 1075.96,1773.35L1075.96,1051.06L1235.37,1110.83C1245.33,1115.82 1260.27,1115.82 1270.24,1115.82C1325.03,1115.82 1369.86,1070.98 1369.86,1016.19L1369.86,717.31C1369.86,677.46 1344.96,637.609 1305.11,622.665L1075.96,542.964L1075.96,-254.047L1235.37,-199.253C1245.33,-194.271 1260.27,-194.271 1270.24,-194.271C1325.03,-194.271 1369.86,-239.103 1369.86,-293.898L1369.86,-592.777C1369.86,-632.627 1344.96,-667.497 1305.11,-682.44L1075.96,-767.123L1075.96,-1554.17ZM478.207,323.786L478.207,-473.225L891.656,-323.786L891.656,473.226L478.207,323.786Z" style="fill-rule:nonzero;"/>
        </g>
        <g transform="matrix(0.004,0,0,-0.004,72.0637,41.7604)">
            <path d="M1075.96,-1554.17C1075.96,-1603.99 1036.11,-1648.82 986.301,-1648.82C936.488,-1648.82 891.656,-1603.99 891.656,-1554.17L891.656,-831.88L478.207,-986.301L478.207,-1773.35C478.207,-1823.16 433.375,-1867.99 383.562,-1867.99C333.748,-1867.99 293.898,-1823.16 293.898,-1773.35L293.898,-1051.06L134.496,-1110.83C124.533,-1115.82 109.589,-1115.82 99.626,-1115.82C44.832,-1115.82 0,-1070.98 0,-1016.19L0,-717.31C0,-677.459 24.907,-637.609 64.757,-622.665L293.898,-542.964L293.898,254.048L134.496,199.253C124.533,194.272 109.589,194.272 99.626,194.272C44.832,194.272 0,239.104 0,293.898L0,592.777C0,632.628 24.907,667.497 64.757,682.441L293.898,767.123L293.898,1554.17C293.898,1603.99 333.748,1648.82 383.562,1648.82C433.375,1648.82 478.207,1603.99 478.207,1554.17L478.207,831.881L891.656,986.301L891.656,1773.35C891.656,1823.16 936.488,1868 986.301,1868C1036.11,1868 1075.96,1823.16 1075.96,1773.35L1075.96,1051.06L1235.37,1110.83C1245.33,1115.82 1260.27,1115.82 1270.24,1115.82C1325.03,1115.82 1369.86,1070.98 1369.86,1016.19L1369.86,717.31C1369.86,677.46 1344.96,637.609 1305.11,622.665L1075.96,542.964L1075.96,-254.047L1235.37,-199.253C1245.33,-194.271 1260.27,-194.271 1270.24,-194.271C1325.03,-194.271 1369.86,-239.103 1369.86,-293.898L1369.86,-592.777C1369.86,-632.627 1344.96,-667.497 1305.11,-682.44L1075.96,-767.123L1075.96,-1554.17ZM478.207,323.786L478.207,-473.225L891.656,-323.786L891.656,473.226L478.207,323.786Z" style="fill-rule:nonzero;"/>
        </g>
        <g transform="matrix(0.004,0,0,-0.004,43.6702,59.195)">
            <path d="M1325.03,-3163.14L1295.14,-3163.14C757.161,-3163.14 323.786,-2724.78 323.786,-2181.82C323.786,-1892.9 587.796,-1668.74 881.693,-1668.74C1150.68,-1668.74 1354.92,-1902.86 1354.92,-2181.82C1354.92,-2440.85 1140.72,-2655.04 881.693,-2655.04C826.899,-2655.04 777.086,-2645.08 727.273,-2625.16C856.787,-2819.43 1066,-2948.94 1310.09,-2948.94L1330.01,-2948.94L1325.03,-3163.14ZM2296.39,-1011.21C2635.12,-891.656 2859.28,-537.982 2859.28,-194.271C2859.28,254.048 2530.51,697.385 1997.51,752.179C2117.06,174.346 2226.65,-398.505 2296.39,-1011.21ZM368.618,139.477C368.618,-533.001 1011.21,-1090.91 1683.69,-1090.91C1823.16,-1090.91 1957.66,-1080.95 2092.15,-1061.02C2022.42,-428.393 1907.85,159.402 1778.33,752.179C1384.81,712.329 1160.65,448.319 1160.65,159.402C1160.65,-59.776 1285.18,-293.898 1564.13,-453.3C1589.04,-478.206 1599,-503.113 1599,-528.02C1599,-582.814 1549.19,-637.609 1489.41,-637.609C1474.47,-637.609 1459.53,-632.627 1444.58,-627.646C1046.08,-413.449 861.768,-54.794 861.768,293.898C861.768,732.254 1150.68,1160.65 1658.78,1275.22C1589.04,1564.13 1514.32,1858.03 1429.64,2146.95C896.637,1544.21 368.618,936.488 368.618,139.477ZM1668.74,-1305.11C732.254,-1305.11 9.963,-448.318 9.963,557.908C9.963,1439.6 662.515,2082.19 1245.33,2754.67C1150.68,3063.51 1061.02,3377.34 1021.17,3701.12C991.283,3960.15 986.301,4219.18 986.301,4478.21C986.301,5051.06 1260.27,5594.02 1728.52,5932.75C1758.41,5957.66 1798.26,5957.66 1828.14,5932.75C2181.82,5514.32 2490.66,4712.33 2490.66,4149.44C2490.66,3437.11 2062.27,2879.2 1594.02,2336.24C1698.63,1997.51 1788.29,1648.82 1872.98,1305.11C1892.9,1305.11 1917.81,1310.09 1937.73,1310.09C2709.84,1310.09 3212.95,672.478 3212.95,9.963C3212.95,-368.617 3048.57,-757.16 2679.95,-1036.11C2570.36,-1120.8 2445.83,-1175.59 2316.31,-1215.44C2331.26,-1389.79 2341.22,-1564.13 2341.22,-1738.48C2341.22,-1833.12 2336.24,-1932.75 2331.26,-2027.4C2296.39,-2620.17 1892.9,-3148.19 1325.03,-3163.14L1330.01,-2948.94C1793.28,-2938.98 2092.15,-2490.66 2122.04,-1997.51C2127.02,-1907.85 2132.01,-1813.2 2132.01,-1723.54C2132.01,-1569.12 2127.02,-1419.68 2112.08,-1265.26C1967.62,-1290.16 1823.16,-1305.11 1668.74,-1305.11ZM2132.01,4562.89C2132.01,4836.86 2112.08,4956.41 2032.38,5205.48C1539.23,4966.38 1225.4,4463.26 1225.4,3915.32C1225.4,3546.7 1315.07,3252.8 1404.73,2948.94C1803.24,3432.13 2132.01,3935.24 2132.01,4562.89Z" style="fill-rule:nonzero;"/>
        </g>
        <g transform="matrix(1,0,0,1,35.2628,39.0207)">
            <text x="0px" y="0px" style="font-family:'Times-Roman', 'Times';font-size:8.698px;">1</text>
        </g>
        <g transform="matrix(1,0,0,1,39.3863,76.6296)">
            <rect x="0" y="-32.627" width="0.797" height="65.255"/>
        </g>
        <g transform="matrix(0.004,0,0,-0.004,37.8919,76.6296)">
            <path d="M-74.72,-2480.7C-74.72,-3780.82 -582.814,-5051.06 -582.814,-6291.41C-582.814,-6963.88 -433.375,-7591.53 59.776,-8084.68C134.496,-8159.4 14.944,-8278.95 -59.776,-8204.23C-717.31,-7531.75 -941.469,-6650.06 -941.469,-5708.59C-941.469,-4378.58 -403.487,-3078.45 -403.487,-1823.16C-403.487,-1150.68 -567.87,-523.038 -1046.08,-29.888C-1061.02,-14.944 -1061.02,-14.944 -1061.02,0C-1061.02,14.944 -1061.02,14.944 -1046.08,29.888C-567.87,523.039 -403.487,1150.68 -403.487,1823.16C-403.487,3078.45 -941.469,4378.58 -941.469,5708.59C-941.469,6650.06 -717.31,7531.76 -59.776,8204.23C14.944,8278.95 134.496,8159.4 59.776,8084.68C-433.375,7591.53 -582.814,6963.88 -582.814,6291.41C-582.814,5051.06 -74.72,3780.82 -74.72,2480.7C-74.72,1554.17 -298.879,672.478 -941.469,0C-298.879,-672.478 -74.72,-1554.17 -74.72,-2480.7Z" style="fill-rule:nonzero;"/>
        </g>
        <g transform="matrix(1,0,0,1,301.563,54.2137)">
            <rect x="-0.324" y="-6.545" width="0.648" height="17.493"/>
        </g>
        <g transform="matrix(1,0,0,1,103.046,99.0456)">
            <rect x="-0.324" y="-9.035" width="0.648" height="30.621"/>
        </g>
        <g transform="matrix(1,0,0,1,108.895,54.2137)">
            <rect x="-0.324" y="-14.944" width="0.648" height="16.508"/>
        </g>
        <g transform="matrix(0.004,0,0,-0.004,367.717,44.2511)">
            <path d="M1085.93,677.46C1359.9,677.46 1623.91,537.983 1623.91,234.122C1623.91,-119.551 1349.94,-368.617 1115.82,-508.094C941.469,-612.702 742.217,-677.459 537.982,-677.459C264.01,-677.459 0,-537.982 0,-234.122C0,119.552 273.973,368.618 508.095,508.095C682.441,612.702 881.693,677.46 1085.93,677.46Z" style="fill-rule:nonzero;"/>
        </g>
        <g transform="matrix(1,0,0,1,384.301,54.2137)">
            <rect x="-0.324" y="-19.427" width="0.648" height="11.385"/>
        </g>
        <g transform="matrix(0.0028,0,0,-0.0028,380.052,46.7417)">
            <path d="M1036.11,692.404C1339.98,692.404 1618.93,528.02 1618.93,199.253C1618.93,-154.421 1359.9,-393.524 1125.78,-533.001C956.413,-632.627 772.104,-692.403 577.833,-692.403C273.973,-692.403 0,-528.02 0,-199.253C0,154.421 254.047,393.524 488.169,533.001C657.534,632.628 841.843,692.404 1036.11,692.404Z" style="fill-rule:nonzero;"/>
        </g>
        <g transform="matrix(1,0,0,1,368.041,54.2137)">
            <rect x="-0.324" y="-9.035" width="0.648" height="13.034"/>
        </g>
        <g transform="matrix(0.004,0,0,-0.004,312.555,84.1016)">
            <path d="M1085.93,677.46C1359.9,677.46 1623.91,537.983 1623.91,234.122C1623.91,-119.551 1349.94,-368.617 1115.82,-508.094C941.469,-612.702 742.217,-677.459 537.982,-677.459C264.01,-677.459 0,-537.982 0,-234.122C0,119.552 273.973,368.618 508.095,508.095C682.441,612.702 881.693,677.46 1085.93,677.46Z" style="fill-rule:nonzero;"/>
        </g>
        <g transform="matrix(1,0,0,1,357.061,54.2137)">
            <rect x="-0.324" y="-11.526" width="0.648" height="14.296"/>
        </g>
        <g transform="matrix(0.004,0,0,-0.004,356.738,41.7604)">
            <path d="M1085.93,677.46C1359.9,677.46 1623.91,537.983 1623.91,234.122C1623.91,-119.551 1349.94,-368.617 1115.82,-508.094C941.469,-612.702 742.217,-677.459 537.982,-677.459C264.01,-677.459 0,-537.982 0,-234.122C0,119.552 273.973,368.618 508.095,508.095C682.441,612.702 881.693,677.46 1085.93,677.46Z" style="fill-rule:nonzero;"/>
        </g>
        <g transform="matrix(0.004,0,0,-0.004,389.709,49.2324)">
            <path d="M1564.13,323.786C1564.13,443.338 1459.53,528.02 1354.92,528.02C1334.99,528.02 1315.07,528.02 1295.14,523.039C1140.72,478.207 906.6,323.786 722.291,204.234C537.982,84.683 303.86,-59.776 204.234,-184.309C169.365,-224.159 154.421,-273.972 154.421,-323.786C154.421,-443.337 259.029,-528.02 363.636,-528.02C383.562,-528.02 403.487,-528.02 423.412,-523.038C577.833,-478.206 806.974,-323.786 991.283,-204.234C1175.59,-84.682 1409.71,59.776 1509.34,184.309C1544.21,224.16 1564.13,273.973 1564.13,323.786ZM1305.11,677.46C1534.25,677.46 1713.57,572.852 1713.57,323.786C1713.57,229.141 1693.65,129.515 1663.76,39.851C1603.99,-144.458 1504.36,-318.804 1344.96,-428.393C1080.95,-607.721 782.067,-677.459 413.449,-677.459C184.309,-677.459 0,-572.851 0,-323.786C0,-229.14 24.907,-129.514 54.795,-39.85C114.57,144.458 209.215,318.805 368.618,428.394C632.628,607.721 936.488,677.46 1305.11,677.46Z" style="fill-rule:nonzero;"/>
        </g>
        <g transform="matrix(0.0028,0,0,-0.0028,384.625,34.9858)">
            <path d="M0,0C0,-976.338 1031.13,-1663.76 1031.13,-2640.1C1031.13,-2993.77 956.413,-3337.48 826.899,-3666.25C801.992,-3716.06 757.161,-3731.01 712.329,-3731.01C642.59,-3731.01 572.852,-3681.2 572.852,-3601.49C572.852,-3591.53 577.833,-3586.55 577.833,-3576.59C707.347,-3282.69 787.048,-2963.89 787.048,-2640.1C787.048,-2136.99 338.73,-1618.93 0,-1245.33L-104.608,-1245.33L-104.608,0L0,0Z" style="fill-rule:nonzero;"/>
        </g>
        <g transform="matrix(0.0028,0,0,-0.0028,331.11,36.7791)">
            <path d="M1036.11,692.404C1339.98,692.404 1618.93,528.02 1618.93,199.253C1618.93,-154.421 1359.9,-393.524 1125.78,-533.001C956.413,-632.627 772.104,-692.403 577.833,-692.403C273.973,-692.403 0,-528.02 0,-199.253C0,154.421 254.047,393.524 488.169,533.001C657.534,632.628 841.843,692.404 1036.11,692.404Z" style="fill-rule:nonzero;"/>
        </g>
        <g transform="matrix(1,0,0,1,335.358,54.2137)">
            <rect x="-0.324" y="-29.39" width="0.648" height="11.385"/>
        </g>
        <g transform="matrix(0.0028,0,0,-0.0028,335.682,25.0232)">
            <path d="M0,0C0,-976.338 1031.13,-1663.76 1031.13,-2640.1C1031.13,-2993.77 956.413,-3337.48 826.899,-3666.25C801.992,-3716.06 757.161,-3731.01 712.329,-3731.01C642.59,-3731.01 572.852,-3681.2 572.852,-3601.49C572.852,-3591.53 577.833,-3586.55 577.833,-3576.59C707.347,-3282.69 787.048,-2963.89 787.048,-2640.1C787.048,-2136.99 338.73,-1618.93 0,-1245.33L-104.608,-1245.33L-104.608,0L0,0Z" style="fill-rule:nonzero;"/>
        </g>
        <g transform="matrix(1,0,0,1,312.879,99.0456)">
            <rect x="-0.324" y="-14.017" width="0.648" height="16.508"/>
        </g>
        <g transform="matrix(0.004,0,0,-0.004,340.767,39.2697)">
            <path d="M1085.93,677.46C1359.9,677.46 1623.91,537.983 1623.91,234.122C1623.91,-119.551 1349.94,-368.617 1115.82,-508.094C941.469,-612.702 742.217,-677.459 537.982,-677.459C264.01,-677.459 0,-537.982 0,-234.122C0,119.552 273.973,368.618 508.095,508.095C682.441,612.702 881.693,677.46 1085.93,677.46Z" style="fill-rule:nonzero;"/>
        </g>
        <g transform="matrix(0.004,0,0,-0.004,340.767,89.0829)">
            <path d="M1085.93,677.46C1359.9,677.46 1623.91,537.983 1623.91,234.122C1623.91,-119.551 1349.94,-368.617 1115.82,-508.094C941.469,-612.702 742.217,-677.459 537.982,-677.459C264.01,-677.459 0,-537.982 0,-234.122C0,119.552 273.973,368.618 508.095,508.095C682.441,612.702 881.693,677.46 1085.93,677.46Z" style="fill-rule:nonzero;"/>
        </g>
        <g transform="matrix(1,0,0,1,341.09,54.2137)">
            <rect x="-0.324" y="-14.017" width="0.648" height="15"/>
        </g>
        <g transform="matrix(1,0,0,1,318.728,54.2137)">
            <rect x="-0.324" y="-14.944" width="0.648" height="16.508"/>
        </g>
        <g transform="matrix(1,0,0,1,341.09,99.0456)">
            <rect x="-0.324" y="-9.035" width="0.648" height="16.508"/>
        </g>
    </g>
</svg>
