<?xml version="1.0" encoding="UTF-8" standalone="no"?><!DOCTYPE svg PUBLIC "-//W3C//DTD SVG 1.1//EN" "http://www.w3.org/Graphics/SVG/1.1/DTD/svg11.dtd"><svg width="100%" height="100%" viewBox="0 0 1797 321" version="1.1" xmlns="http://www.w3.org/2000/svg" xmlns:xlink="http://www.w3.org/1999/xlink" xml:space="preserve" xmlns:serif="http://www.serif.com/" style="fill-rule:evenodd;clip-rule:evenodd;stroke-linecap:round;stroke-linejoin:round;"><rect x="991.52" y="132.698" width="3.944" height="102.74"/><rect x="991.52" y="234.4" width="3.944" height="84.06"/><rect x="991.52" y="48.638" width="3.944" height="84.06"/><rect x="590.815" y="48.638" width="3.944" height="84.06"/><rect x="590.815" y="234.4" width="3.944" height="84.06"/><rect x="1792.93" y="132.698" width="3.944" height="102.74"/><rect x="590.815" y="132.698" width="3.944" height="102.74"/><rect x="1792.93" y="234.4" width="3.944" height="84.06"/><rect x="1792.93" y="48.638" width="3.944" height="84.06"/><rect x="1392.23" y="48.638" width="3.944" height="84.06"/><rect x="1392.23" y="234.4" width="3.944" height="84.06"/><path d="M35.273,318.459l1760.56,0" style="fill:none;fill-rule:nonzero;stroke:#000;stroke-width:2.08px;"/><path d="M35.273,297.704l1760.56,-0" style="fill:none;fill-rule:nonzero;stroke:#000;stroke-width:2.08px;"/><path d="M35.273,276.948l1760.56,0" style="fill:none;fill-rule:nonzero;stroke:#000;stroke-width:2.08px;"/><path d="M35.273,256.193l1760.56,-0" style="fill:none;fill-rule:nonzero;stroke:#000;stroke-width:2.08px;"/><path d="M35.273,235.437l1760.56,0" style="fill:none;fill-rule:nonzero;stroke:#000;stroke-width:2.08px;"/><path d="M35.273,131.66l1760.56,-0" style="fill:none;fill-rule:nonzero;stroke:#000;stroke-width:2.08px;"/><path d="M35.273,110.904l1760.56,0" style="fill:none;fill-rule:nonzero;stroke:#000;stroke-width:2.08px;"/><path d="M35.273,90.149l1760.56,-0" style="fill:none;fill-rule:nonzero;stroke:#000;stroke-width:2.08px;"/><path d="M35.273,69.393l1760.56,0" style="fill:none;fill-rule:nonzero;stroke:#000;stroke-width:2.08px;"/><path d="M35.273,48.638l1760.56,-0" style="fill:none;fill-rule:nonzero;stroke:#000;stroke-width:2.08px;"/><rect x="1392.23" y="132.698" width="3.944" height="102.74"/><rect x="283.637" y="94.047" width="2.698" height="53.34"/><path d="M301.901,78.692c4.649,-0 9.05,2.408 9.05,7.555c-0,5.977 -4.65,10.046 -8.552,12.37c-2.988,1.744 -6.309,2.989 -9.713,2.989c-4.649,-0 -9.05,-2.408 -9.05,-7.555c0,-5.978 4.65,-10.046 8.552,-12.37c2.988,-1.744 6.309,-2.989 9.713,-2.989Z" style="fill-rule:nonzero;"/><path d="M369.693,68.314c4.649,0 9.049,2.408 9.049,7.555c0,5.978 -4.649,10.046 -8.551,12.37c-2.989,1.744 -6.31,2.989 -9.714,2.989c-4.649,0 -9.049,-2.407 -9.049,-7.555c0,-5.977 4.649,-10.045 8.551,-12.37c2.989,-1.744 6.31,-2.989 9.714,-2.989Z" style="fill-rule:nonzero;"/><rect x="351.429" y="83.669" width="2.698" height="56.963"/><path d="M339.265,105.674c0,0.83 -0.664,1.577 -1.494,1.577c-0.83,0 -1.578,-0.747 -1.578,-1.577l0,-12.038l-6.89,2.574l-0,13.117c-0,0.83 -0.748,1.577 -1.578,1.577c-0.83,0 -1.494,-0.747 -1.494,-1.577l-0,-12.038l-2.657,0.996c-0.166,0.083 -0.415,0.083 -0.581,0.083c-0.913,0 -1.66,-0.747 -1.66,-1.66l-0,-4.982c-0,-0.664 0.415,-1.328 1.079,-1.577l3.819,-1.328l-0,-13.284l-2.657,0.913c-0.166,0.083 -0.415,0.083 -0.581,0.083c-0.913,0 -1.66,-0.747 -1.66,-1.66l-0,-4.981c-0,-0.665 0.415,-1.246 1.079,-1.495l3.819,-1.411l-0,-13.118c-0,-0.83 0.664,-1.577 1.494,-1.577c0.83,-0 1.578,0.747 1.578,1.577l-0,12.039l6.89,-2.574l0,-13.118c0,-0.83 0.748,-1.577 1.578,-1.577c0.83,-0 1.494,0.747 1.494,1.577l0,12.039l2.657,-0.997c0.166,-0.083 0.415,-0.083 0.581,-0.083c0.913,0 1.661,0.747 1.661,1.661l-0,4.981c-0,0.664 -0.416,1.328 -1.08,1.577l-3.819,1.329l0,13.283l2.657,-0.913c0.166,-0.083 0.415,-0.083 0.581,-0.083c0.913,0 1.661,0.747 1.661,1.66l-0,4.982c-0,0.664 -0.416,1.245 -1.08,1.494l-3.819,1.412l0,13.117Zm-9.962,-31.299l-0,13.283l6.89,-2.49l0,-13.284l-6.89,2.491Z" style="fill-rule:nonzero;"/><path d="M418.802,57.936c4.65,0 9.05,2.408 9.05,7.555c-0,5.978 -4.649,10.046 -8.551,12.371c-2.989,1.743 -6.31,2.988 -9.714,2.988c-4.649,0 -9.049,-2.407 -9.049,-7.555c-0,-5.977 4.649,-10.045 8.551,-12.37c2.989,-1.743 6.31,-2.989 9.713,-2.989Z" style="fill-rule:nonzero;"/><rect x="400.539" y="73.291" width="2.698" height="62.447"/><path d="M467.914,68.314c4.649,0 9.049,2.408 9.049,7.555c0,5.978 -4.649,10.046 -8.551,12.37c-2.989,1.744 -6.309,2.989 -9.713,2.989c-4.65,0 -9.05,-2.407 -9.05,-7.555c0,-5.977 4.649,-10.045 8.552,-12.37c2.988,-1.744 6.309,-2.989 9.713,-2.989Z" style="fill-rule:nonzero;"/><path d="M1541.38,105.674c0,0.83 -0.664,1.577 -1.494,1.577c-0.83,0 -1.578,-0.747 -1.578,-1.577l0,-12.038l-6.89,2.574l-0,13.117c-0,0.83 -0.748,1.577 -1.578,1.577c-0.83,0 -1.494,-0.747 -1.494,-1.577l-0,-12.038l-2.657,0.996c-0.166,0.083 -0.415,0.083 -0.581,0.083c-0.913,0 -1.661,-0.747 -1.661,-1.66l0,-4.982c0,-0.664 0.416,-1.328 1.08,-1.577l3.819,-1.328l-0,-13.284l-2.657,0.913c-0.166,0.083 -0.415,0.083 -0.581,0.083c-0.913,0 -1.661,-0.747 -1.661,-1.66l0,-4.981c0,-0.665 0.416,-1.246 1.08,-1.495l3.819,-1.411l-0,-13.118c-0,-0.83 0.664,-1.577 1.494,-1.577c0.83,-0 1.578,0.747 1.578,1.577l-0,12.039l6.89,-2.574l0,-13.118c0,-0.83 0.748,-1.577 1.578,-1.577c0.83,-0 1.494,0.747 1.494,1.577l0,12.039l2.657,-0.997c0.166,-0.083 0.415,-0.083 0.581,-0.083c0.913,0 1.66,0.747 1.66,1.661l0,4.981c0,0.664 -0.415,1.328 -1.079,1.577l-3.819,1.329l0,13.283l2.657,-0.913c0.166,-0.083 0.415,-0.083 0.581,-0.083c0.913,0 1.66,0.747 1.66,1.66l0,4.982c0,0.664 -0.415,1.245 -1.079,1.494l-3.819,1.412l0,13.117Zm-9.962,-31.299l-0,13.283l6.89,-2.49l0,-13.284l-6.89,2.491Z" style="fill-rule:nonzero;"/><path d="M1620.92,57.936c4.65,0 9.05,2.408 9.05,7.555c-0,5.978 -4.649,10.046 -8.551,12.371c-2.989,1.743 -6.31,2.988 -9.714,2.988c-4.649,0 -9.049,-2.407 -9.049,-7.555c-0,-5.977 4.649,-10.045 8.551,-12.37c2.989,-1.743 6.309,-2.989 9.713,-2.989Z" style="fill-rule:nonzero;"/><rect x="1602.66" y="73.291" width="2.698" height="62.447"/><path d="M1670.03,68.314c4.649,0 9.049,2.408 9.049,7.555c0,5.978 -4.649,10.046 -8.551,12.37c-2.989,1.744 -6.31,2.989 -9.713,2.989c-4.65,0 -9.05,-2.407 -9.05,-7.555c0,-5.977 4.649,-10.045 8.551,-12.37c2.989,-1.744 6.31,-2.989 9.714,-2.989Z" style="fill-rule:nonzero;"/><rect x="1651.77" y="83.669" width="2.698" height="68.746"/><path d="M1742.36,68.314c4.649,0 9.049,2.408 9.049,7.555c0,5.978 -4.649,10.046 -8.551,12.37c-2.989,1.744 -6.31,2.989 -9.713,2.989c-4.65,0 -9.05,-2.407 -9.05,-7.555c0,-5.977 4.649,-10.045 8.551,-12.37c2.989,-1.744 6.31,-2.989 9.714,-2.989Z" style="fill-rule:nonzero;"/><rect x="1724.1" y="83.669" width="2.698" height="68.746"/><rect x="1553.54" y="83.669" width="2.698" height="56.963"/><path d="M1571.81,68.314c4.649,0 9.049,2.408 9.049,7.555c0,5.978 -4.649,10.046 -8.551,12.37c-2.989,1.744 -6.31,2.989 -9.714,2.989c-4.649,0 -9.049,-2.407 -9.049,-7.555c-0,-5.977 4.649,-10.045 8.551,-12.37c2.989,-1.744 6.31,-2.989 9.714,-2.989Z" style="fill-rule:nonzero;"/><path d="M702.607,78.692c4.649,-0 9.049,2.408 9.049,7.555c0,5.977 -4.649,10.046 -8.551,12.37c-2.989,1.744 -6.31,2.989 -9.714,2.989c-4.649,-0 -9.049,-2.408 -9.049,-7.555c0,-5.978 4.649,-10.046 8.551,-12.37c2.989,-1.744 6.31,-2.989 9.714,-2.989Z" style="fill-rule:nonzero;"/><rect x="684.343" y="94.047" width="2.698" height="53.34"/><path d="M770.396,68.314c4.65,0 9.05,2.408 9.05,7.555c-0,5.978 -4.649,10.046 -8.551,12.37c-2.989,1.744 -6.31,2.989 -9.714,2.989c-4.649,0 -9.049,-2.407 -9.049,-7.555c-0,-5.977 4.649,-10.045 8.551,-12.37c2.989,-1.744 6.31,-2.989 9.713,-2.989Z" style="fill-rule:nonzero;"/><rect x="752.133" y="83.669" width="2.698" height="56.963"/><path d="M739.969,105.674c-0,0.83 -0.664,1.577 -1.495,1.577c-0.83,0 -1.577,-0.747 -1.577,-1.577l0,-12.038l-6.891,2.574l0,13.117c0,0.83 -0.747,1.577 -1.577,1.577c-0.83,0 -1.495,-0.747 -1.495,-1.577l0,-12.038l-2.656,0.996c-0.166,0.083 -0.415,0.083 -0.581,0.083c-0.914,0 -1.661,-0.747 -1.661,-1.66l0,-4.982c0,-0.664 0.415,-1.328 1.079,-1.577l3.819,-1.328l0,-13.284l-2.656,0.913c-0.166,0.083 -0.415,0.083 -0.581,0.083c-0.914,0 -1.661,-0.747 -1.661,-1.66l0,-4.981c0,-0.665 0.415,-1.246 1.079,-1.495l3.819,-1.411l0,-13.118c0,-0.83 0.665,-1.577 1.495,-1.577c0.83,-0 1.577,0.747 1.577,1.577l0,12.039l6.891,-2.574l0,-13.118c0,-0.83 0.747,-1.577 1.577,-1.577c0.831,-0 1.495,0.747 1.495,1.577l-0,12.039l2.657,-0.997c0.166,-0.083 0.415,-0.083 0.581,-0.083c0.913,0 1.66,0.747 1.66,1.661l0,4.981c0,0.664 -0.415,1.328 -1.079,1.577l-3.819,1.329l-0,13.283l2.657,-0.913c0.166,-0.083 0.415,-0.083 0.581,-0.083c0.913,0 1.66,0.747 1.66,1.66l0,4.982c0,0.664 -0.415,1.245 -1.079,1.494l-3.819,1.412l-0,13.117Zm-9.963,-31.299l0,13.283l6.891,-2.49l0,-13.284l-6.891,2.491Z" style="fill-rule:nonzero;"/><path d="M819.508,57.936c4.649,0 9.049,2.408 9.049,7.555c0,5.978 -4.649,10.046 -8.551,12.371c-2.989,1.743 -6.309,2.988 -9.713,2.988c-4.65,0 -9.05,-2.407 -9.05,-7.555c0,-5.977 4.649,-10.045 8.552,-12.37c2.988,-1.743 6.309,-2.989 9.713,-2.989Z" style="fill-rule:nonzero;"/><rect x="801.244" y="73.291" width="2.698" height="62.447"/><path d="M402.407,131.452l-0,8.303l-167.051,16.812l-0,-8.303l167.051,-16.812Z" style="fill-rule:nonzero;stroke:#000;stroke-width:1.66px;"/><path d="M803.112,131.452l0,8.303l-167.05,16.812l-0,-8.303l167.05,-16.812Z" style="fill-rule:nonzero;stroke:#000;stroke-width:1.66px;"/><path d="M1203.82,131.452l-0,8.303l-167.051,16.812l0,-8.303l167.051,-16.812Z" style="fill-rule:nonzero;stroke:#000;stroke-width:1.66px;"/><path d="M1604.52,131.452l-0,8.303l-167.051,16.812l-0,-8.303l167.051,-16.812Z" style="fill-rule:nonzero;stroke:#000;stroke-width:1.66px;"/><rect x="922.689" y="83.669" width="2.698" height="68.746"/><path d="M940.953,68.314c4.649,0 9.049,2.408 9.049,7.555c0,5.978 -4.649,10.046 -8.551,12.37c-2.989,1.744 -6.31,2.989 -9.714,2.989c-4.649,0 -9.049,-2.407 -9.049,-7.555c-0,-5.977 4.649,-10.045 8.551,-12.37c2.989,-1.744 6.31,-2.989 9.714,-2.989Z" style="fill-rule:nonzero;"/><rect x="850.356" y="83.669" width="2.698" height="68.746"/><path d="M868.62,68.314c4.649,0 9.049,2.408 9.049,7.555c0,5.978 -4.649,10.046 -8.551,12.37c-2.989,1.744 -6.31,2.989 -9.714,2.989c-4.649,0 -9.049,-2.407 -9.049,-7.555c-0,-5.977 4.649,-10.045 8.551,-12.37c2.989,-1.744 6.31,-2.989 9.714,-2.989Z" style="fill-rule:nonzero;"/><rect x="449.65" y="83.669" width="2.698" height="68.746"/><path d="M540.247,68.314c4.649,0 9.049,2.408 9.049,7.555c0,5.978 -4.649,10.046 -8.551,12.37c-2.989,1.744 -6.31,2.989 -9.713,2.989c-4.65,0 -9.05,-2.407 -9.05,-7.555c0,-5.977 4.649,-10.045 8.551,-12.37c2.989,-1.744 6.31,-2.989 9.714,-2.989Z" style="fill-rule:nonzero;"/><rect x="521.983" y="83.669" width="2.698" height="68.746"/><path d="M653.495,89.07c4.649,-0 9.05,2.407 9.05,7.555c-0,5.977 -4.65,10.045 -8.552,12.37c-2.988,1.743 -6.309,2.989 -9.713,2.989c-4.649,-0 -9.05,-2.408 -9.05,-7.555c0,-5.978 4.65,-10.046 8.552,-12.371c2.988,-1.743 6.309,-2.988 9.713,-2.988Z" style="fill-rule:nonzero;"/><path d="M653.08,298.783c-4.151,0 -5.728,3.57 -5.728,7.306c-0,6.393 4.732,11.291 11.125,11.291c4.151,0 5.728,-3.57 5.728,-7.306c0,-6.393 -4.732,-11.291 -11.125,-11.291Zm23.246,9.299c0,3.57 -2.905,6.309 -6.06,8.053c-4.4,2.49 -9.382,3.404 -14.446,3.404c-5.064,-0 -10.129,-0.914 -14.529,-3.404c-3.155,-1.744 -6.061,-4.483 -6.061,-8.053c0,-3.57 2.906,-6.31 6.061,-8.053c4.4,-2.491 9.465,-3.404 14.529,-3.404c5.064,-0 10.046,0.913 14.446,3.404c3.155,1.743 6.06,4.483 6.06,8.053Z" style="fill-rule:nonzero;"/><path d="M653.08,278.028c-4.151,-0 -5.728,3.57 -5.728,7.306c-0,6.392 4.732,11.291 11.125,11.291c4.151,-0 5.728,-3.57 5.728,-7.306c0,-6.393 -4.732,-11.291 -11.125,-11.291Zm23.246,9.298c0,3.57 -2.905,6.31 -6.06,8.053c-4.4,2.491 -9.382,3.404 -14.446,3.404c-5.064,0 -10.129,-0.913 -14.529,-3.404c-3.155,-1.743 -6.061,-4.483 -6.061,-8.053c0,-3.57 2.906,-6.31 6.061,-8.053c4.4,-2.491 9.465,-3.404 14.529,-3.404c5.064,0 10.046,0.913 14.446,3.404c3.155,1.743 6.06,4.483 6.06,8.053Z" style="fill-rule:nonzero;"/><path d="M653.08,257.272c-4.151,0 -5.728,3.57 -5.728,7.306c-0,6.393 4.732,11.291 11.125,11.291c4.151,0 5.728,-3.57 5.728,-7.306c0,-6.393 -4.732,-11.291 -11.125,-11.291Zm23.246,9.299c0,3.57 -2.905,6.309 -6.06,8.053c-4.4,2.49 -9.382,3.404 -14.446,3.404c-5.064,-0 -10.129,-0.914 -14.529,-3.404c-3.155,-1.744 -6.061,-4.483 -6.061,-8.053c0,-3.57 2.906,-6.31 6.061,-8.053c4.4,-2.491 9.465,-3.404 14.529,-3.404c5.064,-0 10.046,0.913 14.446,3.404c3.155,1.743 6.06,4.483 6.06,8.053Z" style="fill-rule:nonzero;"/><rect x="635.231" y="104.425" width="2.698" height="47.856"/><path d="M623.068,313.229c-0,0.83 -0.665,1.577 -1.495,1.577c-0.83,0 -1.577,-0.747 -1.577,-1.577l-0,-12.038l-6.891,2.574l0,13.117c0,0.83 -0.747,1.577 -1.577,1.577c-0.831,0 -1.495,-0.747 -1.495,-1.577l0,-12.038l-2.656,0.996c-0.167,0.083 -0.416,0.083 -0.582,0.083c-0.913,0 -1.66,-0.747 -1.66,-1.66l-0,-4.982c-0,-0.664 0.415,-1.328 1.079,-1.577l3.819,-1.328l0,-13.284l-2.656,0.913c-0.167,0.083 -0.416,0.083 -0.582,0.083c-0.913,0 -1.66,-0.747 -1.66,-1.66l-0,-4.981c-0,-0.665 0.415,-1.246 1.079,-1.495l3.819,-1.411l0,-13.118c0,-0.83 0.664,-1.577 1.495,-1.577c0.83,-0 1.577,0.747 1.577,1.577l0,12.038l6.891,-2.573l-0,-13.118c-0,-0.83 0.747,-1.577 1.577,-1.577c0.83,-0 1.495,0.747 1.495,1.577l-0,12.039l2.656,-0.997c0.166,-0.083 0.415,-0.083 0.582,-0.083c0.913,0 1.66,0.747 1.66,1.661l-0,4.981c-0,0.664 -0.415,1.328 -1.079,1.577l-3.819,1.329l-0,13.283l2.656,-0.913c0.166,-0.083 0.415,-0.083 0.582,-0.083c0.913,0 1.66,0.747 1.66,1.66l-0,4.982c-0,0.664 -0.415,1.245 -1.079,1.494l-3.819,1.412l-0,13.117Zm-9.963,-31.299l0,13.283l6.891,-2.49l-0,-13.284l-6.891,2.491Z" style="fill-rule:nonzero;"/><rect x="1035.94" y="104.425" width="2.698" height="47.856"/><path d="M1053.79,257.272c-4.151,0 -5.729,3.57 -5.729,7.306c0,6.393 4.733,11.291 11.125,11.291c4.151,0 5.729,-3.57 5.729,-7.306c-0,-6.393 -4.733,-11.291 -11.125,-11.291Zm23.246,9.299c-0,3.57 -2.906,6.309 -6.061,8.053c-4.4,2.49 -9.381,3.404 -14.446,3.404c-5.064,-0 -10.128,-0.914 -14.528,-3.404c-3.155,-1.744 -6.061,-4.483 -6.061,-8.053c0,-3.57 2.906,-6.31 6.061,-8.053c4.4,-2.491 9.464,-3.404 14.528,-3.404c5.065,-0 10.046,0.913 14.446,3.404c3.155,1.743 6.061,4.483 6.061,8.053Z" style="fill-rule:nonzero;"/><path d="M1053.79,278.028c-4.151,-0 -5.729,3.57 -5.729,7.306c0,6.392 4.733,11.291 11.125,11.291c4.151,-0 5.729,-3.57 5.729,-7.306c-0,-6.393 -4.733,-11.291 -11.125,-11.291Zm23.246,9.298c-0,3.57 -2.906,6.31 -6.061,8.053c-4.4,2.491 -9.381,3.404 -14.446,3.404c-5.064,0 -10.128,-0.913 -14.528,-3.404c-3.155,-1.743 -6.061,-4.483 -6.061,-8.053c0,-3.57 2.906,-6.31 6.061,-8.053c4.4,-2.491 9.464,-3.404 14.528,-3.404c5.065,0 10.046,0.913 14.446,3.404c3.155,1.743 6.061,4.483 6.061,8.053Z" style="fill-rule:nonzero;"/><path d="M1053.79,298.783c-4.151,0 -5.729,3.57 -5.729,7.306c0,6.393 4.733,11.291 11.125,11.291c4.151,0 5.729,-3.57 5.729,-7.306c-0,-6.393 -4.733,-11.291 -11.125,-11.291Zm23.246,9.299c-0,3.57 -2.906,6.309 -6.061,8.053c-4.4,2.49 -9.381,3.404 -14.446,3.404c-5.064,-0 -10.128,-0.914 -14.528,-3.404c-3.155,-1.744 -6.061,-4.483 -6.061,-8.053c0,-3.57 2.906,-6.31 6.061,-8.053c4.4,-2.491 9.464,-3.404 14.528,-3.404c5.065,-0 10.046,0.913 14.446,3.404c3.155,1.743 6.061,4.483 6.061,8.053Z" style="fill-rule:nonzero;"/><path d="M1054.2,89.07c4.649,-0 9.049,2.407 9.049,7.555c0,5.977 -4.649,10.045 -8.551,12.37c-2.989,1.743 -6.31,2.989 -9.714,2.989c-4.649,-0 -9.049,-2.408 -9.049,-7.555c0,-5.978 4.649,-10.046 8.551,-12.371c2.989,-1.743 6.31,-2.988 9.714,-2.988Z" style="fill-rule:nonzero;"/><rect x="1085.05" y="94.047" width="2.698" height="53.34"/><path d="M1103.31,78.692c4.649,-0 9.049,2.408 9.049,7.555c-0,5.977 -4.649,10.046 -8.551,12.37c-2.989,1.744 -6.31,2.989 -9.714,2.989c-4.649,-0 -9.049,-2.408 -9.049,-7.555c-0,-5.978 4.649,-10.046 8.551,-12.37c2.989,-1.744 6.31,-2.989 9.714,-2.989Z" style="fill-rule:nonzero;"/><path d="M1023.77,313.229c0,0.83 -0.664,1.577 -1.494,1.577c-0.83,0 -1.577,-0.747 -1.577,-1.577l-0,-12.038l-6.891,2.574l-0,13.117c-0,0.83 -0.748,1.577 -1.578,1.577c-0.83,0 -1.494,-0.747 -1.494,-1.577l-0,-12.038l-2.657,0.996c-0.166,0.083 -0.415,0.083 -0.581,0.083c-0.913,0 -1.66,-0.747 -1.66,-1.66l-0,-4.982c-0,-0.664 0.415,-1.328 1.079,-1.577l3.819,-1.328l-0,-13.284l-2.657,0.913c-0.166,0.083 -0.415,0.083 -0.581,0.083c-0.913,0 -1.66,-0.747 -1.66,-1.66l-0,-4.981c-0,-0.665 0.415,-1.246 1.079,-1.495l3.819,-1.411l-0,-13.118c-0,-0.83 0.664,-1.577 1.494,-1.577c0.83,-0 1.578,0.747 1.578,1.577l-0,12.038l6.891,-2.573l-0,-13.118c-0,-0.83 0.747,-1.577 1.577,-1.577c0.83,-0 1.494,0.747 1.494,1.577l0,12.039l2.657,-0.997c0.166,-0.083 0.415,-0.083 0.581,-0.083c0.913,0 1.661,0.747 1.661,1.661l-0,4.981c-0,0.664 -0.415,1.328 -1.08,1.577l-3.819,1.329l0,13.283l2.657,-0.913c0.166,-0.083 0.415,-0.083 0.581,-0.083c0.913,0 1.661,0.747 1.661,1.66l-0,4.982c-0,0.664 -0.415,1.245 -1.08,1.494l-3.819,1.412l0,13.117Zm-9.962,-31.299l-0,13.283l6.891,-2.49l-0,-13.284l-6.891,2.491Z" style="fill-rule:nonzero;"/><path d="M167.817,274.707c-4.069,-0 -6.227,-3.487 -6.227,-6.227c-0,-3.155 2.242,-6.393 5.978,-6.393c0.332,0 0.747,0 1.162,0.083c-2.325,-3.071 -5.978,-4.898 -9.963,-4.898c-8.8,0 -9.381,6.061 -9.381,15.442l-0,8.469c-0,9.381 0.581,15.525 9.381,15.525c6.642,-0 11.54,-5.812 13.118,-12.537c0.166,-0.581 0.581,-0.83 0.996,-0.83c0.498,0 1.079,0.332 1.079,0.996c0,7.804 -8.717,14.446 -15.193,14.446c-5.645,0 -11.374,-1.743 -15.276,-5.811c-4.068,-4.234 -5.479,-10.129 -5.479,-16.024c-0,-5.894 1.411,-11.789 5.479,-16.023c3.902,-4.068 9.631,-5.728 15.276,-5.728c7.223,-0 13.284,5.313 14.529,12.453c0.083,0.415 0.083,0.747 0.083,1.079c0,3.321 -2.491,5.978 -5.562,5.978Z" style="fill-rule:nonzero;"/><path d="M97.082,266.571c-0,-2.325 1.909,-4.234 4.234,-4.234c2.325,-0 4.234,1.909 4.234,4.234c0,2.324 -1.909,4.234 -4.234,4.234c-2.325,-0 -4.234,-1.91 -4.234,-4.234Zm-0,-20.756c-0,-2.324 1.909,-4.234 4.234,-4.234c2.325,0 4.234,1.91 4.234,4.234c0,2.325 -1.909,4.234 -4.234,4.234c-2.325,0 -4.234,-1.909 -4.234,-4.234Zm-26.982,-11.457c14.279,0 24.325,7.306 24.325,20.839c0,21.834 -21.835,34.371 -42.839,43.254c-0.249,0.249 -0.498,0.332 -0.747,0.332c-0.582,0 -1.08,-0.498 -1.08,-1.079c0,-0.249 0.083,-0.498 0.332,-0.747c16.771,-9.797 34.205,-22.001 34.205,-40.93c0,-9.963 -5.23,-19.51 -14.196,-19.51c-6.144,-0 -10.71,4.483 -12.786,10.46c0.914,-0.415 1.827,-0.664 2.823,-0.664c4.566,0 8.302,3.736 8.302,8.302c0,4.816 -3.653,8.801 -8.302,8.801c-4.981,-0 -9.298,-3.902 -9.298,-8.801c-0,-11.041 8.468,-20.257 19.261,-20.257Z" style="fill-rule:nonzero;"/><path d="M252.374,257.272c-4.151,0 -5.728,3.57 -5.728,7.306c-0,6.393 4.732,11.291 11.125,11.291c4.151,0 5.728,-3.57 5.728,-7.306c0,-6.393 -4.732,-11.291 -11.125,-11.291Zm23.247,9.299c-0,3.57 -2.906,6.309 -6.061,8.053c-4.4,2.49 -9.381,3.404 -14.446,3.404c-5.064,-0 -10.128,-0.914 -14.529,-3.404c-3.154,-1.744 -6.06,-4.483 -6.06,-8.053c-0,-3.57 2.906,-6.31 6.06,-8.053c4.401,-2.491 9.465,-3.404 14.529,-3.404c5.065,-0 10.046,0.913 14.446,3.404c3.155,1.743 6.061,4.483 6.061,8.053Z" style="fill-rule:nonzero;"/><path d="M252.374,278.028c-4.151,-0 -5.728,3.57 -5.728,7.306c-0,6.392 4.732,11.291 11.125,11.291c4.151,-0 5.728,-3.57 5.728,-7.306c0,-6.393 -4.732,-11.291 -11.125,-11.291Zm23.247,9.298c-0,3.57 -2.906,6.31 -6.061,8.053c-4.4,2.491 -9.381,3.404 -14.446,3.404c-5.064,0 -10.128,-0.913 -14.529,-3.404c-3.154,-1.743 -6.06,-4.483 -6.06,-8.053c-0,-3.57 2.906,-6.31 6.06,-8.053c4.401,-2.491 9.465,-3.404 14.529,-3.404c5.065,0 10.046,0.913 14.446,3.404c3.155,1.743 6.061,4.483 6.061,8.053Z" style="fill-rule:nonzero;"/><path d="M252.374,298.783c-4.151,0 -5.728,3.57 -5.728,7.306c-0,6.393 4.732,11.291 11.125,11.291c4.151,0 5.728,-3.57 5.728,-7.306c0,-6.393 -4.732,-11.291 -11.125,-11.291Zm23.247,9.299c-0,3.57 -2.906,6.309 -6.061,8.053c-4.4,2.49 -9.381,3.404 -14.446,3.404c-5.064,-0 -10.128,-0.914 -14.529,-3.404c-3.154,-1.744 -6.06,-4.483 -6.06,-8.053c-0,-3.57 2.906,-6.31 6.06,-8.053c4.401,-2.491 9.465,-3.404 14.529,-3.404c5.065,-0 10.046,0.913 14.446,3.404c3.155,1.743 6.061,4.483 6.061,8.053Z" style="fill-rule:nonzero;"/><path d="M167.817,87.907c-4.069,0 -6.227,-3.487 -6.227,-6.226c-0,-3.155 2.242,-6.393 5.978,-6.393c0.332,-0 0.747,-0 1.162,0.083c-2.325,-3.072 -5.978,-4.898 -9.963,-4.898c-8.8,-0 -9.381,6.06 -9.381,15.442l-0,8.468c-0,9.382 0.581,15.525 9.381,15.525c6.642,0 11.54,-5.811 13.118,-12.536c0.166,-0.581 0.581,-0.83 0.996,-0.83c0.498,-0 1.079,0.332 1.079,0.996c0,7.804 -8.717,14.446 -15.193,14.446c-5.645,-0 -11.374,-1.744 -15.276,-5.812c-4.068,-4.234 -5.479,-10.129 -5.479,-16.023c-0,-5.895 1.411,-11.789 5.479,-16.023c3.902,-4.068 9.631,-5.729 15.276,-5.729c7.223,0 13.284,5.314 14.529,12.453c0.083,0.416 0.083,0.748 0.083,1.08c0,3.321 -2.491,5.977 -5.562,5.977Z" style="fill-rule:nonzero;"/><path d="M82.055,89.153c0.332,-0 0.747,-0.083 1.079,-0.083c12.869,-0 21.254,10.626 21.254,21.668c-0,6.31 -2.74,12.786 -8.884,17.435c-1.826,1.411 -3.902,2.325 -6.06,2.989c0.249,2.906 0.415,5.811 0.415,8.717c-0,1.578 -0.083,3.238 -0.166,4.815c-0.581,9.963 -7.472,18.929 -17.269,18.929c-8.966,0 -16.189,-7.306 -16.189,-16.355c0,-4.815 4.4,-8.551 9.298,-8.551c4.484,-0 7.888,3.902 7.888,8.551c-0,4.317 -3.57,7.887 -7.888,7.887c-0.913,0 -1.743,-0.166 -2.573,-0.498c2.158,3.238 5.645,5.396 9.713,5.396c7.97,0 13.035,-7.638 13.533,-15.857c0.083,-1.494 0.166,-3.072 0.166,-4.566c-0,-2.574 -0.083,-5.064 -0.332,-7.638c-2.408,0.415 -4.815,0.664 -7.389,0.664c-15.608,0 -27.646,-14.28 -27.646,-31.05c-0,-14.695 10.876,-25.405 20.589,-36.613c-1.577,-5.147 -3.072,-10.377 -3.736,-15.774c-0.498,-4.317 -0.581,-8.634 -0.581,-12.951c-0,-9.548 4.566,-18.597 12.37,-24.243c0.249,-0.166 0.581,-0.249 0.83,-0.249c0.333,0 0.582,0 0.831,0.249c5.894,6.974 11.042,20.341 11.042,29.722c-0,11.872 -7.14,21.171 -14.944,30.22c1.743,5.646 3.237,11.457 4.649,17.186Zm7.057,38.605c5.645,-1.993 9.381,-7.887 9.381,-13.616c0,-7.472 -5.479,-14.861 -14.363,-15.774c1.993,9.631 3.819,19.178 4.982,29.39Zm-32.13,-19.178c0,11.208 10.71,20.506 21.918,20.506c2.325,0 4.566,-0.166 6.808,-0.498c-1.162,-10.544 -3.072,-20.34 -5.231,-30.22c-6.558,0.664 -10.294,5.064 -10.294,9.88c-0,3.653 2.075,7.555 6.724,10.211c0.416,0.416 0.582,0.831 0.582,1.246c-0,0.913 -0.831,1.826 -1.827,1.826c-0.249,0 -0.498,-0.083 -0.747,-0.166c-6.642,-3.57 -9.714,-9.547 -9.714,-15.359c0,-7.306 4.816,-14.446 13.284,-16.355c-1.162,-4.815 -2.408,-9.714 -3.819,-14.529c-8.883,10.046 -17.684,20.174 -17.684,33.458Zm27.73,-84.434c-8.22,3.986 -13.45,12.371 -13.45,21.503c-0,6.144 1.494,11.042 2.989,16.106c6.642,-8.053 12.121,-16.438 12.121,-26.899c-0,-4.566 -0.332,-6.558 -1.66,-10.71Z" style="fill-rule:nonzero;"/><path d="M252.79,89.07c4.649,-0 9.049,2.407 9.049,7.555c-0,5.977 -4.649,10.045 -8.551,12.37c-2.989,1.743 -6.31,2.989 -9.714,2.989c-4.649,-0 -9.049,-2.408 -9.049,-7.555c-0,-5.978 4.649,-10.046 8.551,-12.371c2.989,-1.743 6.31,-2.988 9.714,-2.988Z" style="fill-rule:nonzero;"/><rect x="32.99" y="47.6" width="3.321" height="271.897"/><path d="M25.517,224.894c-0,21.668 -8.468,42.839 -8.468,63.511c-0,11.208 2.49,21.669 10.709,29.888c0.25,0.249 0.25,0.748 0.25,0.997c-0,0.747 -0.499,1.494 -1.246,1.494c-0.249,0 -0.747,-0.249 -0.996,-0.498c-10.959,-11.208 -14.695,-25.903 -14.695,-41.594c0,-22.167 8.966,-43.836 8.966,-64.757c0,-11.208 -2.739,-21.669 -10.709,-29.888c-0.249,-0.249 -0.249,-0.249 -0.249,-0.498c-0,-0.249 -0,-0.249 0.249,-0.498c7.97,-8.22 10.709,-18.68 10.709,-29.888c0,-20.922 -8.966,-42.591 -8.966,-64.758c0,-15.691 3.736,-30.386 14.695,-41.594c0.249,-0.249 0.747,-0.498 0.996,-0.498c0.747,0 1.246,0.748 1.246,1.495c-0,0.249 -0,0.747 -0.25,0.996c-8.219,8.219 -10.709,18.68 -10.709,29.888c-0,20.672 8.468,41.843 8.468,63.512c-0,15.442 -3.736,30.137 -14.446,41.345c10.71,11.208 14.446,25.903 14.446,41.345Z" style="fill-rule:nonzero;"/><path d="M222.362,313.229c0,0.83 -0.664,1.577 -1.494,1.577c-0.831,0 -1.578,-0.747 -1.578,-1.577l0,-12.038l-6.891,2.574l0,13.117c0,0.83 -0.747,1.577 -1.577,1.577c-0.83,0 -1.494,-0.747 -1.494,-1.577l-0,-12.038l-2.657,0.996c-0.166,0.083 -0.415,0.083 -0.581,0.083c-0.914,0 -1.661,-0.747 -1.661,-1.66l0,-4.982c0,-0.664 0.415,-1.328 1.08,-1.577l3.819,-1.328l-0,-13.284l-2.657,0.913c-0.166,0.083 -0.415,0.083 -0.581,0.083c-0.914,0 -1.661,-0.747 -1.661,-1.66l0,-4.981c0,-0.665 0.415,-1.246 1.08,-1.495l3.819,-1.411l-0,-13.118c-0,-0.83 0.664,-1.577 1.494,-1.577c0.83,-0 1.577,0.747 1.577,1.577l0,12.038l6.891,-2.573l0,-13.118c0,-0.83 0.747,-1.577 1.578,-1.577c0.83,-0 1.494,0.747 1.494,1.577l0,12.039l2.657,-0.997c0.166,-0.083 0.415,-0.083 0.581,-0.083c0.913,0 1.66,0.747 1.66,1.661l0,4.981c0,0.664 -0.415,1.328 -1.079,1.577l-3.819,1.329l0,13.283l2.657,-0.913c0.166,-0.083 0.415,-0.083 0.581,-0.083c0.913,0 1.66,0.747 1.66,1.66l0,4.982c0,0.664 -0.415,1.245 -1.079,1.494l-3.819,1.412l0,13.117Zm-9.963,-31.299l0,13.283l6.891,-2.49l0,-13.284l-6.891,2.491Z" style="fill-rule:nonzero;"/><rect x="234.526" y="104.425" width="2.698" height="47.856"/><text x="-5.45px" y="26.845px" style="font-family:'LucidaGrande', 'Lucida Grande', sans-serif;font-weight:500;font-size:36.241px;">12</text><path d="M1341.66,68.314c4.65,0 9.05,2.408 9.05,7.555c-0,5.978 -4.65,10.046 -8.552,12.37c-2.988,1.744 -6.309,2.989 -9.713,2.989c-4.649,0 -9.05,-2.407 -9.05,-7.555c0,-5.977 4.65,-10.045 8.552,-12.37c2.989,-1.744 6.309,-2.989 9.713,-2.989Z" style="fill-rule:nonzero;"/><rect x="1323.39" y="83.669" width="2.698" height="68.746"/><path d="M1454.91,89.07c4.649,-0 9.049,2.407 9.049,7.555c-0,5.977 -4.649,10.045 -8.551,12.37c-2.989,1.743 -6.31,2.989 -9.714,2.989c-4.649,-0 -9.049,-2.408 -9.049,-7.555c-0,-5.978 4.649,-10.046 8.551,-12.371c2.989,-1.743 6.31,-2.988 9.714,-2.988Z" style="fill-rule:nonzero;"/><path d="M1454.49,298.783c-4.151,0 -5.728,3.57 -5.728,7.306c-0,6.393 4.732,11.291 11.125,11.291c4.151,0 5.728,-3.57 5.728,-7.306c0,-6.393 -4.732,-11.291 -11.125,-11.291Zm23.247,9.299c-0,3.57 -2.906,6.309 -6.061,8.053c-4.4,2.49 -9.382,3.404 -14.446,3.404c-5.064,-0 -10.129,-0.914 -14.529,-3.404c-3.155,-1.744 -6.06,-4.483 -6.06,-8.053c-0,-3.57 2.905,-6.31 6.06,-8.053c4.4,-2.491 9.465,-3.404 14.529,-3.404c5.064,-0 10.046,0.913 14.446,3.404c3.155,1.743 6.061,4.483 6.061,8.053Z" style="fill-rule:nonzero;"/><path d="M1454.49,278.028c-4.151,-0 -5.728,3.57 -5.728,7.306c-0,6.392 4.732,11.291 11.125,11.291c4.151,-0 5.728,-3.57 5.728,-7.306c0,-6.393 -4.732,-11.291 -11.125,-11.291Zm23.247,9.298c-0,3.57 -2.906,6.31 -6.061,8.053c-4.4,2.491 -9.382,3.404 -14.446,3.404c-5.064,0 -10.129,-0.913 -14.529,-3.404c-3.155,-1.743 -6.06,-4.483 -6.06,-8.053c-0,-3.57 2.905,-6.31 6.06,-8.053c4.4,-2.491 9.465,-3.404 14.529,-3.404c5.064,0 10.046,0.913 14.446,3.404c3.155,1.743 6.061,4.483 6.061,8.053Z" style="fill-rule:nonzero;"/><path d="M1454.49,257.272c-4.151,0 -5.728,3.57 -5.728,7.306c-0,6.393 4.732,11.291 11.125,11.291c4.151,0 5.728,-3.57 5.728,-7.306c0,-6.393 -4.732,-11.291 -11.125,-11.291Zm23.247,9.299c-0,3.57 -2.906,6.309 -6.061,8.053c-4.4,2.49 -9.382,3.404 -14.446,3.404c-5.064,-0 -10.129,-0.914 -14.529,-3.404c-3.155,-1.744 -6.06,-4.483 -6.06,-8.053c-0,-3.57 2.905,-6.31 6.06,-8.053c4.4,-2.491 9.465,-3.404 14.529,-3.404c5.064,-0 10.046,0.913 14.446,3.404c3.155,1.743 6.061,4.483 6.061,8.053Z" style="fill-rule:nonzero;"/><rect x="1436.64" y="104.425" width="2.698" height="47.856"/><path d="M1424.48,313.229c-0,0.83 -0.664,1.577 -1.494,1.577c-0.831,0 -1.578,-0.747 -1.578,-1.577l0,-12.038l-6.891,2.574l0,13.117c0,0.83 -0.747,1.577 -1.577,1.577c-0.83,0 -1.494,-0.747 -1.494,-1.577l-0,-12.038l-2.657,0.996c-0.166,0.083 -0.415,0.083 -0.581,0.083c-0.914,0 -1.661,-0.747 -1.661,-1.66l0,-4.982c0,-0.664 0.415,-1.328 1.08,-1.577l3.819,-1.328l-0,-13.284l-2.657,0.913c-0.166,0.083 -0.415,0.083 -0.581,0.083c-0.914,0 -1.661,-0.747 -1.661,-1.66l0,-4.981c0,-0.665 0.415,-1.246 1.08,-1.495l3.819,-1.411l-0,-13.118c-0,-0.83 0.664,-1.577 1.494,-1.577c0.83,-0 1.577,0.747 1.577,1.577l0,12.038l6.891,-2.573l0,-13.118c0,-0.83 0.747,-1.577 1.578,-1.577c0.83,-0 1.494,0.747 1.494,1.577l-0,12.039l2.657,-0.997c0.166,-0.083 0.415,-0.083 0.581,-0.083c0.913,0 1.66,0.747 1.66,1.661l0,4.981c0,0.664 -0.415,1.328 -1.079,1.577l-3.819,1.329l-0,13.283l2.657,-0.913c0.166,-0.083 0.415,-0.083 0.581,-0.083c0.913,0 1.66,0.747 1.66,1.66l0,4.982c0,0.664 -0.415,1.245 -1.079,1.494l-3.819,1.412l-0,13.117Zm-9.963,-31.299l0,13.283l6.891,-2.49l0,-13.284l-6.891,2.491Z" style="fill-rule:nonzero;"/><path d="M1504.02,78.692c4.649,-0 9.05,2.408 9.05,7.555c-0,5.977 -4.65,10.046 -8.552,12.37c-2.988,1.744 -6.309,2.989 -9.713,2.989c-4.649,-0 -9.05,-2.408 -9.05,-7.555c0,-5.978 4.65,-10.046 8.552,-12.37c2.988,-1.744 6.309,-2.989 9.713,-2.989Z" style="fill-rule:nonzero;"/><rect x="1485.75" y="94.047" width="2.698" height="53.34"/><path d="M1140.67,105.674c-0,0.83 -0.665,1.577 -1.495,1.577c-0.83,0 -1.577,-0.747 -1.577,-1.577l-0,-12.038l-6.891,2.574l-0,13.117c-0,0.83 -0.747,1.577 -1.578,1.577c-0.83,0 -1.494,-0.747 -1.494,-1.577l0,-12.038l-2.657,0.996c-0.166,0.083 -0.415,0.083 -0.581,0.083c-0.913,0 -1.66,-0.747 -1.66,-1.66l-0,-4.982c-0,-0.664 0.415,-1.328 1.079,-1.577l3.819,-1.328l0,-13.284l-2.657,0.913c-0.166,0.083 -0.415,0.083 -0.581,0.083c-0.913,0 -1.66,-0.747 -1.66,-1.66l-0,-4.981c-0,-0.665 0.415,-1.246 1.079,-1.495l3.819,-1.411l0,-13.118c0,-0.83 0.664,-1.577 1.494,-1.577c0.831,-0 1.578,0.747 1.578,1.577l-0,12.039l6.891,-2.574l-0,-13.118c-0,-0.83 0.747,-1.577 1.577,-1.577c0.83,-0 1.495,0.747 1.495,1.577l-0,12.039l2.656,-0.997c0.166,-0.083 0.415,-0.083 0.581,-0.083c0.914,0 1.661,0.747 1.661,1.661l-0,4.981c-0,0.664 -0.415,1.328 -1.079,1.577l-3.819,1.329l-0,13.283l2.656,-0.913c0.166,-0.083 0.415,-0.083 0.581,-0.083c0.914,0 1.661,0.747 1.661,1.66l-0,4.982c-0,0.664 -0.415,1.245 -1.079,1.494l-3.819,1.412l-0,13.117Zm-9.963,-31.299l-0,13.283l6.891,-2.49l-0,-13.284l-6.891,2.491Z" style="fill-rule:nonzero;"/><path d="M1220.21,57.936c4.649,0 9.049,2.408 9.049,7.555c0,5.978 -4.649,10.046 -8.551,12.371c-2.989,1.743 -6.31,2.988 -9.714,2.988c-4.649,0 -9.049,-2.407 -9.049,-7.555c-0,-5.977 4.649,-10.045 8.551,-12.37c2.989,-1.743 6.31,-2.989 9.714,-2.989Z" style="fill-rule:nonzero;"/><rect x="1201.95" y="73.291" width="2.698" height="62.447"/><rect x="1251.06" y="83.669" width="2.698" height="68.746"/><path d="M1269.33,68.314c4.65,0 9.05,2.408 9.05,7.555c-0,5.978 -4.649,10.046 -8.551,12.37c-2.989,1.744 -6.31,2.989 -9.714,2.989c-4.649,0 -9.049,-2.407 -9.049,-7.555c-0,-5.977 4.649,-10.045 8.551,-12.37c2.989,-1.744 6.309,-2.989 9.713,-2.989Z" style="fill-rule:nonzero;"/><path d="M1171.1,68.314c4.649,0 9.049,2.408 9.049,7.555c0,5.978 -4.649,10.046 -8.551,12.37c-2.989,1.744 -6.309,2.989 -9.713,2.989c-4.65,0 -9.05,-2.407 -9.05,-7.555c0,-5.977 4.649,-10.045 8.551,-12.37c2.989,-1.744 6.31,-2.989 9.714,-2.989Z" style="fill-rule:nonzero;"/><rect x="1152.84" y="83.669" width="2.698" height="56.963"/></svg>