<?xml version="1.0" encoding="UTF-8" standalone="no"?><!DOCTYPE svg PUBLIC "-//W3C//DTD SVG 1.1//EN" "http://www.w3.org/Graphics/SVG/1.1/DTD/svg11.dtd"><svg width="100%" height="100%" viewBox="0 0 3212 354" version="1.1" xmlns="http://www.w3.org/2000/svg" xmlns:xlink="http://www.w3.org/1999/xlink" xml:space="preserve" xmlns:serif="http://www.serif.com/" style="fill-rule:evenodd;clip-rule:evenodd;stroke-linecap:round;stroke-linejoin:round;"><rect x="2458.83" y="81.38" width="3.944" height="84.06"/><rect x="954.855" y="81.38" width="3.944" height="84.06"/><rect x="2458.83" y="267.142" width="3.944" height="84.06"/><rect x="1704.74" y="165.442" width="3.944" height="102.74"/><rect x="2458.83" y="165.442" width="3.944" height="102.74"/><rect x="3207.46" y="165.442" width="3.944" height="102.74"/><rect x="1704.74" y="267.142" width="3.944" height="84.06"/><rect x="214.205" y="58.549" width="40.978" height="4.151"/><rect x="214.205" y="37.794" width="40.978" height="4.151"/><rect x="305.988" y="58.549" width="40.978" height="4.151"/><rect x="673.113" y="58.549" width="40.978" height="4.151"/><rect x="721.324" y="58.549" width="40.961" height="4.151"/><rect x="764.361" y="58.549" width="40.961" height="4.151"/><rect x="1718.18" y="58.549" width="40.978" height="4.151"/><rect x="1718.18" y="37.794" width="40.978" height="4.151"/><rect x="1809.96" y="58.549" width="40.978" height="4.151"/><rect x="2177.08" y="58.549" width="40.978" height="4.151"/><rect x="2225.29" y="58.549" width="40.961" height="4.151"/><rect x="2268.33" y="58.549" width="40.961" height="4.151"/><path d="M35.274,164.402l3175.09,0" style="fill:none;fill-rule:nonzero;stroke:#000;stroke-width:2.08px;"/><path d="M35.274,143.647l3175.09,-0" style="fill:none;fill-rule:nonzero;stroke:#000;stroke-width:2.08px;"/><path d="M35.274,122.891l3175.09,0" style="fill:none;fill-rule:nonzero;stroke:#000;stroke-width:2.08px;"/><path d="M35.274,102.136l3175.09,-0" style="fill:none;fill-rule:nonzero;stroke:#000;stroke-width:2.08px;"/><path d="M35.274,81.38l3175.09,0" style="fill:none;fill-rule:nonzero;stroke:#000;stroke-width:2.08px;"/><rect x="265.01" y="245.349" width="40.978" height="4.151"/><rect x="356.793" y="245.349" width="40.978" height="4.151"/><rect x="448.574" y="245.349" width="40.978" height="4.151"/><rect x="540.355" y="245.349" width="40.978" height="4.151"/><rect x="632.138" y="245.349" width="40.978" height="4.151"/><rect x="721.324" y="245.349" width="40.978" height="4.151"/><rect x="815.149" y="245.349" width="40.978" height="4.151"/><rect x="906.932" y="245.349" width="40.978" height="4.151"/><rect x="969.203" y="245.349" width="40.978" height="4.151"/><rect x="1014.82" y="245.349" width="40.978" height="4.151"/><rect x="1106.6" y="245.349" width="40.978" height="4.151"/><rect x="1200.36" y="245.349" width="40.978" height="4.151"/><rect x="1292.14" y="245.349" width="40.978" height="4.151"/><rect x="1337.76" y="245.349" width="40.978" height="4.151"/><rect x="1383.37" y="245.349" width="40.978" height="4.151"/><rect x="1475.15" y="245.349" width="40.978" height="4.151"/><rect x="1520.77" y="245.349" width="40.978" height="4.151"/><rect x="1566.39" y="245.349" width="40.978" height="4.151"/><rect x="1657.49" y="245.349" width="40.978" height="4.151"/><rect x="1768.98" y="245.349" width="40.978" height="4.151"/><rect x="1860.76" y="245.349" width="40.978" height="4.151"/><rect x="1952.54" y="245.349" width="40.978" height="4.151"/><rect x="2044.33" y="245.349" width="40.978" height="4.151"/><rect x="2136.11" y="245.349" width="40.978" height="4.151"/><rect x="2225.29" y="245.349" width="40.978" height="4.151"/><rect x="2319.12" y="245.349" width="40.978" height="4.151"/><rect x="2410.9" y="245.349" width="40.978" height="4.151"/><rect x="2473.17" y="245.349" width="40.978" height="4.151"/><rect x="2518.79" y="245.349" width="40.978" height="4.151"/><rect x="2610.57" y="245.349" width="40.978" height="4.151"/><rect x="2704.33" y="245.349" width="40.978" height="4.151"/><rect x="2796.11" y="245.349" width="40.978" height="4.151"/><rect x="2841.73" y="245.349" width="40.978" height="4.151"/><rect x="2887.35" y="245.349" width="40.978" height="4.151"/><rect x="2979.13" y="245.349" width="40.978" height="4.151"/><rect x="3024.74" y="245.349" width="40.978" height="4.151"/><rect x="3070.36" y="245.349" width="40.978" height="4.151"/><rect x="3161.46" y="245.349" width="40.978" height="4.151"/><path d="M35.274,351.202l3175.09,-0" style="fill:none;fill-rule:nonzero;stroke:#000;stroke-width:2.08px;"/><path d="M35.274,330.446l3175.09,0" style="fill:none;fill-rule:nonzero;stroke:#000;stroke-width:2.08px;"/><path d="M35.274,309.691l3175.09,-0" style="fill:none;fill-rule:nonzero;stroke:#000;stroke-width:2.08px;"/><path d="M35.274,288.935l3175.09,0" style="fill:none;fill-rule:nonzero;stroke:#000;stroke-width:2.08px;"/><path d="M35.274,268.18l3175.09,-0" style="fill:none;fill-rule:nonzero;stroke:#000;stroke-width:2.08px;"/><rect x="1704.74" y="81.38" width="3.944" height="84.06"/><rect x="954.855" y="165.442" width="3.944" height="102.74"/><rect x="3207.46" y="81.38" width="3.944" height="84.06"/><rect x="954.855" y="267.142" width="3.944" height="84.06"/><rect x="3207.46" y="267.142" width="3.944" height="84.06"/><rect x="976.031" y="251.322" width="2.698" height="58.369"/><rect x="862.955" y="74.901" width="2.698" height="51.878"/><rect x="862.955" y="261.7" width="2.698" height="64.803"/><path d="M932.026,225.589c4.649,-0 9.049,2.407 9.049,7.555c0,5.977 -4.649,10.045 -8.551,12.37c-2.989,1.743 -6.31,2.989 -9.714,2.989c-4.649,-0 -9.049,-2.408 -9.049,-7.555c-0,-5.978 4.649,-10.046 8.551,-12.371c2.989,-1.743 6.31,-2.988 9.714,-2.988Z" style="fill-rule:nonzero;"/><rect x="913.761" y="240.944" width="2.698" height="85.558"/><path d="M994.296,132.189c4.65,-0 9.05,2.408 9.05,7.555c-0,5.977 -4.65,10.046 -8.552,12.37c-2.988,1.744 -6.309,2.989 -9.713,2.989c-4.649,-0 -9.05,-2.408 -9.05,-7.555c0,-5.978 4.65,-10.046 8.552,-12.37c2.988,-1.744 6.309,-2.989 9.713,-2.989Z" style="fill-rule:nonzero;"/><path d="M965.033,48.621c0,1.827 1.411,2.491 3.238,2.491c3.238,-0 5.978,-1.163 8.551,-2.325l0.415,-1.992c-1.909,-1.412 -4.151,-2.408 -6.724,-2.408c-2.657,-0 -5.48,1.328 -5.48,4.234Zm22.499,10.212c0,5.064 -3.902,9.547 -8.136,9.547c-3.238,0 -4.649,-3.653 -4.649,-7.555c-0,-1.162 0.083,-2.324 0.332,-3.404l1.245,-6.309c-2.574,1.079 -5.147,2.075 -8.385,2.075c-2.906,0 -4.981,-1.494 -4.981,-4.234c-0,-4.234 4.068,-6.642 7.97,-6.642c2.573,0 4.815,0.831 6.807,2.076l3.819,-19.261c0.499,0.249 1.08,0.415 1.661,0.415c1.826,-0 3.985,-1.328 5.645,-2.906l-4.4,22.084l5.314,-2.989c2.158,-1.162 4.234,-1.66 6.143,-1.66c2.408,-0 4.4,0.83 5.314,2.324c1.494,-1.66 3.653,-2.49 5.728,-2.49c2.989,-0 5.729,1.826 5.729,5.728c-0,3.736 -2.242,7.472 -5.397,7.472c-2.075,0 -3.155,-1.826 -3.155,-3.985c0,-3.404 2.408,-5.313 4.982,-5.313l0.249,-0c-0.664,-1.163 -1.91,-1.661 -3.155,-1.661c-1.993,0 -4.151,1.329 -4.566,3.57l-4.483,22.416c-0.914,-0.581 -1.993,-0.913 -3.155,-0.913c-1.163,-0 -2.408,0.332 -3.57,0.913l4.483,-22.416l0,-0.581c0,-1.328 -0.996,-2.158 -2.408,-2.158c-0.581,-0 -1.328,0.249 -1.992,0.581l-6.559,3.653l-0.581,2.573c2.242,2.574 4.151,5.563 4.151,9.05Zm-4.981,5.396c1.909,0 2.906,-2.823 2.906,-5.064c-0,-2.491 -1.163,-4.566 -2.657,-6.476l-0.415,2.242c-0.332,1.494 -1.08,4.649 -1.08,6.891c0,1.411 0.332,2.407 1.246,2.407Z" style="fill-rule:nonzero;"/><path d="M994.296,235.966c4.65,0 9.05,2.408 9.05,7.555c-0,5.978 -4.65,10.046 -8.552,12.371c-2.988,1.743 -6.309,2.988 -9.713,2.988c-4.649,0 -9.05,-2.407 -9.05,-7.555c0,-5.977 4.65,-10.045 8.552,-12.37c2.988,-1.743 6.309,-2.989 9.713,-2.989Z" style="fill-rule:nonzero;"/><path d="M1012.69,133.268c-0,-2.574 2.075,-4.649 4.649,-4.649c2.574,-0 4.649,2.075 4.649,4.649c0,2.574 -2.075,4.649 -4.649,4.649c-2.574,0 -4.649,-2.075 -4.649,-4.649Z" style="fill-rule:nonzero;"/><rect x="1000.65" y="77.514" width="2.698" height="62.235"/><rect x="1138.05" y="85.247" width="2.698" height="64.878"/><path d="M1101.27,179.927c-0,0.83 -0.664,1.577 -1.494,1.577c-0.831,-0 -1.578,-0.747 -1.578,-1.577l0,-12.039l-6.891,2.574l0,13.117c0,0.831 -0.747,1.578 -1.577,1.578c-0.83,-0 -1.495,-0.747 -1.495,-1.578l0,-12.038l-2.656,0.997c-0.166,0.083 -0.415,0.083 -0.581,0.083c-0.914,-0 -1.661,-0.748 -1.661,-1.661l0,-4.981c0,-0.664 0.415,-1.329 1.079,-1.578l3.819,-1.328l0,-13.283l-2.656,0.913c-0.166,0.083 -0.415,0.083 -0.581,0.083c-0.914,-0 -1.661,-0.747 -1.661,-1.661l0,-4.981c0,-0.664 0.415,-1.245 1.079,-1.494l3.819,-1.412l0,-13.117c0,-0.83 0.665,-1.578 1.495,-1.578c0.83,0 1.577,0.748 1.577,1.578l0,12.038l6.891,-2.574l0,-13.117c0,-0.83 0.747,-1.578 1.578,-1.578c0.83,0 1.494,0.748 1.494,1.578l-0,12.038l2.657,-0.996c0.166,-0.083 0.415,-0.083 0.581,-0.083c0.913,-0 1.66,0.747 1.66,1.66l0,4.981c0,0.665 -0.415,1.329 -1.079,1.578l-3.819,1.328l-0,13.284l2.657,-0.913c0.166,-0.083 0.415,-0.083 0.581,-0.083c0.913,-0 1.66,0.747 1.66,1.66l0,4.981c0,0.664 -0.415,1.246 -1.079,1.495l-3.819,1.411l-0,13.118Zm-9.963,-31.3l0,13.284l6.891,-2.491l0,-13.283l-6.891,2.49Z" style="fill-rule:nonzero;"/><rect x="1113.43" y="240.944" width="2.698" height="68.746"/><path d="M1174.65,142.567c4.649,-0 9.049,2.407 9.049,7.555c0,5.977 -4.649,10.045 -8.551,12.37c-2.989,1.743 -6.309,2.989 -9.713,2.989c-4.65,-0 -9.05,-2.408 -9.05,-7.555c0,-5.978 4.649,-10.046 8.552,-12.371c2.988,-1.743 6.309,-2.988 9.713,-2.988Z" style="fill-rule:nonzero;"/><path d="M1174.65,256.722c4.649,-0 9.049,2.407 9.049,7.555c0,5.977 -4.649,10.046 -8.551,12.37c-2.989,1.744 -6.309,2.989 -9.713,2.989c-4.65,-0 -9.05,-2.408 -9.05,-7.555c0,-5.978 4.649,-10.046 8.552,-12.37c2.988,-1.744 6.309,-2.989 9.713,-2.989Z" style="fill-rule:nonzero;"/><rect x="1181" y="81.38" width="2.698" height="68.746"/><rect x="1156.38" y="272.078" width="2.698" height="58.331"/><path d="M1039.91,225.589c4.649,-0 9.049,2.407 9.049,7.555c0,5.977 -4.649,10.045 -8.551,12.37c-2.989,1.743 -6.31,2.989 -9.714,2.989c-4.649,-0 -9.049,-2.408 -9.049,-7.555c-0,-5.978 4.649,-10.046 8.551,-12.371c2.989,-1.743 6.31,-2.988 9.714,-2.988Z" style="fill-rule:nonzero;"/><rect x="1021.65" y="240.944" width="2.698" height="68.746"/><path d="M1080.89,246.344c4.649,0 9.05,2.408 9.05,7.555c-0,5.978 -4.65,10.046 -8.552,12.37c-2.988,1.744 -6.309,2.989 -9.713,2.989c-4.649,0 -9.05,-2.407 -9.05,-7.555c0,-5.977 4.65,-10.045 8.552,-12.37c2.988,-1.744 6.309,-2.989 9.713,-2.989Z" style="fill-rule:nonzero;"/><rect x="1062.62" y="261.7" width="2.698" height="47.991"/><path d="M1131.69,142.567c4.649,-0 9.049,2.407 9.049,7.555c-0,5.977 -4.649,10.045 -8.551,12.37c-2.989,1.743 -6.31,2.989 -9.714,2.989c-4.649,-0 -9.049,-2.408 -9.049,-7.555c-0,-5.978 4.649,-10.046 8.551,-12.371c2.989,-1.743 6.31,-2.988 9.714,-2.988Z" style="fill-rule:nonzero;"/><path d="M1131.69,225.589c4.649,-0 9.049,2.407 9.049,7.555c-0,5.977 -4.649,10.045 -8.551,12.37c-2.989,1.743 -6.31,2.989 -9.714,2.989c-4.649,-0 -9.049,-2.408 -9.049,-7.555c-0,-5.978 4.649,-10.046 8.551,-12.371c2.989,-1.743 6.31,-2.988 9.714,-2.988Z" style="fill-rule:nonzero;"/><rect x="547.183" y="240.944" width="2.698" height="85.558"/><path d="M606.426,246.344c4.649,0 9.049,2.408 9.049,7.555c0,5.978 -4.649,10.046 -8.551,12.37c-2.989,1.744 -6.31,2.989 -9.714,2.989c-4.649,0 -9.049,-2.407 -9.049,-7.555c0,-5.977 4.649,-10.045 8.551,-12.37c2.989,-1.744 6.31,-2.989 9.714,-2.989Z" style="fill-rule:nonzero;"/><rect x="588.161" y="261.7" width="2.698" height="64.803"/><path d="M657.231,225.589c4.649,-0 9.05,2.407 9.05,7.555c-0,5.977 -4.65,10.045 -8.552,12.37c-2.988,1.743 -6.309,2.989 -9.713,2.989c-4.65,-0 -9.05,-2.408 -9.05,-7.555c0,-5.978 4.65,-10.046 8.552,-12.371c2.988,-1.743 6.309,-2.988 9.713,-2.988Z" style="fill-rule:nonzero;"/><rect x="638.966" y="240.944" width="2.698" height="85.558"/><path d="M698.209,49.167c4.649,-0 9.049,2.408 9.049,7.555c0,5.977 -4.649,10.046 -8.551,12.37c-2.989,1.744 -6.31,2.989 -9.714,2.989c-4.649,-0 -9.049,-2.408 -9.049,-7.555c-0,-5.978 4.649,-10.046 8.551,-12.37c2.989,-1.744 6.31,-2.989 9.714,-2.989Z" style="fill-rule:nonzero;"/><path d="M698.209,246.344c4.649,0 9.049,2.408 9.049,7.555c0,5.978 -4.649,10.046 -8.551,12.37c-2.989,1.744 -6.31,2.989 -9.714,2.989c-4.649,0 -9.049,-2.407 -9.049,-7.555c-0,-5.977 4.649,-10.045 8.551,-12.37c2.989,-1.744 6.31,-2.989 9.714,-2.989Z" style="fill-rule:nonzero;"/><rect x="679.944" y="64.523" width="2.698" height="58.265"/><rect x="404.597" y="261.7" width="2.698" height="64.803"/><path d="M473.667,225.589c4.65,-0 9.05,2.407 9.05,7.555c-0,5.977 -4.649,10.045 -8.551,12.37c-2.989,1.743 -6.31,2.989 -9.714,2.989c-4.649,-0 -9.049,-2.408 -9.049,-7.555c-0,-5.978 4.649,-10.046 8.551,-12.371c2.989,-1.743 6.31,-2.988 9.713,-2.988Z" style="fill-rule:nonzero;"/><rect x="455.403" y="240.944" width="2.698" height="85.558"/><path d="M514.645,246.344c4.649,0 9.049,2.408 9.049,7.555c0,5.978 -4.649,10.046 -8.551,12.37c-2.989,1.744 -6.309,2.989 -9.713,2.989c-4.65,0 -9.05,-2.407 -9.05,-7.555c0,-5.977 4.649,-10.045 8.551,-12.37c2.989,-1.744 6.31,-2.989 9.714,-2.989Z" style="fill-rule:nonzero;"/><rect x="496.38" y="261.7" width="2.698" height="64.803"/><path d="M565.448,225.589c4.65,-0 9.05,2.407 9.05,7.555c-0,5.977 -4.65,10.045 -8.552,12.37c-2.988,1.743 -6.309,2.989 -9.713,2.989c-4.649,-0 -9.05,-2.408 -9.05,-7.555c0,-5.978 4.65,-10.046 8.552,-12.371c2.988,-1.743 6.309,-2.988 9.713,-2.988Z" style="fill-rule:nonzero;"/><path d="M789.44,49.167c4.649,-0 9.049,2.408 9.049,7.555c-0,5.977 -4.649,10.046 -8.551,12.37c-2.989,1.744 -6.31,2.989 -9.714,2.989c-4.649,-0 -9.049,-2.408 -9.049,-7.555c-0,-5.978 4.649,-10.046 8.551,-12.37c2.989,-1.744 6.31,-2.989 9.714,-2.989Z" style="fill-rule:nonzero;"/><path d="M789.44,246.344c4.649,0 9.049,2.408 9.049,7.555c-0,5.978 -4.649,10.046 -8.551,12.37c-2.989,1.744 -6.31,2.989 -9.714,2.989c-4.649,0 -9.049,-2.407 -9.049,-7.555c-0,-5.977 4.649,-10.045 8.551,-12.37c2.989,-1.744 6.31,-2.989 9.714,-2.989Z" style="fill-rule:nonzero;"/><rect x="771.175" y="64.523" width="2.698" height="58.425"/><rect x="771.175" y="261.7" width="2.698" height="64.803"/><path d="M840.245,225.589c4.649,-0 9.049,2.407 9.049,7.555c0,5.977 -4.649,10.045 -8.551,12.37c-2.989,1.743 -6.31,2.989 -9.714,2.989c-4.649,-0 -9.049,-2.408 -9.049,-7.555c-0,-5.978 4.649,-10.046 8.551,-12.371c2.989,-1.743 6.31,-2.988 9.714,-2.988Z" style="fill-rule:nonzero;"/><rect x="821.98" y="240.944" width="2.698" height="85.558"/><path d="M881.22,59.545c4.65,-0 9.05,2.407 9.05,7.555c-0,5.977 -4.65,10.045 -8.552,12.37c-2.988,1.743 -6.309,2.989 -9.713,2.989c-4.649,-0 -9.05,-2.408 -9.05,-7.555c0,-5.978 4.65,-10.046 8.552,-12.371c2.989,-1.743 6.309,-2.988 9.713,-2.988Z" style="fill-rule:nonzero;"/><path d="M881.22,246.344c4.65,0 9.05,2.408 9.05,7.555c-0,5.978 -4.65,10.046 -8.552,12.37c-2.988,1.744 -6.309,2.989 -9.713,2.989c-4.649,0 -9.05,-2.407 -9.05,-7.555c0,-5.977 4.65,-10.045 8.552,-12.37c2.989,-1.744 6.309,-2.989 9.713,-2.989Z" style="fill-rule:nonzero;"/><rect x="679.944" y="261.7" width="2.698" height="64.803"/><path d="M746.418,38.789c4.649,0 9.049,2.408 9.049,7.555c-0,5.978 -4.649,10.046 -8.551,12.37c-2.989,1.744 -6.31,2.989 -9.714,2.989c-4.649,0 -9.049,-2.407 -9.049,-7.555c-0,-5.977 4.649,-10.045 8.551,-12.37c2.989,-1.744 6.31,-2.989 9.714,-2.989Z" style="fill-rule:nonzero;"/><path d="M746.418,225.589c4.649,-0 9.049,2.407 9.049,7.555c-0,5.977 -4.649,10.045 -8.551,12.37c-2.989,1.743 -6.31,2.989 -9.714,2.989c-4.649,-0 -9.049,-2.408 -9.049,-7.555c-0,-5.978 4.649,-10.046 8.551,-12.371c2.989,-1.743 6.31,-2.988 9.714,-2.988Z" style="fill-rule:nonzero;"/><rect x="728.153" y="54.145" width="2.698" height="64.907"/><rect x="728.153" y="240.944" width="2.698" height="85.558"/><rect x="1816.79" y="54.145" width="2.698" height="72.634"/><rect x="1816.79" y="261.7" width="2.698" height="64.803"/><path d="M1885.86,225.589c4.649,-0 9.049,2.407 9.049,7.555c0,5.977 -4.649,10.045 -8.551,12.37c-2.989,1.743 -6.31,2.989 -9.714,2.989c-4.649,-0 -9.049,-2.408 -9.049,-7.555c0,-5.978 4.649,-10.046 8.551,-12.371c2.989,-1.743 6.31,-2.988 9.714,-2.988Z" style="fill-rule:nonzero;"/><rect x="1867.59" y="240.944" width="2.698" height="85.558"/><path d="M1926.84,59.545c4.649,-0 9.049,2.407 9.049,7.555c-0,5.977 -4.649,10.045 -8.551,12.37c-2.989,1.743 -6.31,2.989 -9.714,2.989c-4.649,-0 -9.049,-2.408 -9.049,-7.555c-0,-5.978 4.649,-10.046 8.551,-12.371c2.989,-1.743 6.31,-2.988 9.714,-2.988Z" style="fill-rule:nonzero;"/><path d="M1926.84,246.344c4.649,0 9.049,2.408 9.049,7.555c-0,5.978 -4.649,10.046 -8.551,12.37c-2.989,1.744 -6.31,2.989 -9.714,2.989c-4.649,0 -9.049,-2.407 -9.049,-7.555c-0,-5.977 4.649,-10.045 8.551,-12.37c2.989,-1.744 6.31,-2.989 9.714,-2.989Z" style="fill-rule:nonzero;"/><path d="M1945.23,71.002c-0,-2.574 2.076,-4.65 4.649,-4.65c2.574,0 4.649,2.076 4.649,4.65c0,2.573 -2.075,4.649 -4.649,4.649c-2.573,-0 -4.649,-2.076 -4.649,-4.649Z" style="fill-rule:nonzero;"/><rect x="1908.57" y="74.901" width="2.698" height="68.746"/><rect x="1725.01" y="261.7" width="2.698" height="64.803"/><path d="M1794.07,225.589c4.649,-0 9.049,2.407 9.049,7.555c0,5.977 -4.649,10.045 -8.551,12.37c-2.989,1.743 -6.309,2.989 -9.713,2.989c-4.65,-0 -9.05,-2.408 -9.05,-7.555c0,-5.978 4.649,-10.046 8.551,-12.371c2.989,-1.743 6.31,-2.988 9.714,-2.988Z" style="fill-rule:nonzero;"/><rect x="1775.81" y="240.944" width="2.698" height="85.558"/><path d="M1835.05,38.789c4.649,0 9.049,2.408 9.049,7.555c0,5.978 -4.649,10.046 -8.551,12.37c-2.989,1.744 -6.31,2.989 -9.714,2.989c-4.649,0 -9.049,-2.407 -9.049,-7.555c-0,-5.977 4.649,-10.045 8.551,-12.37c2.989,-1.744 6.31,-2.989 9.714,-2.989Z" style="fill-rule:nonzero;"/><path d="M1835.05,246.344c4.649,0 9.049,2.408 9.049,7.555c0,5.978 -4.649,10.046 -8.551,12.37c-2.989,1.744 -6.31,2.989 -9.714,2.989c-4.649,0 -9.049,-2.407 -9.049,-7.555c-0,-5.977 4.649,-10.045 8.551,-12.37c2.989,-1.744 6.31,-2.989 9.714,-2.989Z" style="fill-rule:nonzero;"/><path d="M2053.02,305.54l-0,8.302l-143.624,-0l-0,-8.302l143.624,-0Z" style="fill-rule:nonzero;stroke:#000;stroke-width:1.66px;"/><path d="M2053.02,322.352l-0,8.302l-143.624,-0l-0,-8.302l143.624,-0Z" style="fill-rule:nonzero;stroke:#000;stroke-width:1.66px;"/><path d="M1869.46,305.54l0,8.302l-143.624,-0l0,-8.302l143.624,-0Z" style="fill-rule:nonzero;stroke:#000;stroke-width:1.66px;"/><path d="M1869.46,322.352l0,8.302l-143.624,-0l0,-8.302l143.624,-0Z" style="fill-rule:nonzero;stroke:#000;stroke-width:1.66px;"/><path d="M1818.65,122.684l-0,8.302l-92.819,-3.944l0,-8.302l92.819,3.944Z" style="fill-rule:nonzero;stroke:#000;stroke-width:1.66px;"/><path d="M1921.97,49.209c47.765,-36.706 316.811,-44.323 366.576,-10.378c-49.694,-31.455 -318.741,-23.838 -366.576,10.378Z" style="fill-rule:nonzero;stroke:#000;stroke-width:1.66px;"/><path d="M1666.18,305.54l-0,8.302l-137.752,-0l-0,-8.302l137.752,-0Z" style="fill-rule:nonzero;stroke:#000;stroke-width:1.66px;"/><path d="M1666.18,322.352l-0,8.302l-137.752,-0l-0,-8.302l137.752,-0Z" style="fill-rule:nonzero;stroke:#000;stroke-width:1.66px;"/><path d="M1740.67,7.698c26.195,-15.06 74.616,-4.11 91.782,20.756c-17.715,-22.437 -66.136,-33.387 -91.782,-20.756Z" style="fill-rule:nonzero;stroke:#000;stroke-width:1.66px;"/><path d="M1483.85,288.728l0,8.302l-138.435,-0l0,-8.302l138.435,-0Z" style="fill-rule:nonzero;stroke:#000;stroke-width:1.66px;"/><path d="M1483.85,305.54l0,8.302l-138.435,-0l0,-8.302l138.435,-0Z" style="fill-rule:nonzero;stroke:#000;stroke-width:1.66px;"/><path d="M1300.84,305.54l0,8.302l-143.624,3.943l0,-8.302l143.624,-3.943Z" style="fill-rule:nonzero;stroke:#000;stroke-width:1.66px;"/><path d="M1300.84,322.352l0,8.302l-143.624,3.943l0,-8.302l143.624,-3.943Z" style="fill-rule:nonzero;stroke:#000;stroke-width:1.66px;"/><path d="M1115.3,288.728l-0,8.302l-138.435,-0l-0,-8.302l138.435,-0Z" style="fill-rule:nonzero;stroke:#000;stroke-width:1.66px;"/><path d="M1115.3,305.54l-0,8.302l-138.435,-0l-0,-8.302l138.435,-0Z" style="fill-rule:nonzero;stroke:#000;stroke-width:1.66px;"/><path d="M1139.92,81.173l-0,8.302l-138.435,-7.887l-0,-8.302l138.435,7.887Z" style="fill-rule:nonzero;stroke:#000;stroke-width:1.66px;"/><path d="M1139.92,97.987l-0,8.302l-22.52,-1.362l0,-8.302l22.52,1.362Z" style="fill-rule:nonzero;stroke:#000;stroke-width:1.66px;"/><path d="M915.629,305.54l-0,8.302l-143.624,-0l-0,-8.302l143.624,-0Z" style="fill-rule:nonzero;stroke:#000;stroke-width:1.66px;"/><path d="M915.629,322.352l-0,8.302l-143.624,-0l-0,-8.302l143.624,-0Z" style="fill-rule:nonzero;stroke:#000;stroke-width:1.66px;"/><path d="M989.21,168.554c27.538,26.935 107.172,31.146 137.397,7.264c-30.093,21.395 -109.728,17.184 -137.397,-7.264Z" style="fill-rule:nonzero;stroke:#000;stroke-width:1.66px;"/><path d="M864.823,122.684l0,8.302l-92.818,-3.944l-0,-8.302l92.818,3.944Z" style="fill-rule:nonzero;stroke:#000;stroke-width:1.66px;"/><path d="M730.021,305.54l-0,8.302l-141.03,-0l0,-8.302l141.03,-0Z" style="fill-rule:nonzero;stroke:#000;stroke-width:1.66px;"/><path d="M730.021,322.352l-0,8.302l-141.03,-0l0,-8.302l141.03,-0Z" style="fill-rule:nonzero;stroke:#000;stroke-width:1.66px;"/><path d="M730.023,97.985l-0,8.302l-49.249,3.944l0,-8.303l49.249,-3.943Z" style="fill-rule:nonzero;stroke:#000;stroke-width:1.66px;"/><path d="M730.023,114.797l-0,8.302l-49.249,3.943l0,-8.302l49.249,-3.943Z" style="fill-rule:nonzero;stroke:#000;stroke-width:1.66px;"/><path d="M549.051,305.54l0,8.302l-143.623,-0l-0,-8.302l143.623,-0Z" style="fill-rule:nonzero;stroke:#000;stroke-width:1.66px;"/><path d="M549.051,322.352l0,8.302l-143.623,-0l-0,-8.302l143.623,-0Z" style="fill-rule:nonzero;stroke:#000;stroke-width:1.66px;"/><path d="M365.49,305.54l-0,8.302l-143.624,-0l-0,-8.302l143.624,-0Z" style="fill-rule:nonzero;stroke:#000;stroke-width:1.66px;"/><path d="M365.49,322.352l-0,8.302l-143.624,-0l-0,-8.302l143.624,-0Z" style="fill-rule:nonzero;stroke:#000;stroke-width:1.66px;"/><path d="M314.685,122.684l-0,8.302l-92.819,-3.944l-0,-8.302l92.819,3.944Z" style="fill-rule:nonzero;stroke:#000;stroke-width:1.66px;"/><path d="M417.999,49.209c47.765,-36.706 316.811,-44.323 366.576,-10.378c-49.695,-31.455 -318.741,-23.838 -366.576,10.378Z" style="fill-rule:nonzero;stroke:#000;stroke-width:1.66px;"/><path d="M236.703,7.698c26.195,-15.06 74.616,-4.11 91.782,20.756c-17.715,-22.437 -66.136,-33.387 -91.782,-20.756Z" style="fill-rule:nonzero;stroke:#000;stroke-width:1.66px;"/><rect x="1908.57" y="261.7" width="2.698" height="64.803"/><path d="M1977.64,225.589c4.649,-0 9.049,2.407 9.049,7.555c0,5.977 -4.649,10.045 -8.551,12.37c-2.989,1.743 -6.31,2.989 -9.714,2.989c-4.649,-0 -9.049,-2.408 -9.049,-7.555c-0,-5.978 4.649,-10.046 8.551,-12.371c2.989,-1.743 6.31,-2.988 9.714,-2.988Z" style="fill-rule:nonzero;"/><rect x="1959.37" y="240.944" width="2.698" height="85.558"/><path d="M3170.15,305.54l0,8.302l-137.752,-0l-0,-8.302l137.752,-0Z" style="fill-rule:nonzero;stroke:#000;stroke-width:1.66px;"/><path d="M3170.15,322.352l0,8.302l-137.752,-0l-0,-8.302l137.752,-0Z" style="fill-rule:nonzero;stroke:#000;stroke-width:1.66px;"/><path d="M2987.82,288.728l0,8.302l-138.435,-0l0,-8.302l138.435,-0Z" style="fill-rule:nonzero;stroke:#000;stroke-width:1.66px;"/><path d="M2987.82,305.54l0,8.302l-138.435,-0l0,-8.302l138.435,-0Z" style="fill-rule:nonzero;stroke:#000;stroke-width:1.66px;"/><path d="M2804.81,305.54l-0,8.302l-143.624,3.943l-0,-8.302l143.624,-3.943Z" style="fill-rule:nonzero;stroke:#000;stroke-width:1.66px;"/><path d="M2804.81,322.352l-0,8.302l-143.624,3.943l-0,-8.302l143.624,-3.943Z" style="fill-rule:nonzero;stroke:#000;stroke-width:1.66px;"/><path d="M2619.27,288.728l-0,8.302l-138.435,-0l-0,-8.302l138.435,-0Z" style="fill-rule:nonzero;stroke:#000;stroke-width:1.66px;"/><path d="M2619.27,305.54l-0,8.302l-138.435,-0l-0,-8.302l138.435,-0Z" style="fill-rule:nonzero;stroke:#000;stroke-width:1.66px;"/><path d="M2643.89,81.173l0,8.302l-138.435,-7.887l0,-8.302l138.435,7.887Z" style="fill-rule:nonzero;stroke:#000;stroke-width:1.66px;"/><path d="M2643.89,97.987l0,8.302l-22.52,-1.362l0,-8.302l22.52,1.362Z" style="fill-rule:nonzero;stroke:#000;stroke-width:1.66px;"/><path d="M2419.6,305.54l0,8.302l-143.624,-0l0,-8.302l143.624,-0Z" style="fill-rule:nonzero;stroke:#000;stroke-width:1.66px;"/><path d="M2419.6,322.352l0,8.302l-143.624,-0l0,-8.302l143.624,-0Z" style="fill-rule:nonzero;stroke:#000;stroke-width:1.66px;"/><path d="M2493.18,168.554c27.538,26.935 107.172,31.146 137.397,7.264c-30.093,21.395 -109.727,17.184 -137.397,-7.264Z" style="fill-rule:nonzero;stroke:#000;stroke-width:1.66px;"/><path d="M2368.79,122.684l-0,8.302l-92.819,-3.944l0,-8.302l92.819,3.944Z" style="fill-rule:nonzero;stroke:#000;stroke-width:1.66px;"/><path d="M2233.99,305.54l-0,8.302l-141.029,-0l-0,-8.302l141.029,-0Z" style="fill-rule:nonzero;stroke:#000;stroke-width:1.66px;"/><path d="M2233.99,322.352l-0,8.302l-141.029,-0l-0,-8.302l141.029,-0Z" style="fill-rule:nonzero;stroke:#000;stroke-width:1.66px;"/><path d="M2233.99,97.985l0,8.302l-49.249,3.944l0,-8.303l49.249,-3.943Z" style="fill-rule:nonzero;stroke:#000;stroke-width:1.66px;"/><path d="M2233.99,114.797l0,8.302l-49.249,3.943l0,-8.302l49.249,-3.943Z" style="fill-rule:nonzero;stroke:#000;stroke-width:1.66px;"/><path d="M1362.85,235.966c4.649,0 9.049,2.408 9.049,7.555c0,5.978 -4.649,10.046 -8.551,12.371c-2.989,1.743 -6.31,2.988 -9.714,2.988c-4.649,0 -9.049,-2.407 -9.049,-7.555c-0,-5.977 4.649,-10.045 8.551,-12.37c2.989,-1.743 6.31,-2.989 9.714,-2.989Z" style="fill-rule:nonzero;"/><rect x="1344.59" y="251.322" width="2.698" height="58.369"/><path d="M1408.47,225.589c4.649,-0 9.049,2.407 9.049,7.555c0,5.977 -4.649,10.045 -8.551,12.37c-2.989,1.743 -6.309,2.989 -9.713,2.989c-4.65,-0 -9.05,-2.408 -9.05,-7.555c0,-5.978 4.649,-10.046 8.551,-12.371c2.989,-1.743 6.31,-2.988 9.714,-2.988Z" style="fill-rule:nonzero;"/><rect x="1390.2" y="240.944" width="2.698" height="68.746"/><path d="M1449.44,246.344c4.649,0 9.049,2.408 9.049,7.555c-0,5.978 -4.649,10.046 -8.551,12.37c-2.989,1.744 -6.31,2.989 -9.714,2.989c-4.649,0 -9.049,-2.407 -9.049,-7.555c-0,-5.977 4.649,-10.045 8.551,-12.37c2.989,-1.744 6.31,-2.989 9.714,-2.989Z" style="fill-rule:nonzero;"/><rect x="1431.18" y="261.7" width="2.698" height="47.991"/><path d="M1225.45,225.589c4.65,-0 9.05,2.407 9.05,7.555c-0,5.977 -4.649,10.045 -8.551,12.37c-2.989,1.743 -6.31,2.989 -9.714,2.989c-4.649,-0 -9.049,-2.408 -9.049,-7.555c-0,-5.978 4.649,-10.046 8.551,-12.371c2.989,-1.743 6.309,-2.988 9.713,-2.988Z" style="fill-rule:nonzero;"/><rect x="1207.19" y="240.944" width="2.698" height="88.086"/><path d="M1266.43,246.344c4.649,0 9.049,2.408 9.049,7.555c0,5.978 -4.649,10.046 -8.551,12.37c-2.989,1.744 -6.31,2.989 -9.713,2.989c-4.65,0 -9.05,-2.407 -9.05,-7.555c0,-5.977 4.649,-10.045 8.551,-12.37c2.989,-1.744 6.31,-2.989 9.714,-2.989Z" style="fill-rule:nonzero;"/><rect x="1248.17" y="261.7" width="2.698" height="66.218"/><path d="M1317.24,225.589c4.649,-0 9.05,2.407 9.05,7.555c-0,5.977 -4.65,10.045 -8.552,12.37c-2.988,1.743 -6.309,2.989 -9.713,2.989c-4.649,-0 -9.05,-2.408 -9.05,-7.555c0,-5.978 4.65,-10.046 8.552,-12.371c2.988,-1.743 6.309,-2.988 9.713,-2.988Z" style="fill-rule:nonzero;"/><rect x="1298.97" y="240.944" width="2.698" height="85.596"/><path d="M1374.89,122.89l-29.473,0c-0.498,0 -0.83,-0.332 -0.83,-0.83l-0,-11.291c-0,-0.498 0.332,-0.83 0.83,-0.83l29.473,-0c0.498,-0 0.83,0.332 0.83,0.83l0,11.291c0,0.498 -0.332,0.83 -0.83,0.83Z" style="fill-rule:nonzero;"/><rect x="1613.51" y="272.078" width="2.698" height="54.425"/><path d="M1682.58,225.589c4.649,-0 9.049,2.407 9.049,7.555c0,5.977 -4.649,10.045 -8.551,12.37c-2.989,1.743 -6.31,2.989 -9.714,2.989c-4.649,-0 -9.049,-2.408 -9.049,-7.555c-0,-5.978 4.649,-10.046 8.551,-12.371c2.989,-1.743 6.31,-2.988 9.714,-2.988Z" style="fill-rule:nonzero;"/><rect x="1664.32" y="240.944" width="2.698" height="85.558"/><path d="M1743.27,18.034c4.649,-0 9.049,2.407 9.049,7.555c0,5.977 -4.649,10.045 -8.551,12.37c-2.989,1.743 -6.31,2.989 -9.714,2.989c-4.649,-0 -9.049,-2.408 -9.049,-7.555c-0,-5.978 4.649,-10.046 8.551,-12.371c2.989,-1.743 6.31,-2.988 9.714,-2.988Z" style="fill-rule:nonzero;"/><path d="M1743.27,246.344c4.649,0 9.049,2.408 9.049,7.555c0,5.978 -4.649,10.046 -8.551,12.37c-2.989,1.744 -6.31,2.989 -9.714,2.989c-4.649,0 -9.049,-2.407 -9.049,-7.555c-0,-5.977 4.649,-10.045 8.551,-12.37c2.989,-1.744 6.31,-2.989 9.714,-2.989Z" style="fill-rule:nonzero;"/><rect x="1725.01" y="33.39" width="2.698" height="89.558"/><path d="M1500.25,225.589c4.649,-0 9.049,2.407 9.049,7.555c0,5.977 -4.649,10.045 -8.551,12.37c-2.989,1.743 -6.31,2.989 -9.714,2.989c-4.649,-0 -9.049,-2.408 -9.049,-7.555c0,-5.978 4.649,-10.046 8.551,-12.371c2.989,-1.743 6.31,-2.988 9.714,-2.988Z" style="fill-rule:nonzero;"/><rect x="1481.98" y="240.944" width="2.698" height="68.746"/><path d="M1545.87,235.966c4.65,0 9.05,2.408 9.05,7.555c-0,5.978 -4.65,10.046 -8.552,12.371c-2.988,1.743 -6.309,2.988 -9.713,2.988c-4.649,0 -9.05,-2.407 -9.05,-7.555c0,-5.977 4.65,-10.045 8.552,-12.37c2.989,-1.743 6.309,-2.989 9.713,-2.989Z" style="fill-rule:nonzero;"/><rect x="1527.6" y="251.322" width="2.698" height="75.181"/><path d="M1591.48,225.589c4.649,-0 9.049,2.407 9.049,7.555c0,5.977 -4.649,10.045 -8.551,12.37c-2.989,1.743 -6.31,2.989 -9.714,2.989c-4.649,-0 -9.049,-2.408 -9.049,-7.555c-0,-5.978 4.649,-10.046 8.551,-12.371c2.989,-1.743 6.31,-2.988 9.714,-2.988Z" style="fill-rule:nonzero;"/><rect x="1573.22" y="240.944" width="2.698" height="85.558"/><path d="M1631.77,256.722c4.65,-0 9.05,2.407 9.05,7.555c-0,5.977 -4.649,10.046 -8.552,12.37c-2.988,1.744 -6.309,2.989 -9.713,2.989c-4.649,-0 -9.049,-2.408 -9.049,-7.555c-0,-5.978 4.649,-10.046 8.551,-12.37c2.989,-1.744 6.309,-2.989 9.713,-2.989Z" style="fill-rule:nonzero;"/><path d="M2385.19,59.545c4.649,-0 9.049,2.407 9.049,7.555c-0,5.977 -4.649,10.045 -8.551,12.37c-2.989,1.743 -6.31,2.989 -9.714,2.989c-4.649,-0 -9.049,-2.408 -9.049,-7.555c-0,-5.978 4.649,-10.046 8.551,-12.371c2.989,-1.743 6.31,-2.988 9.714,-2.988Z" style="fill-rule:nonzero;"/><path d="M2385.19,246.344c4.649,0 9.049,2.408 9.049,7.555c-0,5.978 -4.649,10.046 -8.551,12.37c-2.989,1.744 -6.31,2.989 -9.714,2.989c-4.649,0 -9.049,-2.407 -9.049,-7.555c-0,-5.977 4.649,-10.045 8.551,-12.37c2.989,-1.744 6.31,-2.989 9.714,-2.989Z" style="fill-rule:nonzero;"/><rect x="2366.93" y="74.901" width="2.698" height="51.878"/><rect x="2366.93" y="261.7" width="2.698" height="64.803"/><path d="M2436,225.589c4.649,-0 9.049,2.407 9.049,7.555c0,5.977 -4.649,10.045 -8.551,12.37c-2.989,1.743 -6.31,2.989 -9.714,2.989c-4.649,-0 -9.049,-2.408 -9.049,-7.555c0,-5.978 4.649,-10.046 8.551,-12.371c2.989,-1.743 6.31,-2.988 9.714,-2.988Z" style="fill-rule:nonzero;"/><rect x="2417.73" y="240.944" width="2.698" height="85.558"/><path d="M2498.27,132.189c4.649,-0 9.049,2.408 9.049,7.555c-0,5.977 -4.649,10.046 -8.551,12.37c-2.989,1.744 -6.31,2.989 -9.714,2.989c-4.649,-0 -9.049,-2.408 -9.049,-7.555c-0,-5.978 4.649,-10.046 8.551,-12.37c2.989,-1.744 6.31,-2.989 9.714,-2.989Z" style="fill-rule:nonzero;"/><path d="M2293.41,49.167c4.649,-0 9.049,2.408 9.049,7.555c0,5.977 -4.649,10.046 -8.551,12.37c-2.989,1.744 -6.31,2.989 -9.714,2.989c-4.649,-0 -9.049,-2.408 -9.049,-7.555c-0,-5.978 4.649,-10.046 8.551,-12.37c2.989,-1.744 6.31,-2.989 9.714,-2.989Z" style="fill-rule:nonzero;"/><path d="M2293.41,246.344c4.649,0 9.049,2.408 9.049,7.555c0,5.978 -4.649,10.046 -8.551,12.37c-2.989,1.744 -6.31,2.989 -9.714,2.989c-4.649,0 -9.049,-2.407 -9.049,-7.555c-0,-5.977 4.649,-10.045 8.551,-12.37c2.989,-1.744 6.31,-2.989 9.714,-2.989Z" style="fill-rule:nonzero;"/><rect x="2275.14" y="64.523" width="2.698" height="58.425"/><rect x="2275.14" y="261.7" width="2.698" height="64.803"/><path d="M2344.22,225.589c4.649,-0 9.049,2.407 9.049,7.555c0,5.977 -4.649,10.045 -8.551,12.37c-2.989,1.743 -6.309,2.989 -9.713,2.989c-4.65,-0 -9.05,-2.408 -9.05,-7.555c0,-5.978 4.649,-10.046 8.552,-12.371c2.988,-1.743 6.309,-2.988 9.713,-2.988Z" style="fill-rule:nonzero;"/><rect x="2325.95" y="240.944" width="2.698" height="85.558"/><path d="M2543.88,225.589c4.649,-0 9.049,2.407 9.049,7.555c0,5.977 -4.649,10.045 -8.551,12.37c-2.989,1.743 -6.31,2.989 -9.713,2.989c-4.65,-0 -9.05,-2.408 -9.05,-7.555c0,-5.978 4.649,-10.046 8.551,-12.371c2.989,-1.743 6.31,-2.988 9.714,-2.988Z" style="fill-rule:nonzero;"/><rect x="2525.62" y="240.944" width="2.698" height="68.746"/><path d="M2584.86,246.344c4.65,0 9.05,2.408 9.05,7.555c-0,5.978 -4.649,10.046 -8.551,12.37c-2.989,1.744 -6.31,2.989 -9.714,2.989c-4.649,0 -9.049,-2.407 -9.049,-7.555c-0,-5.977 4.649,-10.045 8.551,-12.37c2.989,-1.744 6.31,-2.989 9.713,-2.989Z" style="fill-rule:nonzero;"/><rect x="2566.59" y="261.7" width="2.698" height="47.991"/><path d="M2635.66,142.567c4.649,-0 9.049,2.407 9.049,7.555c0,5.977 -4.649,10.045 -8.551,12.37c-2.989,1.743 -6.31,2.989 -9.714,2.989c-4.649,-0 -9.049,-2.408 -9.049,-7.555c-0,-5.978 4.649,-10.046 8.551,-12.371c2.989,-1.743 6.31,-2.988 9.714,-2.988Z" style="fill-rule:nonzero;"/><path d="M2635.66,225.589c4.649,-0 9.049,2.407 9.049,7.555c0,5.977 -4.649,10.045 -8.551,12.37c-2.989,1.743 -6.31,2.989 -9.714,2.989c-4.649,-0 -9.049,-2.408 -9.049,-7.555c-0,-5.978 4.649,-10.046 8.551,-12.371c2.989,-1.743 6.31,-2.988 9.714,-2.988Z" style="fill-rule:nonzero;"/><rect x="2642.02" y="85.247" width="2.698" height="64.878"/><path d="M2469,48.621c0,1.827 1.412,2.491 3.238,2.491c3.238,-0 5.978,-1.163 8.551,-2.325l0.416,-1.992c-1.91,-1.412 -4.152,-2.408 -6.725,-2.408c-2.657,-0 -5.48,1.328 -5.48,4.234Zm22.499,10.212c0,5.064 -3.902,9.547 -8.136,9.547c-3.238,0 -4.649,-3.653 -4.649,-7.555c-0,-1.162 0.083,-2.324 0.332,-3.404l1.245,-6.309c-2.573,1.079 -5.147,2.075 -8.385,2.075c-2.906,0 -4.981,-1.494 -4.981,-4.234c-0,-4.234 4.068,-6.642 7.97,-6.642c2.574,0 4.815,0.831 6.808,2.076l3.819,-19.261c0.498,0.249 1.079,0.415 1.66,0.415c1.827,-0 3.985,-1.328 5.646,-2.906l-4.4,22.084l5.313,-2.989c2.158,-1.162 4.234,-1.66 6.144,-1.66c2.407,-0 4.4,0.83 5.313,2.324c1.494,-1.66 3.653,-2.49 5.728,-2.49c2.989,-0 5.729,1.826 5.729,5.728c-0,3.736 -2.242,7.472 -5.396,7.472c-2.076,0 -3.155,-1.826 -3.155,-3.985c-0,-3.404 2.407,-5.313 4.981,-5.313l0.249,-0c-0.664,-1.163 -1.909,-1.661 -3.155,-1.661c-1.992,0 -4.151,1.329 -4.566,3.57l-4.483,22.416c-0.913,-0.581 -1.993,-0.913 -3.155,-0.913c-1.162,-0 -2.408,0.332 -3.57,0.913l4.483,-22.416l0,-0.581c0,-1.328 -0.996,-2.158 -2.407,-2.158c-0.582,-0 -1.329,0.249 -1.993,0.581l-6.559,3.653l-0.581,2.573c2.242,2.574 4.151,5.563 4.151,9.05Zm-4.981,5.396c1.91,0 2.906,-2.823 2.906,-5.064c-0,-2.491 -1.163,-4.566 -2.657,-6.476l-0.415,2.242c-0.332,1.494 -1.079,4.649 -1.079,6.891c-0,1.411 0.332,2.407 1.245,2.407Z" style="fill-rule:nonzero;"/><path d="M2498.27,235.966c4.649,0 9.049,2.408 9.049,7.555c-0,5.978 -4.649,10.046 -8.551,12.371c-2.989,1.743 -6.31,2.988 -9.714,2.988c-4.649,0 -9.049,-2.407 -9.049,-7.555c-0,-5.977 4.649,-10.045 8.551,-12.37c2.989,-1.743 6.31,-2.989 9.714,-2.989Z" style="fill-rule:nonzero;"/><path d="M2516.66,133.268c0,-2.574 2.076,-4.649 4.649,-4.649c2.574,-0 4.65,2.075 4.65,4.649c-0,2.574 -2.076,4.649 -4.65,4.649c-2.573,0 -4.649,-2.075 -4.649,-4.649Z" style="fill-rule:nonzero;"/><rect x="2504.62" y="77.514" width="2.698" height="62.235"/><rect x="2480" y="251.322" width="2.698" height="58.369"/><rect x="221.036" y="261.7" width="2.698" height="64.803"/><path d="M2018.62,246.344c4.65,0 9.05,2.408 9.05,7.555c-0,5.978 -4.65,10.046 -8.552,12.37c-2.988,1.744 -6.309,2.989 -9.713,2.989c-4.649,0 -9.05,-2.407 -9.05,-7.555c0,-5.977 4.65,-10.045 8.552,-12.37c2.989,-1.744 6.309,-2.989 9.713,-2.989Z" style="fill-rule:nonzero;"/><rect x="2000.35" y="261.7" width="2.698" height="64.803"/><path d="M25.519,257.635c-0,21.669 -8.468,42.839 -8.468,63.512c-0,11.208 2.49,21.669 10.71,29.888c0.249,0.249 0.249,0.747 0.249,0.996c-0,0.747 -0.499,1.494 -1.246,1.494c-0.249,0 -0.747,-0.249 -0.996,-0.498c-10.959,-11.208 -14.695,-25.902 -14.695,-41.594c0,-22.167 8.966,-43.835 8.966,-64.757c0,-11.208 -2.739,-21.669 -10.709,-29.888c-0.249,-0.249 -0.249,-0.249 -0.249,-0.498c-0,-0.249 -0,-0.249 0.249,-0.498c7.97,-8.219 10.709,-18.68 10.709,-29.888c0,-20.921 -8.966,-42.59 -8.966,-64.757c0,-15.691 3.736,-30.386 14.695,-41.594c0.249,-0.249 0.747,-0.498 0.996,-0.498c0.747,-0 1.246,0.747 1.246,1.494c-0,0.249 -0,0.747 -0.249,0.996c-8.22,8.22 -10.71,18.68 -10.71,29.888c-0,20.673 8.468,41.843 8.468,63.512c-0,15.442 -3.736,30.137 -14.446,41.345c10.71,11.208 14.446,25.903 14.446,41.345Z" style="fill-rule:nonzero;"/><rect x="32.991" y="80.343" width="3.321" height="271.897"/><path d="M239.301,18.034c4.649,-0 9.049,2.407 9.049,7.555c-0,5.977 -4.649,10.045 -8.551,12.37c-2.989,1.743 -6.31,2.989 -9.714,2.989c-4.649,-0 -9.049,-2.408 -9.049,-7.555c-0,-5.978 4.649,-10.046 8.551,-12.371c2.989,-1.743 6.31,-2.988 9.714,-2.988Z" style="fill-rule:nonzero;"/><path d="M82.057,121.894c0.332,0 0.747,-0.083 1.079,-0.083c12.869,0 21.254,10.627 21.254,21.669c-0,6.31 -2.74,12.785 -8.884,17.434c-1.826,1.412 -3.902,2.325 -6.06,2.989c0.249,2.906 0.415,5.812 0.415,8.718c-0,1.577 -0.083,3.237 -0.166,4.815c-0.581,9.962 -7.472,18.929 -17.269,18.929c-8.966,-0 -16.189,-7.306 -16.189,-16.355c0,-4.816 4.4,-8.552 9.299,-8.552c4.483,0 7.887,3.902 7.887,8.552c-0,4.317 -3.57,7.887 -7.887,7.887c-0.914,-0 -1.744,-0.166 -2.574,-0.499c2.158,3.238 5.645,5.397 9.713,5.397c7.971,-0 13.035,-7.638 13.533,-15.857c0.083,-1.495 0.166,-3.072 0.166,-4.566c0,-2.574 -0.083,-5.065 -0.332,-7.639c-2.408,0.416 -4.815,0.665 -7.389,0.665c-15.608,-0 -27.646,-14.28 -27.646,-31.051c-0,-14.694 10.876,-25.404 20.589,-36.612c-1.577,-5.148 -3.072,-10.378 -3.736,-15.774c-0.498,-4.318 -0.581,-8.635 -0.581,-12.952c0,-9.547 4.566,-18.597 12.37,-24.242c0.249,-0.166 0.581,-0.249 0.83,-0.249c0.333,-0 0.582,-0 0.831,0.249c5.894,6.974 11.042,20.34 11.042,29.722c-0,11.872 -7.14,21.17 -14.944,30.22c1.743,5.645 3.238,11.457 4.649,17.185Zm7.057,38.605c5.645,-1.992 9.381,-7.887 9.381,-13.615c0,-7.472 -5.479,-14.861 -14.363,-15.774c1.993,9.63 3.819,19.178 4.982,29.389Zm-32.13,-19.178c0,11.208 10.71,20.507 21.918,20.507c2.325,-0 4.566,-0.166 6.808,-0.498c-1.162,-10.544 -3.072,-20.341 -5.231,-30.22c-6.558,0.664 -10.294,5.064 -10.294,9.879c-0,3.653 2.075,7.555 6.725,10.212c0.415,0.415 0.581,0.83 0.581,1.245c-0,0.913 -0.831,1.827 -1.827,1.827c-0.249,-0 -0.498,-0.083 -0.747,-0.166c-6.642,-3.57 -9.714,-9.548 -9.714,-15.359c0,-7.306 4.816,-14.446 13.284,-16.356c-1.162,-4.815 -2.408,-9.713 -3.819,-14.529c-8.883,10.046 -17.684,20.175 -17.684,33.458Zm27.73,-84.433c-8.22,3.985 -13.45,12.37 -13.45,21.503c0,6.143 1.494,11.042 2.989,16.106c6.642,-8.053 12.121,-16.438 12.121,-26.899c0,-4.566 -0.332,-6.559 -1.66,-10.71Z" style="fill-rule:nonzero;"/><path d="M167.819,120.649c-4.068,-0 -6.227,-3.487 -6.227,-6.227c-0,-3.155 2.242,-6.393 5.978,-6.393c0.332,0 0.747,0 1.162,0.084c-2.325,-3.072 -5.978,-4.899 -9.963,-4.899c-8.8,0 -9.381,6.061 -9.381,15.442l-0,8.469c-0,9.381 0.581,15.525 9.381,15.525c6.642,-0 11.54,-5.812 13.118,-12.537c0.166,-0.581 0.581,-0.83 0.996,-0.83c0.498,0 1.079,0.332 1.079,0.996c0,7.804 -8.717,14.446 -15.193,14.446c-5.645,0 -11.374,-1.743 -15.276,-5.811c-4.068,-4.234 -5.479,-10.129 -5.479,-16.024c-0,-5.894 1.411,-11.789 5.479,-16.023c3.902,-4.068 9.631,-5.728 15.276,-5.728c7.223,-0 13.284,5.313 14.529,12.453c0.083,0.415 0.083,0.747 0.083,1.079c0,3.321 -2.491,5.978 -5.562,5.978Z" style="fill-rule:nonzero;"/><path d="M239.301,246.344c4.649,0 9.049,2.408 9.049,7.555c-0,5.978 -4.649,10.046 -8.551,12.37c-2.989,1.744 -6.31,2.989 -9.714,2.989c-4.649,0 -9.049,-2.407 -9.049,-7.555c-0,-5.977 4.649,-10.045 8.551,-12.37c2.989,-1.744 6.31,-2.989 9.714,-2.989Z" style="fill-rule:nonzero;"/><path d="M97.084,299.312c-0,-2.324 1.909,-4.234 4.234,-4.234c2.325,0 4.234,1.91 4.234,4.234c0,2.325 -1.909,4.234 -4.234,4.234c-2.325,0 -4.234,-1.909 -4.234,-4.234Zm-0,-20.755c-0,-2.325 1.909,-4.234 4.234,-4.234c2.325,-0 4.234,1.909 4.234,4.234c0,2.324 -1.909,4.234 -4.234,4.234c-2.325,-0 -4.234,-1.91 -4.234,-4.234Zm-26.982,-11.457c14.28,-0 24.325,7.306 24.325,20.838c0,21.835 -21.835,34.371 -42.839,43.255c-0.249,0.249 -0.498,0.332 -0.747,0.332c-0.582,-0 -1.08,-0.498 -1.08,-1.08c0,-0.249 0.083,-0.498 0.332,-0.747c16.771,-9.796 34.206,-22.001 34.206,-40.93c-0,-9.962 -5.231,-19.51 -14.197,-19.51c-6.144,0 -10.71,4.483 -12.786,10.461c0.914,-0.415 1.827,-0.664 2.823,-0.664c4.566,-0 8.302,3.736 8.302,8.302c0,4.815 -3.653,8.8 -8.302,8.8c-4.981,0 -9.298,-3.902 -9.298,-8.8c-0,-11.042 8.468,-20.257 19.261,-20.257Z" style="fill-rule:nonzero;"/><path d="M167.819,307.448c-4.068,0 -6.227,-3.487 -6.227,-6.226c-0,-3.155 2.242,-6.393 5.978,-6.393c0.332,-0 0.747,-0 1.162,0.083c-2.325,-3.072 -5.978,-4.898 -9.963,-4.898c-8.8,-0 -9.381,6.06 -9.381,15.442l-0,8.468c-0,9.381 0.581,15.525 9.381,15.525c6.642,0 11.54,-5.811 13.118,-12.536c0.166,-0.581 0.581,-0.83 0.996,-0.83c0.498,-0 1.079,0.332 1.079,0.996c0,7.804 -8.717,14.446 -15.193,14.446c-5.645,-0 -11.374,-1.744 -15.276,-5.812c-4.068,-4.234 -5.479,-10.129 -5.479,-16.023c-0,-5.895 1.411,-11.789 5.479,-16.023c3.902,-4.068 9.631,-5.729 15.276,-5.729c7.223,0 13.284,5.314 14.529,12.453c0.083,0.416 0.083,0.748 0.083,1.08c0,3.321 -2.491,5.977 -5.562,5.977Z" style="fill-rule:nonzero;"/><text x="-5.45px" y="59.586px" style="font-family:'LucidaGrande', 'Lucida Grande', sans-serif;font-weight:500;font-size:36.241px;">14</text><rect x="221.036" y="33.39" width="2.698" height="89.558"/><path d="M2202.18,49.167c4.649,-0 9.049,2.408 9.049,7.555c0,5.977 -4.649,10.046 -8.551,12.37c-2.989,1.744 -6.31,2.989 -9.713,2.989c-4.65,-0 -9.05,-2.408 -9.05,-7.555c0,-5.978 4.649,-10.046 8.551,-12.37c2.989,-1.744 6.31,-2.989 9.714,-2.989Z" style="fill-rule:nonzero;"/><path d="M2202.18,246.344c4.649,0 9.049,2.408 9.049,7.555c0,5.978 -4.649,10.046 -8.551,12.37c-2.989,1.744 -6.31,2.989 -9.713,2.989c-4.65,0 -9.05,-2.407 -9.05,-7.555c0,-5.977 4.649,-10.045 8.551,-12.37c2.989,-1.744 6.31,-2.989 9.714,-2.989Z" style="fill-rule:nonzero;"/><rect x="2183.91" y="64.523" width="2.698" height="58.265"/><rect x="2183.91" y="261.7" width="2.698" height="64.803"/><path d="M2250.39,38.789c4.649,0 9.049,2.408 9.049,7.555c0,5.978 -4.649,10.046 -8.551,12.37c-2.989,1.744 -6.31,2.989 -9.714,2.989c-4.649,0 -9.049,-2.407 -9.049,-7.555c-0,-5.977 4.649,-10.045 8.551,-12.37c2.989,-1.744 6.31,-2.989 9.714,-2.989Z" style="fill-rule:nonzero;"/><path d="M2250.39,225.589c4.649,-0 9.049,2.407 9.049,7.555c0,5.977 -4.649,10.045 -8.551,12.37c-2.989,1.743 -6.31,2.989 -9.714,2.989c-4.649,-0 -9.049,-2.408 -9.049,-7.555c-0,-5.978 4.649,-10.046 8.551,-12.371c2.989,-1.743 6.31,-2.988 9.714,-2.988Z" style="fill-rule:nonzero;"/><rect x="2232.12" y="54.145" width="2.698" height="64.907"/><rect x="2232.12" y="240.944" width="2.698" height="85.558"/><path d="M2069.42,225.589c4.649,-0 9.049,2.407 9.049,7.555c0,5.977 -4.649,10.045 -8.551,12.37c-2.989,1.743 -6.31,2.989 -9.714,2.989c-4.649,-0 -9.049,-2.408 -9.049,-7.555c-0,-5.978 4.649,-10.046 8.551,-12.371c2.989,-1.743 6.31,-2.988 9.714,-2.988Z" style="fill-rule:nonzero;"/><rect x="2051.16" y="240.944" width="2.698" height="85.558"/><path d="M2110.4,246.344c4.649,0 9.05,2.408 9.05,7.555c-0,5.978 -4.65,10.046 -8.552,12.37c-2.989,1.744 -6.309,2.989 -9.713,2.989c-4.65,0 -9.05,-2.407 -9.05,-7.555c0,-5.977 4.65,-10.045 8.552,-12.37c2.988,-1.744 6.309,-2.989 9.713,-2.989Z" style="fill-rule:nonzero;"/><rect x="2092.13" y="261.7" width="2.698" height="64.803"/><path d="M2161.2,225.589c4.65,-0 9.05,2.407 9.05,7.555c-0,5.977 -4.649,10.045 -8.551,12.37c-2.989,1.743 -6.31,2.989 -9.714,2.989c-4.649,-0 -9.049,-2.408 -9.049,-7.555c-0,-5.978 4.649,-10.046 8.551,-12.371c2.989,-1.743 6.31,-2.988 9.713,-2.988Z" style="fill-rule:nonzero;"/><rect x="2142.94" y="240.944" width="2.698" height="85.558"/><path d="M3095.45,225.589c4.649,-0 9.049,2.407 9.049,7.555c0,5.977 -4.649,10.045 -8.551,12.37c-2.989,1.743 -6.31,2.989 -9.714,2.989c-4.649,-0 -9.049,-2.408 -9.049,-7.555c0,-5.978 4.649,-10.046 8.551,-12.371c2.989,-1.743 6.31,-2.988 9.714,-2.988Z" style="fill-rule:nonzero;"/><rect x="3077.18" y="240.944" width="2.698" height="85.558"/><path d="M3135.75,256.722c4.649,-0 9.049,2.407 9.049,7.555c0,5.977 -4.649,10.046 -8.551,12.37c-2.989,1.744 -6.31,2.989 -9.714,2.989c-4.649,-0 -9.049,-2.408 -9.049,-7.555c-0,-5.978 4.649,-10.046 8.551,-12.37c2.989,-1.744 6.31,-2.989 9.714,-2.989Z" style="fill-rule:nonzero;"/><rect x="3117.48" y="272.078" width="2.698" height="54.425"/><path d="M3186.55,225.589c4.649,-0 9.049,2.407 9.049,7.555c0,5.977 -4.649,10.045 -8.551,12.37c-2.989,1.743 -6.31,2.989 -9.714,2.989c-4.649,-0 -9.049,-2.408 -9.049,-7.555c0,-5.978 4.649,-10.046 8.551,-12.371c2.989,-1.743 6.31,-2.988 9.714,-2.988Z" style="fill-rule:nonzero;"/><rect x="3168.28" y="240.944" width="2.698" height="85.558"/><path d="M2953.41,246.344c4.649,0 9.049,2.408 9.049,7.555c0,5.978 -4.649,10.046 -8.551,12.37c-2.989,1.744 -6.31,2.989 -9.714,2.989c-4.649,0 -9.049,-2.407 -9.049,-7.555c-0,-5.977 4.649,-10.045 8.551,-12.37c2.989,-1.744 6.31,-2.989 9.714,-2.989Z" style="fill-rule:nonzero;"/><rect x="2935.15" y="261.7" width="2.698" height="47.991"/><path d="M3004.22,225.589c4.649,-0 9.05,2.407 9.05,7.555c-0,5.977 -4.65,10.045 -8.552,12.37c-2.989,1.743 -6.309,2.989 -9.713,2.989c-4.65,-0 -9.05,-2.408 -9.05,-7.555c0,-5.978 4.65,-10.046 8.552,-12.371c2.988,-1.743 6.309,-2.988 9.713,-2.988Z" style="fill-rule:nonzero;"/><rect x="2985.95" y="240.944" width="2.698" height="68.746"/><path d="M3049.84,235.966c4.649,0 9.049,2.408 9.049,7.555c-0,5.978 -4.649,10.046 -8.551,12.371c-2.989,1.743 -6.31,2.988 -9.714,2.988c-4.649,0 -9.049,-2.407 -9.049,-7.555c-0,-5.977 4.649,-10.045 8.551,-12.37c2.989,-1.743 6.31,-2.989 9.714,-2.989Z" style="fill-rule:nonzero;"/><rect x="3031.57" y="251.322" width="2.698" height="75.181"/><rect x="312.817" y="261.7" width="2.698" height="64.803"/><path d="M381.887,225.589c4.649,-0 9.049,2.407 9.049,7.555c0,5.977 -4.649,10.045 -8.551,12.37c-2.989,1.743 -6.31,2.989 -9.714,2.989c-4.649,-0 -9.049,-2.408 -9.049,-7.555c-0,-5.978 4.649,-10.046 8.551,-12.371c2.989,-1.743 6.31,-2.988 9.714,-2.988Z" style="fill-rule:nonzero;"/><rect x="363.622" y="240.944" width="2.698" height="85.558"/><path d="M422.862,59.545c4.649,-0 9.05,2.407 9.05,7.555c-0,5.977 -4.65,10.045 -8.552,12.37c-2.988,1.743 -6.309,2.989 -9.713,2.989c-4.65,-0 -9.05,-2.408 -9.05,-7.555c0,-5.978 4.65,-10.046 8.552,-12.371c2.988,-1.743 6.309,-2.988 9.713,-2.988Z" style="fill-rule:nonzero;"/><path d="M422.862,246.344c4.649,0 9.05,2.408 9.05,7.555c-0,5.978 -4.65,10.046 -8.552,12.37c-2.988,1.744 -6.309,2.989 -9.713,2.989c-4.65,0 -9.05,-2.407 -9.05,-7.555c0,-5.977 4.65,-10.045 8.552,-12.37c2.988,-1.744 6.309,-2.989 9.713,-2.989Z" style="fill-rule:nonzero;"/><path d="M441.256,71.002c-0,-2.574 2.075,-4.65 4.649,-4.65c2.574,0 4.649,2.076 4.649,4.65c0,2.573 -2.075,4.649 -4.649,4.649c-2.574,-0 -4.649,-2.076 -4.649,-4.649Z" style="fill-rule:nonzero;"/><rect x="404.597" y="74.901" width="2.698" height="68.746"/><path d="M290.104,225.589c4.649,-0 9.049,2.407 9.049,7.555c0,5.977 -4.649,10.045 -8.551,12.37c-2.989,1.743 -6.31,2.989 -9.714,2.989c-4.649,-0 -9.049,-2.408 -9.049,-7.555c-0,-5.978 4.649,-10.046 8.551,-12.371c2.989,-1.743 6.31,-2.988 9.714,-2.988Z" style="fill-rule:nonzero;"/><rect x="271.839" y="240.944" width="2.698" height="85.558"/><path d="M331.081,38.789c4.65,0 9.05,2.408 9.05,7.555c-0,5.978 -4.649,10.046 -8.552,12.37c-2.988,1.744 -6.309,2.989 -9.713,2.989c-4.649,0 -9.049,-2.407 -9.049,-7.555c-0,-5.977 4.649,-10.045 8.551,-12.37c2.989,-1.744 6.309,-2.989 9.713,-2.989Z" style="fill-rule:nonzero;"/><path d="M331.081,246.344c4.65,0 9.05,2.408 9.05,7.555c-0,5.978 -4.649,10.046 -8.552,12.37c-2.988,1.744 -6.309,2.989 -9.713,2.989c-4.649,0 -9.049,-2.407 -9.049,-7.555c-0,-5.977 4.649,-10.045 8.551,-12.37c2.989,-1.744 6.309,-2.989 9.713,-2.989Z" style="fill-rule:nonzero;"/><rect x="312.817" y="54.145" width="2.698" height="72.634"/><path d="M2729.43,225.589c4.649,-0 9.049,2.407 9.049,7.555c0,5.977 -4.649,10.045 -8.551,12.37c-2.989,1.743 -6.31,2.989 -9.714,2.989c-4.649,-0 -9.049,-2.408 -9.049,-7.555c-0,-5.978 4.649,-10.046 8.551,-12.371c2.989,-1.743 6.31,-2.988 9.714,-2.988Z" style="fill-rule:nonzero;"/><rect x="2711.16" y="240.944" width="2.698" height="88.086"/><path d="M2770.4,246.344c4.649,0 9.05,2.408 9.05,7.555c-0,5.978 -4.65,10.046 -8.552,12.37c-2.988,1.744 -6.309,2.989 -9.713,2.989c-4.649,0 -9.05,-2.407 -9.05,-7.555c0,-5.977 4.65,-10.045 8.552,-12.37c2.988,-1.744 6.309,-2.989 9.713,-2.989Z" style="fill-rule:nonzero;"/><rect x="2752.14" y="261.7" width="2.698" height="66.218"/><path d="M2821.2,225.589c4.65,-0 9.05,2.407 9.05,7.555c-0,5.977 -4.649,10.045 -8.551,12.37c-2.989,1.743 -6.31,2.989 -9.714,2.989c-4.649,-0 -9.049,-2.408 -9.049,-7.555c-0,-5.978 4.649,-10.046 8.551,-12.371c2.989,-1.743 6.31,-2.988 9.713,-2.988Z" style="fill-rule:nonzero;"/><rect x="2802.94" y="240.944" width="2.698" height="85.596"/><path d="M2605.24,179.927c0,0.83 -0.664,1.577 -1.494,1.577c-0.83,-0 -1.578,-0.747 -1.578,-1.577l0,-12.039l-6.89,2.574l-0,13.117c-0,0.831 -0.748,1.578 -1.578,1.578c-0.83,-0 -1.494,-0.747 -1.494,-1.578l-0,-12.038l-2.657,0.997c-0.166,0.083 -0.415,0.083 -0.581,0.083c-0.913,-0 -1.661,-0.748 -1.661,-1.661l0,-4.981c0,-0.664 0.416,-1.329 1.08,-1.578l3.819,-1.328l-0,-13.283l-2.657,0.913c-0.166,0.083 -0.415,0.083 -0.581,0.083c-0.913,-0 -1.661,-0.747 -1.661,-1.661l0,-4.981c0,-0.664 0.416,-1.245 1.08,-1.494l3.819,-1.412l-0,-13.117c-0,-0.83 0.664,-1.578 1.494,-1.578c0.83,0 1.578,0.748 1.578,1.578l-0,12.038l6.89,-2.574l0,-13.117c0,-0.83 0.748,-1.578 1.578,-1.578c0.83,0 1.494,0.748 1.494,1.578l0,12.038l2.657,-0.996c0.166,-0.083 0.415,-0.083 0.581,-0.083c0.913,-0 1.661,0.747 1.661,1.66l-0,4.981c-0,0.665 -0.416,1.329 -1.08,1.578l-3.819,1.328l0,13.284l2.657,-0.913c0.166,-0.083 0.415,-0.083 0.581,-0.083c0.913,-0 1.661,0.747 1.661,1.66l-0,4.981c-0,0.664 -0.416,1.246 -1.08,1.495l-3.819,1.411l0,13.118Zm-9.962,-31.3l-0,13.284l6.89,-2.491l0,-13.283l-6.89,2.49Z" style="fill-rule:nonzero;"/><rect x="2617.4" y="240.944" width="2.698" height="68.746"/><path d="M2678.62,142.567c4.65,-0 9.05,2.407 9.05,7.555c-0,5.977 -4.649,10.045 -8.552,12.37c-2.988,1.743 -6.309,2.989 -9.713,2.989c-4.649,-0 -9.049,-2.408 -9.049,-7.555c-0,-5.978 4.649,-10.046 8.551,-12.371c2.989,-1.743 6.309,-2.988 9.713,-2.988Z" style="fill-rule:nonzero;"/><path d="M2678.62,256.722c4.65,-0 9.05,2.407 9.05,7.555c-0,5.977 -4.649,10.046 -8.552,12.37c-2.988,1.744 -6.309,2.989 -9.713,2.989c-4.649,-0 -9.049,-2.408 -9.049,-7.555c-0,-5.978 4.649,-10.046 8.551,-12.37c2.989,-1.744 6.309,-2.989 9.713,-2.989Z" style="fill-rule:nonzero;"/><rect x="2684.97" y="81.38" width="2.698" height="68.746"/><rect x="2660.36" y="272.078" width="2.698" height="58.331"/><rect x="2894.17" y="240.944" width="2.698" height="68.746"/><path d="M2912.44,225.589c4.65,-0 9.05,2.407 9.05,7.555c-0,5.977 -4.65,10.045 -8.552,12.37c-2.988,1.743 -6.309,2.989 -9.713,2.989c-4.649,-0 -9.05,-2.408 -9.05,-7.555c0,-5.978 4.65,-10.046 8.552,-12.371c2.989,-1.743 6.309,-2.988 9.713,-2.988Z" style="fill-rule:nonzero;"/><rect x="2848.56" y="251.322" width="2.698" height="58.369"/><path d="M2866.82,235.966c4.649,0 9.049,2.408 9.049,7.555c0,5.978 -4.649,10.046 -8.551,12.371c-2.989,1.743 -6.31,2.988 -9.714,2.988c-4.649,0 -9.049,-2.407 -9.049,-7.555c0,-5.977 4.649,-10.045 8.551,-12.37c2.989,-1.743 6.31,-2.989 9.714,-2.989Z" style="fill-rule:nonzero;"/><path d="M2878.86,122.89l-29.473,0c-0.498,0 -0.83,-0.332 -0.83,-0.83l0,-11.291c0,-0.498 0.332,-0.83 0.83,-0.83l29.473,-0c0.498,-0 0.83,0.332 0.83,0.83l0,11.291c0,0.498 -0.332,0.83 -0.83,0.83Z" style="fill-rule:nonzero;"/></svg>