<?xml version="1.0" encoding="UTF-8" standalone="no"?>
<!DOCTYPE svg PUBLIC "-//W3C//DTD SVG 1.1//EN" "http://www.w3.org/Graphics/SVG/1.1/DTD/svg11.dtd">
<svg width="100%" height="100%" viewBox="0 0 119 46" version="1.1" xmlns="http://www.w3.org/2000/svg" xmlns:xlink="http://www.w3.org/1999/xlink" xml:space="preserve" xmlns:serif="http://www.serif.com/" style="fill-rule:evenodd;clip-rule:evenodd;stroke-linecap:round;stroke-linejoin:round;">
    <g transform="matrix(1,0,0,1,-113.386,-61.3753)">
        <g transform="matrix(1,0,0,1,113.386,98.8105)">
            <path d="M0.249,0L118.493,0" style="fill:none;fill-rule:nonzero;stroke:black;stroke-width:0.5px;"/>
        </g>
        <g transform="matrix(1,0,0,1,113.386,93.8291)">
            <path d="M0.249,0L118.493,0" style="fill:none;fill-rule:nonzero;stroke:black;stroke-width:0.5px;"/>
        </g>
        <g transform="matrix(1,0,0,1,113.386,88.8478)">
            <path d="M0.249,0L118.493,0" style="fill:none;fill-rule:nonzero;stroke:black;stroke-width:0.5px;"/>
        </g>
        <g transform="matrix(1,0,0,1,113.386,83.8665)">
            <path d="M0.249,0L118.493,0" style="fill:none;fill-rule:nonzero;stroke:black;stroke-width:0.5px;"/>
        </g>
        <g transform="matrix(1,0,0,1,113.386,78.8852)">
            <path d="M0.249,0L118.493,0" style="fill:none;fill-rule:nonzero;stroke:black;stroke-width:0.5px;"/>
        </g>
        <g transform="matrix(1,0,0,1,231.181,88.8478)">
            <rect x="0" y="-9.963" width="0.946" height="19.925"/>
        </g>
        <g transform="matrix(1,0,0,1,190.583,88.8478)">
            <rect x="0" y="-9.963" width="0.946" height="19.925"/>
        </g>
        <g>
            <g transform="matrix(0.004,0,0,-0.004,173.814,69.1462)">
                <path d="M-139.477,209.215C-154.421,189.29 -179.327,179.328 -199.253,179.328C-239.103,179.328 -278.954,214.197 -278.954,259.029C-278.954,273.973 -273.972,293.898 -259.028,308.842L273.973,946.451C303.861,986.301 338.73,1001.25 373.599,1001.25C493.151,1001.25 627.647,806.974 762.142,662.516C831.881,587.796 931.507,547.945 1026.15,547.945C1110.84,547.945 1190.54,572.852 1260.27,632.628L1384.81,787.048C1399.75,806.974 1424.66,816.936 1444.58,816.936C1484.43,816.936 1524.28,782.067 1524.28,737.235C1524.28,722.291 1519.3,702.366 1504.36,687.422L971.358,49.813C941.47,9.963 906.6,-4.981 871.731,-4.981C752.18,-4.981 617.684,189.29 483.188,333.748C413.45,408.468 313.823,448.319 219.178,448.319C134.496,448.319 54.795,423.412 -14.944,363.636L-139.477,209.215Z" style="fill-rule:nonzero;"/>
            </g>
            <g transform="matrix(0.004,0,0,-0.004,168.833,69.1462)">
                <path d="M-139.477,209.215C-154.421,189.29 -179.327,179.328 -199.253,179.328C-239.103,179.328 -278.954,214.197 -278.954,259.029C-278.954,273.973 -273.972,293.898 -259.028,308.842L273.973,946.451C303.861,986.301 338.73,1001.25 373.599,1001.25C493.151,1001.25 627.647,806.974 762.142,662.516C831.881,587.796 931.507,547.945 1026.15,547.945C1110.84,547.945 1190.54,572.852 1260.27,632.628L1384.81,787.048C1399.75,806.974 1424.66,816.936 1444.58,816.936C1484.43,816.936 1524.28,782.067 1524.28,737.235C1524.28,722.291 1519.3,702.366 1504.36,687.422L971.358,49.813C941.47,9.963 906.6,-4.981 871.731,-4.981C752.18,-4.981 617.684,189.29 483.188,333.748C413.45,408.468 313.823,448.319 219.178,448.319C134.496,448.319 54.795,423.412 -14.944,363.636L-139.477,209.215Z" style="fill-rule:nonzero;"/>
            </g>
            <g transform="matrix(0.004,0,0,-0.004,163.852,69.1462)">
                <path d="M-139.477,209.215C-154.421,189.29 -179.327,179.328 -199.253,179.328C-239.103,179.328 -278.954,214.197 -278.954,259.029C-278.954,273.973 -273.972,293.898 -259.028,308.842L273.973,946.451C303.861,986.301 338.73,1001.25 373.599,1001.25C493.151,1001.25 627.647,806.974 762.142,662.516C831.881,587.796 931.507,547.945 1026.15,547.945C1110.84,547.945 1190.54,572.852 1260.27,632.628L1384.81,787.048C1399.75,806.974 1424.66,816.936 1444.58,816.936C1484.43,816.936 1524.28,782.067 1524.28,737.235C1524.28,722.291 1519.3,702.366 1504.36,687.422L971.358,49.813C941.47,9.963 906.6,-4.981 871.731,-4.981C752.18,-4.981 617.684,189.29 483.188,333.748C413.45,408.468 313.823,448.319 219.178,448.319C134.496,448.319 54.795,423.412 -14.944,363.636L-139.477,209.215Z" style="fill-rule:nonzero;"/>
            </g>
            <g transform="matrix(0.004,0,0,-0.004,158.87,69.1462)">
                <path d="M-139.477,209.215C-154.421,189.29 -179.327,179.328 -199.253,179.328C-239.103,179.328 -278.954,214.197 -278.954,259.029C-278.954,273.973 -273.972,293.898 -259.028,308.842L273.973,946.451C303.861,986.301 338.73,1001.25 373.599,1001.25C493.151,1001.25 627.647,806.974 762.142,662.516C831.881,587.796 931.507,547.945 1026.15,547.945C1110.84,547.945 1190.54,572.852 1260.27,632.628L1384.81,787.048C1399.75,806.974 1424.66,816.936 1444.58,816.936C1484.43,816.936 1524.28,782.067 1524.28,737.235C1524.28,722.291 1519.3,702.366 1504.36,687.422L971.358,49.813C941.47,9.963 906.6,-4.981 871.731,-4.981C752.18,-4.981 617.684,189.29 483.188,333.748C413.45,408.468 313.823,448.319 219.178,448.319C134.496,448.319 54.795,423.412 -14.944,363.636L-139.477,209.215Z" style="fill-rule:nonzero;"/>
            </g>
            <g transform="matrix(0.004,0,0,-0.004,153.889,69.1462)">
                <path d="M-139.477,209.215C-154.421,189.29 -179.327,179.328 -199.253,179.328C-239.103,179.328 -278.954,214.197 -278.954,259.029C-278.954,273.973 -273.972,293.898 -259.028,308.842L273.973,946.451C303.861,986.301 338.73,1001.25 373.599,1001.25C493.151,1001.25 627.647,806.974 762.142,662.516C831.881,587.796 931.507,547.945 1026.15,547.945C1110.84,547.945 1190.54,572.852 1260.27,632.628L1384.81,787.048C1399.75,806.974 1424.66,816.936 1444.58,816.936C1484.43,816.936 1524.28,782.067 1524.28,737.235C1524.28,722.291 1519.3,702.366 1504.36,687.422L971.358,49.813C941.47,9.963 906.6,-4.981 871.731,-4.981C752.18,-4.981 617.684,189.29 483.188,333.748C413.45,408.468 313.823,448.319 219.178,448.319C134.496,448.319 54.795,423.412 -14.944,363.636L-139.477,209.215Z" style="fill-rule:nonzero;"/>
            </g>
        </g>
        <g transform="matrix(0.004,0,0,-0.004,147.164,72.135)">
            <path d="M-1479.45,1130.76C-1479.45,1021.17 -1394.77,981.32 -1285.18,981.32C-1090.91,981.32 -926.525,1051.06 -772.104,1120.8L-747.198,1240.35C-861.768,1325.03 -996.264,1384.81 -1150.68,1384.81C-1310.09,1384.81 -1479.45,1305.11 -1479.45,1130.76ZM-129.514,518.057C-129.514,214.197 -363.636,-54.795 -617.683,-54.795C-811.955,-54.795 -896.637,164.384 -896.637,398.506C-896.637,468.244 -891.656,537.983 -876.712,602.74L-801.992,981.32C-956.413,916.563 -1110.83,856.787 -1305.11,856.787C-1479.45,856.787 -1603.99,946.451 -1603.99,1110.83C-1603.99,1364.88 -1359.9,1509.34 -1125.78,1509.34C-971.357,1509.34 -836.861,1459.53 -717.31,1384.81L-488.169,2540.47C-458.281,2525.53 -423.412,2515.57 -388.543,2515.57C-278.954,2515.57 -149.439,2595.27 -49.813,2689.91L-313.823,1364.88L4.982,1544.21C134.496,1613.95 259.029,1643.84 373.599,1643.84C518.057,1643.84 637.609,1594.02 692.404,1504.36C782.067,1603.99 911.582,1653.8 1036.12,1653.8C1215.44,1653.8 1379.83,1544.21 1379.83,1310.09C1379.83,1085.93 1245.33,861.768 1056.04,861.768C931.507,861.768 866.75,971.357 866.75,1100.87C866.75,1305.11 1011.21,1419.68 1165.63,1419.68L1180.57,1419.68C1140.72,1489.41 1066,1519.3 991.283,1519.3C871.731,1519.3 742.217,1439.6 717.31,1305.11L448.319,-39.851C393.524,-4.981 328.767,14.944 259.029,14.944C189.29,14.944 114.571,-4.981 44.832,-39.851L313.823,1305.11L313.823,1339.98C313.823,1419.68 254.048,1469.49 169.365,1469.49C134.496,1469.49 89.664,1454.55 49.813,1434.62L-343.711,1215.44L-378.58,1061.02C-244.084,906.6 -129.514,727.273 -129.514,518.057ZM-428.393,194.271C-313.823,194.271 -254.047,363.636 -254.047,498.132C-254.047,647.572 -323.786,772.105 -413.449,886.675L-438.356,752.179C-458.281,662.516 -503.113,473.225 -503.113,338.73C-503.113,254.047 -483.188,194.271 -428.393,194.271Z" style="fill-rule:nonzero;"/>
        </g>
        <g transform="matrix(1,0,0,1,174.795,88.8478)">
            <rect x="-0.324" y="-12.528" width="0.648" height="11.958"/>
        </g>
        <g transform="matrix(1,0,0,1,174.471,76.3945)">
            <path d="M7.512,-2.54L7.512,-1.026L0.2,0.757L0.2,-0.757L7.512,-2.54Z" style="fill-rule:nonzero;stroke:black;stroke-width:0.4px;"/>
        </g>
        <g transform="matrix(1,0,0,1,174.471,79.6224)">
            <path d="M7.512,-2.54L7.512,-1.026L0.2,0.757L0.2,-0.757L7.512,-2.54Z" style="fill-rule:nonzero;stroke:black;stroke-width:0.4px;"/>
        </g>
        <g transform="matrix(1,0,0,1,181.858,88.8478)">
            <rect x="-0.324" y="-14.162" width="0.648" height="11.101"/>
        </g>
        <g transform="matrix(0.0028,0,0,-0.0028,177.609,86.3572)">
            <path d="M1036.12,692.403C1339.98,692.403 1618.93,528.02 1618.93,199.253C1618.93,-154.421 1359.9,-393.524 1125.78,-533.001C956.414,-632.628 772.105,-692.403 577.833,-692.403C273.973,-692.403 0,-528.02 0,-199.253C0,154.421 254.048,393.524 488.17,533.001C657.534,632.628 841.843,692.403 1036.12,692.403Z" style="fill-rule:nonzero;"/>
        </g>
        <g transform="matrix(0.0028,0,0,-0.0028,170.546,88.8478)">
            <path d="M1036.12,692.403C1339.98,692.403 1618.93,528.02 1618.93,199.253C1618.93,-154.421 1359.9,-393.524 1125.78,-533.001C956.414,-632.628 772.105,-692.403 577.833,-692.403C273.973,-692.403 0,-528.02 0,-199.253C0,154.421 254.048,393.524 488.17,533.001C657.534,632.628 841.843,692.403 1036.12,692.403Z" style="fill-rule:nonzero;"/>
        </g>
        <g transform="matrix(0.0025,0,0,-0.0025,161.492,83.8665)">
            <path d="M1016.19,702.366C1330.01,702.366 1613.95,528.02 1613.95,189.29C1613.95,-159.402 1364.88,-403.487 1130.76,-542.964C966.376,-642.59 782.067,-702.366 592.777,-702.366C278.954,-702.366 0,-528.02 0,-189.29C0,159.402 244.085,403.487 478.207,542.964C642.59,642.59 826.899,702.366 1016.19,702.366Z" style="fill-rule:nonzero;"/>
        </g>
        <g transform="matrix(0.0025,0,0,-0.0025,157.044,83.8665)">
            <path d="M986.302,-1628.89C921.544,-1628.89 866.75,-1574.1 866.75,-1509.34L866.75,-866.75L503.114,-1011.21L503.114,-1748.44C503.114,-1813.2 448.319,-1868 383.562,-1868C318.805,-1868 268.992,-1813.2 268.992,-1748.44L268.992,-1105.85L219.178,-1125.78C199.253,-1135.74 179.328,-1135.74 159.402,-1135.74C74.72,-1135.74 0,-1066 0,-976.339L0,-747.198C0,-682.441 39.851,-627.646 99.627,-602.74L268.992,-533.001L268.992,204.234L219.178,184.309C199.253,174.346 179.328,169.365 159.402,169.365C74.72,169.365 0,239.103 0,328.767L0,557.908C0,622.665 39.851,682.441 99.627,707.347L268.992,772.105L268.992,1509.34C268.992,1574.1 318.805,1628.89 383.562,1628.89C448.319,1628.89 503.114,1574.1 503.114,1509.34L503.114,866.75L866.75,1011.21L866.75,1748.44C866.75,1813.2 921.544,1868 986.302,1868C1051.06,1868 1100.87,1813.2 1100.87,1748.44L1100.87,1105.85L1150.68,1125.78C1170.61,1135.74 1190.54,1135.74 1210.46,1135.74C1295.14,1135.74 1369.86,1066 1369.86,976.339L1369.86,747.198C1369.86,682.441 1330.01,627.646 1270.24,602.74L1100.87,533.001L1100.87,-204.234L1150.68,-184.309C1170.61,-174.346 1190.54,-169.365 1210.46,-169.365C1295.14,-169.365 1369.86,-239.103 1369.86,-328.767L1369.86,-557.908C1369.86,-622.665 1330.01,-682.441 1270.24,-707.347L1100.87,-772.105L1100.87,-1509.34C1100.87,-1574.1 1051.06,-1628.89 986.302,-1628.89ZM503.114,293.898L503.114,-443.337L866.75,-293.898L866.75,443.337L503.114,293.898Z" style="fill-rule:nonzero;"/>
        </g>
        <g transform="matrix(0.0025,0,0,-0.0025,155.549,83.8665)">
            <path d="M-473.225,0C-473.225,-418.431 -418.431,-851.806 -179.327,-1195.52C-169.365,-1210.46 -159.402,-1230.39 -159.402,-1245.33C-159.402,-1295.14 -204.234,-1334.99 -249.066,-1334.99C-273.972,-1334.99 -298.879,-1320.05 -318.804,-1295.14C-587.795,-911.581 -772.104,-468.244 -772.104,0C-772.104,468.244 -587.795,911.581 -318.804,1295.14C-298.879,1320.05 -273.972,1334.99 -249.066,1334.99C-204.234,1334.99 -159.402,1295.14 -159.402,1245.33C-159.402,1230.39 -169.365,1210.46 -179.327,1195.52C-418.431,851.806 -473.225,418.431 -473.225,0Z" style="fill-rule:nonzero;"/>
        </g>
        <g transform="matrix(0.0025,0,0,-0.0025,167.048,83.8665)">
            <path d="M473.226,0C473.226,418.431 418.431,851.806 179.328,1195.52C169.365,1210.46 159.402,1230.39 159.402,1245.33C159.402,1295.14 204.234,1334.99 249.066,1334.99C273.973,1334.99 298.879,1320.05 318.805,1295.14C587.796,911.581 772.105,468.244 772.105,0C772.105,-468.244 587.796,-911.581 318.805,-1295.14C298.879,-1320.05 273.973,-1334.99 249.066,-1334.99C204.234,-1334.99 159.402,-1295.14 159.402,-1245.33C159.402,-1230.39 169.365,-1210.46 179.328,-1195.52C418.431,-851.806 473.226,-418.431 473.226,0Z" style="fill-rule:nonzero;"/>
        </g>
        <g transform="matrix(0.004,0,0,-0.004,117.371,93.8291)">
            <path d="M1325.03,-3163.14L1295.14,-3163.14C757.161,-3163.14 323.786,-2724.78 323.786,-2181.82C323.786,-1892.9 587.796,-1668.74 881.694,-1668.74C1150.68,-1668.74 1354.92,-1902.86 1354.92,-2181.82C1354.92,-2440.85 1140.72,-2655.04 881.694,-2655.04C826.899,-2655.04 777.086,-2645.08 727.273,-2625.16C856.787,-2819.43 1066,-2948.94 1310.09,-2948.94L1330.01,-2948.94L1325.03,-3163.14ZM2296.39,-1011.21C2635.12,-891.656 2859.28,-537.983 2859.28,-194.271C2859.28,254.047 2530.51,697.385 1997.51,752.179C2117.06,174.346 2226.65,-398.506 2296.39,-1011.21ZM368.618,139.477C368.618,-533.001 1011.21,-1090.91 1683.69,-1090.91C1823.16,-1090.91 1957.66,-1080.95 2092.15,-1061.02C2022.42,-428.393 1907.85,159.402 1778.33,752.179C1384.81,712.329 1160.65,448.319 1160.65,159.402C1160.65,-59.776 1285.18,-293.898 1564.13,-453.3C1589.04,-478.207 1599,-503.113 1599,-528.02C1599,-582.814 1549.19,-637.609 1489.41,-637.609C1474.47,-637.609 1459.53,-632.628 1444.58,-627.646C1046.08,-413.45 861.769,-54.795 861.769,293.898C861.769,732.254 1150.68,1160.65 1658.78,1275.22C1589.04,1564.13 1514.32,1858.03 1429.64,2146.95C896.638,1544.21 368.618,936.488 368.618,139.477ZM1668.74,-1305.11C732.254,-1305.11 9.963,-448.319 9.963,557.908C9.963,1439.6 662.516,2082.19 1245.33,2754.67C1150.68,3063.51 1061.02,3377.34 1021.17,3701.12C991.283,3960.15 986.302,4219.18 986.302,4478.21C986.302,5051.06 1260.27,5594.02 1728.52,5932.75C1758.41,5957.66 1798.26,5957.66 1828.14,5932.75C2181.82,5514.32 2490.66,4712.33 2490.66,4149.44C2490.66,3437.11 2062.27,2879.2 1594.02,2336.24C1698.63,1997.51 1788.29,1648.82 1872.98,1305.11C1892.9,1305.11 1917.81,1310.09 1937.73,1310.09C2709.84,1310.09 3212.95,672.478 3212.95,9.963C3212.95,-368.618 3048.57,-757.161 2679.95,-1036.11C2570.36,-1120.8 2445.83,-1175.59 2316.31,-1215.44C2331.26,-1389.79 2341.22,-1564.13 2341.22,-1738.48C2341.22,-1833.13 2336.24,-1932.75 2331.26,-2027.4C2296.39,-2620.17 1892.9,-3148.19 1325.03,-3163.14L1330.01,-2948.94C1793.28,-2938.98 2092.15,-2490.66 2122.04,-1997.51C2127.02,-1907.85 2132.01,-1813.2 2132.01,-1723.54C2132.01,-1569.12 2127.02,-1419.68 2112.08,-1265.26C1967.62,-1290.16 1823.16,-1305.11 1668.74,-1305.11ZM2132.01,4562.89C2132.01,4836.86 2112.08,4956.41 2032.38,5205.48C1539.23,4966.38 1225.4,4463.26 1225.4,3915.32C1225.4,3546.7 1315.07,3252.8 1404.73,2948.94C1803.24,3432.13 2132.01,3935.24 2132.01,4562.89Z" style="fill-rule:nonzero;"/>
        </g>
        <g transform="matrix(0.004,0,0,-0.004,142.277,86.3572)">
            <path d="M1061.02,557.908C811.955,557.908 717.31,343.711 717.31,119.552C717.31,-264.01 1001.25,-557.908 1384.81,-557.908C1633.87,-557.908 1728.52,-343.711 1728.52,-119.552C1728.52,264.01 1444.58,557.908 1061.02,557.908ZM2445.83,0C2445.83,-214.197 2276.46,-373.599 2087.17,-478.207C1823.16,-622.665 1519.3,-677.459 1220.42,-677.459C921.544,-677.459 622.665,-622.665 358.655,-478.207C169.365,-373.599 0,-214.197 0,0C0,214.197 169.365,373.599 358.655,478.207C622.665,622.665 921.544,677.459 1220.42,677.459C1519.3,677.459 1823.16,622.665 2087.17,478.207C2276.46,373.599 2445.83,214.197 2445.83,0Z" style="fill-rule:nonzero;"/>
        </g>
        <g transform="matrix(0.004,0,0,-0.004,200.994,83.8665)">
            <path d="M1061.02,557.908C811.955,557.908 717.31,343.711 717.31,119.552C717.31,-264.01 1001.25,-557.908 1384.81,-557.908C1633.87,-557.908 1728.52,-343.711 1728.52,-119.552C1728.52,264.01 1444.58,557.908 1061.02,557.908ZM2445.83,0C2445.83,-214.197 2276.46,-373.599 2087.17,-478.207C1823.16,-622.665 1519.3,-677.459 1220.42,-677.459C921.544,-677.459 622.665,-622.665 358.655,-478.207C169.365,-373.599 0,-214.197 0,0C0,214.197 169.365,373.599 358.655,478.207C622.665,622.665 921.544,677.459 1220.42,677.459C1519.3,677.459 1823.16,622.665 2087.17,478.207C2276.46,373.599 2445.83,214.197 2445.83,0Z" style="fill-rule:nonzero;"/>
        </g>
        <g transform="matrix(0.004,0,0,-0.004,135.055,86.3572)">
            <path d="M1075.96,-1554.17C1075.96,-1603.99 1036.12,-1648.82 986.302,-1648.82C936.488,-1648.82 891.656,-1603.99 891.656,-1554.17L891.656,-831.88L478.207,-986.301L478.207,-1773.35C478.207,-1823.16 433.375,-1868 383.562,-1868C333.749,-1868 293.898,-1823.16 293.898,-1773.35L293.898,-1051.06L134.496,-1110.83C124.533,-1115.82 109.589,-1115.82 99.627,-1115.82C44.832,-1115.82 0,-1070.98 0,-1016.19L0,-717.31C0,-677.459 24.907,-637.609 64.757,-622.665L293.898,-542.964L293.898,254.047L134.496,199.253C124.533,194.271 109.589,194.271 99.627,194.271C44.832,194.271 0,239.103 0,293.898L0,592.777C0,632.628 24.907,667.497 64.757,682.441L293.898,767.123L293.898,1554.17C293.898,1603.99 333.749,1648.82 383.562,1648.82C433.375,1648.82 478.207,1603.99 478.207,1554.17L478.207,831.88L891.656,986.301L891.656,1773.35C891.656,1823.16 936.488,1868 986.302,1868C1036.12,1868 1075.96,1823.16 1075.96,1773.35L1075.96,1051.06L1235.37,1110.83C1245.33,1115.82 1260.27,1115.82 1270.24,1115.82C1325.03,1115.82 1369.86,1070.98 1369.86,1016.19L1369.86,717.31C1369.86,677.459 1344.96,637.609 1305.11,622.665L1075.96,542.964L1075.96,-254.047L1235.37,-199.253C1245.33,-194.271 1260.27,-194.271 1270.24,-194.271C1325.03,-194.271 1369.86,-239.103 1369.86,-293.898L1369.86,-592.777C1369.86,-632.628 1344.96,-667.497 1305.11,-682.441L1075.96,-767.123L1075.96,-1554.17ZM478.207,323.786L478.207,-473.225L891.656,-323.786L891.656,473.225L478.207,323.786Z" style="fill-rule:nonzero;"/>
        </g>
    </g>
</svg>
