<?xml version="1.0" encoding="UTF-8" standalone="no"?>
<!DOCTYPE svg PUBLIC "-//W3C//DTD SVG 1.1//EN" "http://www.w3.org/Graphics/SVG/1.1/DTD/svg11.dtd">
<svg width="100%" height="100%" viewBox="0 0 61 40" version="1.1" xmlns="http://www.w3.org/2000/svg" xmlns:xlink="http://www.w3.org/1999/xlink" xml:space="preserve" xmlns:serif="http://www.serif.com/" style="fill-rule:evenodd;clip-rule:evenodd;stroke-linecap:round;stroke-linejoin:round;">
    <g transform="matrix(1,0,0,1,-113.386,-61.6742)">
        <g transform="matrix(1,0,0,1,113.386,93.8535)">
            <path d="M0.249,0L59.776,0" style="fill:none;fill-rule:nonzero;stroke:black;stroke-width:0.5px;"/>
        </g>
        <g transform="matrix(1,0,0,1,113.386,88.8722)">
            <path d="M0.249,0L59.776,0" style="fill:none;fill-rule:nonzero;stroke:black;stroke-width:0.5px;"/>
        </g>
        <g transform="matrix(1,0,0,1,113.386,83.8909)">
            <path d="M0.249,0L59.776,0" style="fill:none;fill-rule:nonzero;stroke:black;stroke-width:0.5px;"/>
        </g>
        <g transform="matrix(1,0,0,1,113.386,78.9096)">
            <path d="M0.249,0L59.776,0" style="fill:none;fill-rule:nonzero;stroke:black;stroke-width:0.5px;"/>
        </g>
        <g transform="matrix(1,0,0,1,113.386,73.9283)">
            <path d="M0.249,0L59.776,0" style="fill:none;fill-rule:nonzero;stroke:black;stroke-width:0.5px;"/>
        </g>
        <g transform="matrix(1,0,0,1,172.465,83.8909)">
            <rect x="0" y="-9.963" width="0.946" height="19.925"/>
        </g>
        <g transform="matrix(0.004,0,0,-0.004,142.277,81.4002)">
            <path d="M1061.02,557.908C811.955,557.908 717.31,343.711 717.31,119.552C717.31,-264.01 1001.25,-557.908 1384.81,-557.908C1633.87,-557.908 1728.52,-343.711 1728.52,-119.552C1728.52,264.01 1444.58,557.908 1061.02,557.908ZM2445.83,0C2445.83,-214.197 2276.46,-373.599 2087.17,-478.207C1823.16,-622.665 1519.3,-677.459 1220.42,-677.459C921.544,-677.459 622.665,-622.665 358.655,-478.207C169.365,-373.599 0,-214.197 0,0C0,214.197 169.365,373.599 358.655,478.207C622.665,622.665 921.544,677.459 1220.42,677.459C1519.3,677.459 1823.16,622.665 2087.17,478.207C2276.46,373.599 2445.83,214.197 2445.83,0Z" style="fill-rule:nonzero;"/>
        </g>
        <g transform="matrix(0.004,0,0,-0.004,147.164,72.4339)">
            <path d="M-1479.45,1130.76C-1479.45,1021.17 -1394.77,981.32 -1285.18,981.32C-1090.91,981.32 -926.525,1051.06 -772.104,1120.8L-747.198,1240.35C-861.768,1325.03 -996.264,1384.81 -1150.68,1384.81C-1310.09,1384.81 -1479.45,1305.11 -1479.45,1130.76ZM-129.514,518.057C-129.514,214.197 -363.636,-54.795 -617.683,-54.795C-811.955,-54.795 -896.637,164.384 -896.637,398.506C-896.637,468.244 -891.656,537.983 -876.712,602.74L-801.992,981.32C-956.413,916.563 -1110.83,856.787 -1305.11,856.787C-1479.45,856.787 -1603.99,946.451 -1603.99,1110.83C-1603.99,1364.88 -1359.9,1509.34 -1125.78,1509.34C-971.357,1509.34 -836.861,1459.53 -717.31,1384.81L-488.169,2540.47C-458.281,2525.53 -423.412,2515.57 -388.543,2515.57C-278.954,2515.57 -149.439,2595.27 -49.813,2689.91L-313.823,1364.88L4.982,1544.21C134.496,1613.95 259.029,1643.84 373.599,1643.84C518.057,1643.84 637.609,1594.02 692.404,1504.36C782.067,1603.99 911.582,1653.8 1036.12,1653.8C1215.44,1653.8 1379.83,1544.21 1379.83,1310.09C1379.83,1085.93 1245.33,861.768 1056.04,861.768C931.507,861.768 866.75,971.357 866.75,1100.87C866.75,1305.11 1011.21,1419.68 1165.63,1419.68L1180.57,1419.68C1140.72,1489.41 1066,1519.3 991.283,1519.3C871.731,1519.3 742.217,1439.6 717.31,1305.11L448.319,-39.851C393.524,-4.981 328.767,14.944 259.029,14.944C189.29,14.944 114.571,-4.981 44.832,-39.851L313.823,1305.11L313.823,1339.98C313.823,1419.68 254.048,1469.49 169.365,1469.49C134.496,1469.49 89.664,1454.55 49.813,1434.62L-343.711,1215.44L-378.58,1061.02C-244.084,906.6 -129.514,727.273 -129.514,518.057ZM-428.393,194.271C-313.823,194.271 -254.047,363.636 -254.047,498.132C-254.047,647.572 -323.786,772.105 -413.449,886.675L-438.356,752.179C-458.281,662.516 -503.113,473.225 -503.113,338.73C-503.113,254.047 -483.188,194.271 -428.393,194.271Z" style="fill-rule:nonzero;"/>
        </g>
        <g transform="matrix(0.004,0,0,-0.004,117.371,88.8722)">
            <path d="M1325.03,-3163.14L1295.14,-3163.14C757.161,-3163.14 323.786,-2724.78 323.786,-2181.82C323.786,-1892.9 587.796,-1668.74 881.694,-1668.74C1150.68,-1668.74 1354.92,-1902.86 1354.92,-2181.82C1354.92,-2440.85 1140.72,-2655.04 881.694,-2655.04C826.899,-2655.04 777.086,-2645.08 727.273,-2625.16C856.787,-2819.43 1066,-2948.94 1310.09,-2948.94L1330.01,-2948.94L1325.03,-3163.14ZM2296.39,-1011.21C2635.12,-891.656 2859.28,-537.983 2859.28,-194.271C2859.28,254.047 2530.51,697.385 1997.51,752.179C2117.06,174.346 2226.65,-398.506 2296.39,-1011.21ZM368.618,139.477C368.618,-533.001 1011.21,-1090.91 1683.69,-1090.91C1823.16,-1090.91 1957.66,-1080.95 2092.15,-1061.02C2022.42,-428.393 1907.85,159.402 1778.33,752.179C1384.81,712.329 1160.65,448.319 1160.65,159.402C1160.65,-59.776 1285.18,-293.898 1564.13,-453.3C1589.04,-478.207 1599,-503.113 1599,-528.02C1599,-582.814 1549.19,-637.609 1489.41,-637.609C1474.47,-637.609 1459.53,-632.628 1444.58,-627.646C1046.08,-413.45 861.769,-54.795 861.769,293.898C861.769,732.254 1150.68,1160.65 1658.78,1275.22C1589.04,1564.13 1514.32,1858.03 1429.64,2146.95C896.638,1544.21 368.618,936.488 368.618,139.477ZM1668.74,-1305.11C732.254,-1305.11 9.963,-448.319 9.963,557.908C9.963,1439.6 662.516,2082.19 1245.33,2754.67C1150.68,3063.51 1061.02,3377.34 1021.17,3701.12C991.283,3960.15 986.302,4219.18 986.302,4478.21C986.302,5051.06 1260.27,5594.02 1728.52,5932.75C1758.41,5957.66 1798.26,5957.66 1828.14,5932.75C2181.82,5514.32 2490.66,4712.33 2490.66,4149.44C2490.66,3437.11 2062.27,2879.2 1594.02,2336.24C1698.63,1997.51 1788.29,1648.82 1872.98,1305.11C1892.9,1305.11 1917.81,1310.09 1937.73,1310.09C2709.84,1310.09 3212.95,672.478 3212.95,9.963C3212.95,-368.618 3048.57,-757.161 2679.95,-1036.11C2570.36,-1120.8 2445.83,-1175.59 2316.31,-1215.44C2331.26,-1389.79 2341.22,-1564.13 2341.22,-1738.48C2341.22,-1833.13 2336.24,-1932.75 2331.26,-2027.4C2296.39,-2620.17 1892.9,-3148.19 1325.03,-3163.14L1330.01,-2948.94C1793.28,-2938.98 2092.15,-2490.66 2122.04,-1997.51C2127.02,-1907.85 2132.01,-1813.2 2132.01,-1723.54C2132.01,-1569.12 2127.02,-1419.68 2112.08,-1265.26C1967.62,-1290.16 1823.16,-1305.11 1668.74,-1305.11ZM2132.01,4562.89C2132.01,4836.86 2112.08,4956.41 2032.38,5205.48C1539.23,4966.38 1225.4,4463.26 1225.4,3915.32C1225.4,3546.7 1315.07,3252.8 1404.73,2948.94C1803.24,3432.13 2132.01,3935.24 2132.01,4562.89Z" style="fill-rule:nonzero;"/>
        </g>
    </g>
</svg>
