<?xml version="1.0" encoding="UTF-8" standalone="no"?><!DOCTYPE svg PUBLIC "-//W3C//DTD SVG 1.1//EN" "http://www.w3.org/Graphics/SVG/1.1/DTD/svg11.dtd"><svg width="100%" height="100%" viewBox="0 0 523 170" version="1.1" xmlns="http://www.w3.org/2000/svg" xmlns:xlink="http://www.w3.org/1999/xlink" xml:space="preserve" xmlns:serif="http://www.serif.com/" style="fill-rule:evenodd;clip-rule:evenodd;stroke-linecap:round;stroke-linejoin:round;"><rect x="113.553" y="138.564" width="40.978" height="4.151"/><path d="M1.038,119.884l520.085,-0" style="fill:none;fill-rule:nonzero;stroke:#000;stroke-width:2.08px;"/><path d="M1.038,99.128l520.085,0" style="fill:none;fill-rule:nonzero;stroke:#000;stroke-width:2.08px;"/><path d="M1.038,78.373l520.085,-0" style="fill:none;fill-rule:nonzero;stroke:#000;stroke-width:2.08px;"/><path d="M1.038,57.617l520.085,0" style="fill:none;fill-rule:nonzero;stroke:#000;stroke-width:2.08px;"/><path d="M1.038,36.862l520.085,-0" style="fill:none;fill-rule:nonzero;stroke:#000;stroke-width:2.08px;"/><path d="M488.199,15.027c4.65,-0 9.05,2.408 9.05,7.555c-0,5.978 -4.649,10.046 -8.551,12.37c-2.989,1.744 -6.31,2.989 -9.714,2.989c-4.649,0 -9.049,-2.408 -9.049,-7.555c-0,-5.978 4.649,-10.046 8.551,-12.37c2.989,-1.744 6.31,-2.989 9.713,-2.989Z" style="fill-rule:nonzero;"/><rect x="469.936" y="30.382" width="2.698" height="68.746"/><path d="M472.633,81.279c7.638,-4.235 17.767,-10.876 17.767,-19.345c-0,-1.992 -0.416,-3.985 -1.163,-5.811c-6.642,7.389 -16.604,13.283 -16.604,23.495l-0,1.661Zm22.333,-38.025c-0,3.653 -1.246,6.808 -3.155,9.631c1.328,2.823 2.075,5.895 2.075,9.049c0,15.027 -21.253,21.337 -21.253,36.364l-1.329,0l0,-41.511l1.329,0l-0,5.812c8.136,-4.068 18.846,-10.544 18.846,-19.345c-0,-1.743 -0.498,-3.486 -1.163,-5.147c-0.249,-1.328 0.831,-2.241 1.91,-2.241c2.491,-0 2.74,5.23 2.74,7.388Z" style="fill-rule:nonzero;"/><path d="M220.966,108.427c4.649,-0 9.05,2.407 9.05,7.555c-0,5.977 -4.65,10.045 -8.552,12.37c-2.989,1.743 -6.309,2.989 -9.713,2.989c-4.65,-0 -9.05,-2.408 -9.05,-7.555c0,-5.978 4.65,-10.046 8.552,-12.37c2.988,-1.744 6.309,-2.989 9.713,-2.989Z" style="fill-rule:nonzero;"/><rect x="227.323" y="49.211" width="2.698" height="66.775"/><path d="M303.287,87.671c4.649,0 9.049,2.408 9.049,7.555c0,5.978 -4.649,10.046 -8.551,12.371c-2.989,1.743 -6.31,2.988 -9.714,2.988c-4.649,0 -9.049,-2.407 -9.049,-7.555c-0,-5.977 4.649,-10.045 8.551,-12.37c2.989,-1.743 6.31,-2.989 9.714,-2.989Z" style="fill-rule:nonzero;"/><rect x="309.641" y="37.061" width="2.698" height="58.169"/><path d="M383.752,56.538c4.649,-0 9.049,2.408 9.049,7.555c-0,5.978 -4.649,10.046 -8.551,12.37c-2.989,1.744 -6.31,2.989 -9.714,2.989c-4.649,0 -9.049,-2.408 -9.049,-7.555c-0,-5.978 4.649,-10.046 8.551,-12.37c2.989,-1.744 6.31,-2.989 9.714,-2.989Z" style="fill-rule:nonzero;"/><rect x="365.488" y="71.893" width="2.698" height="68.746"/><path d="M368.185,122.79c7.638,-4.235 17.767,-10.876 17.767,-19.345c-0,-1.992 -0.416,-3.985 -1.163,-5.811c-6.641,7.389 -16.604,13.283 -16.604,23.495l-0,1.661Zm22.333,-38.025c-0,3.653 -1.246,6.808 -3.155,9.631c1.328,2.823 2.076,5.895 2.076,9.049c-0,15.027 -21.254,21.337 -21.254,36.364l-1.328,0l-0,-41.511l1.328,0l-0,5.812c8.136,-4.068 18.846,-10.544 18.846,-19.345c-0,-1.743 -0.498,-3.486 -1.162,-5.147c-0.249,-1.328 0.83,-2.242 1.909,-2.242c2.491,0 2.74,5.231 2.74,7.389Z" style="fill-rule:nonzero;"/><path d="M311.511,32.711l-0,8.302l-165.679,24.699l0,-8.302l165.679,-24.699Z" style="fill-rule:nonzero;stroke:#000;stroke-width:1.66px;"/><text x="409.138px" y="168.867px" style="font-family:'LucidaGrande', 'Lucida Grande', sans-serif;font-weight:500;font-size:36.241px;">3</text><path d="M476.745,148.364l0,-14.528" style="fill:none;fill-rule:nonzero;stroke:#000;stroke-width:3.32px;"/><path d="M476.745,148.364l-35.527,4.99" style="fill:none;fill-rule:nonzero;stroke:#000;stroke-width:3.32px;"/><path d="M361.376,164.566l0,-14.529" style="fill:none;fill-rule:nonzero;stroke:#000;stroke-width:3.32px;"/><path d="M361.376,164.566l39.639,-5.566" style="fill:none;fill-rule:nonzero;stroke:#000;stroke-width:3.32px;"/><text x="218.749px" y="33.605px" style="font-family:'LucidaGrande', 'Lucida Grande', sans-serif;font-weight:500;font-size:36.241px;">3</text><path d="M138.646,129.182c4.649,0 9.049,2.408 9.049,7.555c0,5.978 -4.649,10.046 -8.551,12.37c-2.989,1.744 -6.31,2.989 -9.714,2.989c-4.649,0 -9.049,-2.407 -9.049,-7.555c-0,-5.977 4.649,-10.045 8.551,-12.37c2.989,-1.743 6.31,-2.989 9.714,-2.989Z" style="fill-rule:nonzero;"/><path d="M47.82,77.376c0.332,0 0.747,-0.083 1.079,-0.083c12.868,0 21.254,10.627 21.254,21.669c-0,6.31 -2.74,12.786 -8.884,17.435c-1.826,1.411 -3.902,2.324 -6.06,2.989c0.249,2.905 0.415,5.811 0.415,8.717c-0,1.577 -0.083,3.238 -0.166,4.815c-0.581,9.963 -7.472,18.929 -17.269,18.929c-8.966,0 -16.189,-7.306 -16.189,-16.355c-0,-4.815 4.4,-8.551 9.298,-8.551c4.483,-0 7.887,3.902 7.887,8.551c0,4.317 -3.57,7.887 -7.887,7.887c-0.913,-0 -1.743,-0.166 -2.573,-0.498c2.158,3.238 5.645,5.396 9.713,5.396c7.97,0 13.035,-7.638 13.533,-15.857c0.083,-1.494 0.166,-3.072 0.166,-4.566c-0,-2.574 -0.083,-5.064 -0.332,-7.638c-2.408,0.415 -4.816,0.664 -7.389,0.664c-15.608,0 -27.647,-14.28 -27.647,-31.05c0,-14.695 10.876,-25.405 20.59,-36.613c-1.578,-5.147 -3.072,-10.378 -3.736,-15.774c-0.498,-4.317 -0.581,-8.634 -0.581,-12.952c-0,-9.547 4.566,-18.596 12.37,-24.242c0.249,-0.166 0.581,-0.249 0.83,-0.249c0.332,-0 0.581,-0 0.83,0.249c5.895,6.974 11.042,20.34 11.042,29.722c0,11.872 -7.14,21.171 -14.944,30.22c1.744,5.645 3.238,11.457 4.65,17.185Zm7.057,38.606c5.645,-1.993 9.381,-7.887 9.381,-13.616c-0,-7.472 -5.479,-14.861 -14.363,-15.774c1.993,9.63 3.819,19.178 4.982,29.39Zm-32.13,-19.178c-0,11.208 10.71,20.506 21.918,20.506c2.324,0 4.566,-0.166 6.808,-0.498c-1.163,-10.544 -3.072,-20.34 -5.231,-30.22c-6.559,0.664 -10.295,5.064 -10.295,9.88c0,3.653 2.076,7.555 6.725,10.211c0.415,0.415 0.581,0.83 0.581,1.246c0,0.913 -0.83,1.826 -1.826,1.826c-0.249,0 -0.498,-0.083 -0.747,-0.166c-6.642,-3.57 -9.714,-9.547 -9.714,-15.359c0,-7.306 4.815,-14.446 13.284,-16.355c-1.163,-4.816 -2.408,-9.714 -3.819,-14.529c-8.884,10.045 -17.684,20.174 -17.684,33.458Zm27.729,-84.434c-8.219,3.985 -13.449,12.371 -13.449,21.503c-0,6.144 1.494,11.042 2.989,16.106c6.641,-8.053 12.121,-16.438 12.121,-26.899c-0,-4.566 -0.332,-6.559 -1.661,-10.71Z" style="fill-rule:nonzero;"/><rect x="145.002" y="61.362" width="2.698" height="75.38"/><path d="M420.408,102.034c7.638,-4.234 17.767,-10.876 17.767,-19.344c-0,-1.993 -0.416,-3.985 -1.163,-5.812c-6.642,7.389 -16.604,13.284 -16.604,23.496l-0,1.66Zm22.333,-38.024c-0,3.653 -1.246,6.808 -3.155,9.631c1.328,2.822 2.075,5.894 2.075,9.049c0,15.027 -21.253,21.337 -21.253,36.364l-1.329,-0l0,-41.511l1.329,-0l-0,5.811c8.136,-4.068 18.846,-10.544 18.846,-19.344c-0,-1.744 -0.498,-3.487 -1.163,-5.147c-0.249,-1.329 0.831,-2.242 1.91,-2.242c2.491,-0 2.74,5.23 2.74,7.389Z" style="fill-rule:nonzero;"/><rect x="417.711" y="51.137" width="2.698" height="68.746"/><path d="M435.974,35.782c4.65,0 9.05,2.408 9.05,7.555c-0,5.978 -4.649,10.046 -8.551,12.371c-2.989,1.743 -6.31,2.989 -9.714,2.989c-4.649,-0 -9.049,-2.408 -9.049,-7.555c-0,-5.978 4.649,-10.046 8.551,-12.371c2.989,-1.743 6.31,-2.989 9.713,-2.989Z" style="fill-rule:nonzero;"/></svg>