<?xml version="1.0" encoding="UTF-8" standalone="no"?><!DOCTYPE svg PUBLIC "-//W3C//DTD SVG 1.1//EN" "http://www.w3.org/Graphics/SVG/1.1/DTD/svg11.dtd"><svg width="100%" height="100%" viewBox="0 0 655 212" version="1.1" xmlns="http://www.w3.org/2000/svg" xmlns:xlink="http://www.w3.org/1999/xlink" xml:space="preserve" xmlns:serif="http://www.serif.com/" style="fill-rule:evenodd;clip-rule:evenodd;stroke-linecap:round;stroke-linejoin:round;"><rect x="113.553" y="157.051" width="40.978" height="4.151"/><path d="M1.038,138.371l652.669,-0" style="fill:none;fill-rule:nonzero;stroke:#000;stroke-width:2.08px;"/><path d="M1.038,117.615l652.669,0" style="fill:none;fill-rule:nonzero;stroke:#000;stroke-width:2.08px;"/><path d="M1.038,96.86l652.669,-0" style="fill:none;fill-rule:nonzero;stroke:#000;stroke-width:2.08px;"/><path d="M1.038,76.104l652.669,0" style="fill:none;fill-rule:nonzero;stroke:#000;stroke-width:2.08px;"/><path d="M1.038,55.349l652.669,-0" style="fill:none;fill-rule:nonzero;stroke:#000;stroke-width:2.08px;"/><rect x="374.614" y="55.349" width="3.944" height="83.022"/><rect x="650.801" y="55.349" width="3.944" height="83.022"/><rect x="271.656" y="0" width="2.698" height="49.923"/><path d="M263.77,137.291c4.649,0 9.05,2.408 9.05,7.555c-0,5.978 -4.65,10.046 -8.552,12.371c-2.988,1.743 -6.309,2.988 -9.713,2.988c-4.649,0 -9.05,-2.407 -9.05,-7.555c0,-5.977 4.65,-10.045 8.552,-12.37c2.988,-1.743 6.309,-2.989 9.713,-2.989Z" style="fill-rule:nonzero;"/><path d="M271.657,49.952c0,-1.992 -1.743,-3.404 -3.487,-3.404c-0.332,0 -0.664,0 -0.996,0.083c-2.574,0.748 -6.393,3.321 -9.464,5.314c-3.072,1.992 -6.974,4.4 -8.635,6.476c-0.581,0.664 -0.913,1.494 -0.913,2.324c0,1.993 1.744,3.404 3.487,3.404c0.332,0 0.664,0 0.996,-0.083c2.574,-0.747 6.476,-3.321 9.548,-5.313c3.072,-1.993 6.974,-4.401 8.634,-6.476c0.581,-0.664 0.83,-1.495 0.83,-2.325Zm-4.234,-5.977c3.902,-0 6.891,1.743 6.891,5.977c0,1.578 -0.332,3.072 -0.83,4.649c-0.996,3.155 -2.657,6.144 -5.397,7.971c-4.483,2.988 -9.381,4.234 -15.608,4.234c-3.902,-0 -6.974,-1.827 -6.974,-6.061c0,-1.577 0.415,-3.072 0.914,-4.649c0.996,-3.155 2.573,-6.144 5.313,-7.97c4.483,-2.989 9.465,-4.151 15.691,-4.151Z" style="fill-rule:nonzero;"/><rect x="188.132" y="121.513" width="2.698" height="58.369"/><path d="M206.396,106.158c4.649,0 9.049,2.408 9.049,7.555c0,5.978 -4.649,10.046 -8.551,12.37c-2.989,1.744 -6.31,2.989 -9.714,2.989c-4.649,0 -9.049,-2.407 -9.049,-7.555c-0,-5.977 4.649,-10.045 8.551,-12.37c2.989,-1.744 6.31,-2.989 9.714,-2.989Z" style="fill-rule:nonzero;"/><rect x="591.667" y="90.38" width="2.698" height="68.746"/><path d="M609.93,75.025c4.65,-0 9.05,2.408 9.05,7.555c-0,5.977 -4.649,10.046 -8.551,12.37c-2.989,1.744 -6.31,2.989 -9.714,2.989c-4.649,-0 -9.049,-2.408 -9.049,-7.555c-0,-5.978 4.649,-10.046 8.551,-12.37c2.989,-1.744 6.31,-2.989 9.713,-2.989Z" style="fill-rule:nonzero;"/><rect x="398.794" y="111.135" width="2.698" height="61.829"/><rect x="424.944" y="6.92" width="2.698" height="53.381"/><path d="M417.058,95.78c4.649,0 9.049,2.408 9.049,7.555c0,5.978 -4.649,10.046 -8.551,12.371c-2.989,1.743 -6.31,2.988 -9.714,2.988c-4.649,0 -9.049,-2.407 -9.049,-7.555c0,-5.977 4.649,-10.045 8.551,-12.37c2.989,-1.743 6.31,-2.989 9.714,-2.989Z" style="fill-rule:nonzero;"/><path d="M424.945,60.33c-0,-1.993 -1.744,-3.404 -3.487,-3.404c-0.332,0 -0.664,0 -0.996,0.083c-2.574,0.747 -6.393,3.321 -9.465,5.314c-3.072,1.992 -6.974,4.4 -8.634,6.475c-0.581,0.664 -0.913,1.495 -0.913,2.325c-0,1.992 1.743,3.404 3.487,3.404c0.332,-0 0.664,-0 0.996,-0.083c2.574,-0.747 6.476,-3.321 9.547,-5.314c3.072,-1.992 6.974,-4.4 8.635,-6.475c0.581,-0.665 0.83,-1.495 0.83,-2.325Zm-4.234,-5.978c3.902,0 6.891,1.744 6.891,5.978c-0,1.577 -0.332,3.072 -0.831,4.649c-0.996,3.155 -2.656,6.144 -5.396,7.97c-4.483,2.989 -9.381,4.234 -15.608,4.234c-3.902,0 -6.974,-1.826 -6.974,-6.06c0,-1.578 0.415,-3.072 0.913,-4.649c0.997,-3.155 2.574,-6.144 5.314,-7.97c4.483,-2.989 9.464,-4.152 15.691,-4.152Z" style="fill-rule:nonzero;"/><path d="M331.52,106.158c4.65,0 9.05,2.408 9.05,7.555c-0,5.978 -4.65,10.046 -8.552,12.37c-2.988,1.744 -6.309,2.989 -9.713,2.989c-4.649,0 -9.05,-2.407 -9.05,-7.555c0,-5.977 4.65,-10.045 8.552,-12.37c2.989,-1.744 6.309,-2.989 9.713,-2.989Z" style="fill-rule:nonzero;"/><rect x="245.506" y="152.646" width="2.698" height="47.991"/><rect x="120.382" y="163.024" width="2.698" height="47.991"/><rect x="146.534" y="6.92" width="2.698" height="53.381"/><path d="M47.82,95.863c0.332,0 0.747,-0.083 1.079,-0.083c12.868,0 21.254,10.627 21.254,21.669c-0,6.31 -2.74,12.786 -8.884,17.435c-1.826,1.411 -3.902,2.324 -6.06,2.989c0.249,2.905 0.415,5.811 0.415,8.717c-0,1.577 -0.083,3.238 -0.166,4.815c-0.581,9.963 -7.472,18.929 -17.269,18.929c-8.966,0 -16.189,-7.306 -16.189,-16.355c-0,-4.815 4.4,-8.551 9.298,-8.551c4.483,-0 7.887,3.902 7.887,8.551c0,4.317 -3.57,7.887 -7.887,7.887c-0.913,-0 -1.743,-0.166 -2.573,-0.498c2.158,3.238 5.645,5.396 9.713,5.396c7.97,0 13.035,-7.638 13.533,-15.857c0.083,-1.494 0.166,-3.072 0.166,-4.566c-0,-2.574 -0.083,-5.065 -0.332,-7.638c-2.408,0.415 -4.816,0.664 -7.389,0.664c-15.608,-0 -27.647,-14.28 -27.647,-31.05c0,-14.695 10.876,-25.405 20.59,-36.613c-1.578,-5.147 -3.072,-10.378 -3.736,-15.774c-0.498,-4.317 -0.581,-8.634 -0.581,-12.952c-0,-9.547 4.566,-18.597 12.37,-24.242c0.249,-0.166 0.581,-0.249 0.83,-0.249c0.332,-0 0.581,-0 0.83,0.249c5.895,6.974 11.042,20.34 11.042,29.722c0,11.872 -7.14,21.17 -14.944,30.22c1.744,5.645 3.238,11.457 4.65,17.185Zm7.057,38.606c5.645,-1.993 9.381,-7.887 9.381,-13.616c-0,-7.472 -5.479,-14.861 -14.363,-15.774c1.993,9.63 3.819,19.178 4.982,29.39Zm-32.13,-19.178c-0,11.208 10.71,20.506 21.918,20.506c2.324,-0 4.566,-0.166 6.808,-0.498c-1.163,-10.544 -3.072,-20.341 -5.231,-30.22c-6.559,0.664 -10.295,5.064 -10.295,9.879c0,3.653 2.076,7.555 6.725,10.212c0.415,0.415 0.581,0.83 0.581,1.246c0,0.913 -0.83,1.826 -1.826,1.826c-0.249,-0 -0.498,-0.083 -0.747,-0.166c-6.642,-3.57 -9.714,-9.548 -9.714,-15.359c0,-7.306 4.815,-14.446 13.284,-16.355c-1.163,-4.816 -2.408,-9.714 -3.819,-14.529c-8.884,10.045 -17.684,20.174 -17.684,33.458Zm27.729,-84.434c-8.219,3.985 -13.449,12.37 -13.449,21.503c-0,6.144 1.494,11.042 2.989,16.106c6.641,-8.053 12.121,-16.438 12.121,-26.899c-0,-4.566 -0.332,-6.559 -1.661,-10.71Z" style="fill-rule:nonzero;"/><path d="M138.646,147.669c4.649,0 9.049,2.408 9.049,7.555c0,5.978 -4.649,10.046 -8.551,12.37c-2.989,1.744 -6.31,2.989 -9.714,2.989c-4.649,0 -9.049,-2.407 -9.049,-7.555c-0,-5.977 4.649,-10.045 8.551,-12.37c2.989,-1.744 6.31,-2.989 9.714,-2.989Z" style="fill-rule:nonzero;"/><path d="M146.533,60.33c-0,-1.993 -1.744,-3.404 -3.487,-3.404c-0.332,0 -0.664,0 -0.996,0.083c-2.574,0.747 -6.393,3.321 -9.465,5.314c-3.072,1.992 -6.974,4.4 -8.634,6.475c-0.581,0.664 -0.913,1.495 -0.913,2.325c-0,1.992 1.743,3.404 3.486,3.404c0.333,-0 0.665,-0 0.997,-0.083c2.573,-0.747 6.475,-3.321 9.547,-5.314c3.072,-1.992 6.974,-4.4 8.635,-6.475c0.581,-0.665 0.83,-1.495 0.83,-2.325Zm-4.234,-5.978c3.902,0 6.89,1.744 6.89,5.978c0,1.577 -0.332,3.072 -0.83,4.649c-0.996,3.155 -2.656,6.144 -5.396,7.97c-4.483,2.989 -9.382,4.234 -15.608,4.234c-3.902,0 -6.974,-1.826 -6.974,-6.06c-0,-1.578 0.415,-3.072 0.913,-4.649c0.996,-3.155 2.574,-6.144 5.314,-7.97c4.483,-2.989 9.464,-4.152 15.691,-4.152Z" style="fill-rule:nonzero;"/><rect x="313.257" y="121.513" width="2.698" height="58.369"/><rect x="555.257" y="0" width="2.698" height="49.923"/><path d="M547.369,64.647c4.649,0 9.05,2.408 9.05,7.555c-0,5.978 -4.65,10.046 -8.552,12.37c-2.988,1.744 -6.309,2.989 -9.713,2.989c-4.649,0 -9.05,-2.407 -9.05,-7.555c0,-5.977 4.65,-10.045 8.552,-12.37c2.988,-1.744 6.309,-2.989 9.713,-2.989Z" style="fill-rule:nonzero;"/><path d="M555.256,49.952c0,-1.992 -1.743,-3.404 -3.487,-3.404c-0.332,0 -0.664,0 -0.996,0.083c-2.574,0.748 -6.393,3.321 -9.464,5.314c-3.072,1.992 -6.974,4.4 -8.635,6.476c-0.581,0.664 -0.913,1.494 -0.913,2.324c0,1.993 1.744,3.404 3.487,3.404c0.332,0 0.664,0 0.996,-0.083c2.574,-0.747 6.476,-3.321 9.548,-5.313c3.072,-1.993 6.974,-4.401 8.634,-6.476c0.581,-0.664 0.83,-1.495 0.83,-2.325Zm-4.234,-5.977c3.902,-0 6.891,1.743 6.891,5.977c-0,1.578 -0.332,3.072 -0.83,4.649c-0.996,3.155 -2.657,6.144 -5.397,7.971c-4.483,2.988 -9.381,4.234 -15.608,4.234c-3.902,-0 -6.974,-1.827 -6.974,-6.061c0,-1.577 0.415,-3.072 0.914,-4.649c0.996,-3.155 2.573,-6.144 5.313,-7.97c4.483,-2.989 9.465,-4.151 15.691,-4.151Z" style="fill-rule:nonzero;"/><rect x="529.105" y="80.002" width="2.698" height="68.746"/><rect x="466.544" y="69.624" width="2.698" height="68.746"/><path d="M484.808,54.269c4.649,0 9.049,2.408 9.049,7.555c0,5.978 -4.649,10.046 -8.551,12.371c-2.989,1.743 -6.31,2.988 -9.713,2.988c-4.65,0 -9.05,-2.407 -9.05,-7.555c0,-5.977 4.649,-10.045 8.551,-12.37c2.989,-1.743 6.31,-2.989 9.714,-2.989Z" style="fill-rule:nonzero;"/></svg>